<?xml version="1.0" encoding="UTF-8" standalone="no"?>
<svg
   xmlns:dc="http://purl.org/dc/elements/1.1/"
   xmlns:cc="http://creativecommons.org/ns#"
   xmlns:rdf="http://www.w3.org/1999/02/22-rdf-syntax-ns#"
   xmlns:svg="http://www.w3.org/2000/svg"
   xmlns="http://www.w3.org/2000/svg"
   xmlns:sodipodi="http://sodipodi.sourceforge.net/DTD/sodipodi-0.dtd"
   xmlns:inkscape="http://www.inkscape.org/namespaces/inkscape"
   width="210mm"
   height="297mm"
   viewBox="0 0 210 297"
   version="1.1"
   id="svg8"
   inkscape:version="1.0.2 (e86c870879, 2021-01-15)"
   sodipodi:docname="judastrainwreck01.svg">
  <defs
     id="defs2">
    <inkscape:path-effect
       effect="roughen"
       id="path-effect973"
       is_visible="true"
       lpeversion="1"
       method="size"
       max_segment_size="0.06"
       segments="1"
       displace_x="0.01;1"
       displace_y="0.01;1"
       global_randomize="0.3;2147483646"
       handles="along"
       shift_nodes="true"
       fixed_displacement="true"
       spray_tool_friendly="true" />
    <inkscape:path-effect
       effect="sketch"
       id="path-effect971"
       is_visible="true"
       lpeversion="1"
       nbiter_approxstrokes="1"
       strokelength="100"
       strokelength_rdm="0.3;1"
       strokeoverlap="0.3"
       strokeoverlap_rdm="0.3;1"
       ends_tolerance="0.1;1"
       parallel_offset="5;1"
       tremble_size="5;1"
       tremble_frequency="1"
       nbtangents="5"
       tgt_places_rdmness="1;1"
       tgtscale="10"
       tgtlength="100"
       tgtlength_rdm="0.3;1" />
  </defs>
  <sodipodi:namedview
     id="base"
     pagecolor="#ffffff"
     bordercolor="#666666"
     borderopacity="1.0"
     inkscape:pageopacity="0.0"
     inkscape:pageshadow="2"
     inkscape:zoom="0.24748737"
     inkscape:cx="441.19357"
     inkscape:cy="503.37391"
     inkscape:document-units="mm"
     inkscape:current-layer="layer1"
     inkscape:document-rotation="0"
     showgrid="false"
     inkscape:window-width="1366"
     inkscape:window-height="750"
     inkscape:window-x="0"
     inkscape:window-y="18"
     inkscape:window-maximized="0"
     inkscape:snap-global="false" />
  <metadata
     id="metadata5">
    <rdf:RDF>
      <cc:Work
         rdf:about="">
        <dc:format>image/svg+xml</dc:format>
        <dc:type
           rdf:resource="http://purl.org/dc/dcmitype/StillImage" />
        <dc:title></dc:title>
      </cc:Work>
    </rdf:RDF>
  </metadata>
  <g
     inkscape:label="Layer 1"
     inkscape:groupmode="layer"
     id="layer1">
    <path
       id="path73"
       style="fill:#000000;stroke-width:3.46028"
       transform="scale(0.26458333)"
       d="m 166.18359,151.55469 c -1.1688,-0.003 -2.34362,0.0161 -3.52343,0.0566 38.34896,224.84824 2.1036,195.89127 -12.64454,239.09179 -7.05538,20.9548 -4.53204,-40.2045 -2.59765,-106.90624 0.27467,-9.47085 0.34184,-89.52732 -1.00977,-88.17579 -2.55562,2.55585 -17.62072,105.40409 -10.05664,184.69336 2.72606,28.57544 0.97164,17.47279 -5.65429,45.41407 -4.79666,41.03981 -5.76531,64.59157 -1.53516,101.79492 l 2.55664,20.91015 c -14.55051,12.47261 -31.928784,24.46006 -49.175781,28.83399 -61.823362,14.57003 -67.948576,-11.8354 -13.453125,44.6914 8.551658,5.07231 47.716166,45.54316 52.865236,53.43555 17.50374,27.68832 100.16303,65.46104 100.49414,96.30859 0.21384,19.9216 22.09772,84.11675 22.28711,83.53321 -0.0599,-13.34438 8.21287,-12.19791 5.6289,-7.78516 -1.1762,1.90315 -0.48812,3.45899 1.52735,3.45899 17.38751,-17.71192 -21.05888,-49.80961 -12.31836,-61.29688 10.03513,3.0819 44.66428,26.92483 45.17969,20.60547 0,-4.29505 -14.51138,-18.30104 -31.17383,-26.7832 -14.36698,-7.31362 -22.68451,-15.5226 -20.04883,-19.78711 0.87078,-1.40905 -0.0506,-5.61366 -2.04687,-9.34375 -8.95269,-16.72838 10.35039,-11.70561 20.38671,5.30469 8.69919,14.74393 18.61827,17.22431 28.57227,12.70703 13.50452,-6.12856 9.2211,-4.53293 19.07226,-8.80079 15.56732,-6.74425 15.29035,-0.45966 33.89649,-3.52929 28.87001,-4.83229 50.84257,-22.14004 74.99023,-34.70313 33.79266,-17.58101 59.60439,-30.64523 93.61133,-40.03906 20.04476,-5.53702 24.79925,-2.80785 37.54297,-5.99609 15.0032,-3.75352 -2.96112,-4.96943 -10.65039,-5.35157 -29.2989,-1.45606 -46.31196,3.78025 -76.11523,17.63672 -8.56419,3.96938 -19.75368,9.40435 -24.86719,12.07618 -5.60669,-51.24373 -23.32838,-67.41045 -47.79883,-93.1875 -5.95576,-3.68092 -3.77335,-12.11133 3.13477,-12.11133 14.97668,0 59.15039,-30.31889 59.15039,-40.59766 0,-6.18187 44.51044,-1.79615 64.05078,7.10547 49.94097,10.40239 89.40872,68.80818 132.67968,80.3457 48.05267,8.44933 -32.12402,27.7785 -155.10156,78.39453 -25.44,13.00184 -78.23545,24.66693 -113.82422,50.27735 -63.91791,45.99667 -76.34241,43.08271 12.51954,10.33984 48.93656,-18.03161 72.053,-32.34899 93.26367,-42.53125 11.0262,-5.26488 7.46218,-3.09936 8.66992,-3.70117 -26.25743,85.77 -31.62974,165.2105 -132.00781,237.53516 C 323.02889,953.6328 221.26072,860.59985 193.27148,859.8066 c -10.39347,-34.87348 -1.23066,-84.0333 -0.46484,-105.49414 1.11737,-28.3699 -9.22926,-3.88563 -11.88867,12.53906 -1.69475,10.46736 -1.39478,29.49563 -1.80078,41.05078 l -0.73828,21.00977 -26.29102,12.50195 c -36.8961,13.88523 -65.776902,24.87844 -98.945312,37.98047 -13.526127,5.30676 -36.421731,22.23272 -35.392578,22.0625 52.521951,-8.6868 85.03671,-35.17764 116.69727,-45.6875 11.49991,-3.81745 27.87218,-13.73219 37.06835,-16.69726 -7.63071,30.37825 6.73921,62.29445 8.9668,93.53711 3.3861,8.67966 78.38983,-22.28972 170.18164,81.35156 54.20883,-69.68167 116.83315,-82.14816 202.84766,-106.20508 4.4773,-1.30979 6.16414,2.55274 8.65039,19.80859 1.72467,11.97018 5.04582,22.08132 7.52148,22.89453 2.43844,0.80092 4.05356,0.14093 3.58985,-1.46484 -0.46379,-1.60577 1.16625,-6.54631 3.62109,-10.97852 2.96349,-5.35075 4.86312,-26.85941 5.65625,-64.01367 0.65696,-30.77609 1.31549,-57.05689 1.46289,-58.40039 31.12321,20.23423 66.68141,55.32979 109.56836,62.73633 13.60838,2.35016 35.29443,14.28413 47.45117,20.72266 12.15674,6.43858 21.31738,6.77836 22.10352,5.99218 0.78614,-0.78614 -10.71652,-7.7213 -25.5625,-15.41211 -50.00659,-25.90541 -63.38921,-34.04434 -60.75586,-36.94531 1.44178,-1.58843 0.70683,-1.78808 -1.63281,-0.44336 -3.84616,2.2106 -17.37854,-2.72083 -21.69922,-7.9082 -0.95157,-1.14247 -11.8502,-7.15879 -24.22071,-13.37109 -36.16229,-18.16037 -42.46509,-22.89641 -47.32031,-35.55469 l -4.59375,-11.97656 1.13477,11.24609 c 0.62487,6.1852 0.58905,11.24609 -0.0801,11.24609 -2.99667,0 -7.69644,-18.26865 -8.45117,-32.84961 -1.18923,-22.97397 -6.31595,-24.81791 -11.28516,-4.05859 -1.5391,6.42932 -1.10779,9.04047 1.25196,7.58203 2.09907,-1.29733 3.57893,1.10555 3.54492,5.76563 -0.0426,6.42799 -0.70763,6.97452 -3.40625,2.79883 -3.76305,-5.82331 -4.87072,5.5861 -3.58594,36.97265 5.93359,41.12773 -69.96867,35.13684 -73.92773,13.05078 3.42792,-86.88913 12.94586,-104.67555 76.18945,-122.03515 C 665.80898,675.75699 770.96046,647.9734 660.40232,624.26168 638.49693,610.54079 622.0042,606.01031 605.51365,596.31246 561.89642,570.66181 562.4986,578.06499 493.08982,532.5859 c -13.6897,-6.05619 -27.62766,-9.29451 -40.96679,-10.60742 14.29887,-5.93861 25.75402,-6.23472 22.83593,-17.09766 -5.82558,-25.89173 -75.64485,-10.46913 -97.54296,-2.37896 -43.031,15.25383 -32.48932,19.3484 -49.10743,52.32617 -6.15391,12.21211 -0.76417,27.90404 10.84766,40.05469 48.44871,30.10972 66.48226,60.12125 67.66602,61.65821 18.93796,26.82693 -2.59733,67.61967 -30.15625,80.42578 -36.97099,16.05415 -77.21259,16.82663 -97.75586,-8.17383 -15.40554,-17.19417 -13.25863,-32.79426 6.20898,-45.13086 13.49326,-4.11586 20.26967,-28.94781 28.28516,-29.93555 2.31908,-0.0292 3.32367,-2.38081 2.23242,-5.22461 -13.65479,-4.32482 -67.71112,-10.53011 -79.98828,-0.33593 -3.56568,5.76941 -1.9537,16.73968 0.75976,19.39062 8.19273,8.00399 21.66457,27.52406 22.60547,43.98047 -16.25811,25.73874 -37.16429,21.15111 -58.54297,1.67969 -34.98341,-31.86243 38.52384,-91.56148 32.90235,-100.17969 -0.87879,-1.34727 -5.79273,1.94594 -10.89844,6.22656 -21.04474,17.64386 -41.5187,32.06857 -43.24414,69.87695 -0.72156,15.811 -2.35292,16.25026 -15.5918,2.15626 -5.58974,-5.9508 -17.69933,-16.84946 -26.91015,-24.22071 C 123.57626,656.02984 113.63057,644.7614 102.61719,635.60938 66.435789,605.63697 66.380668,607.5448 74.542969,605.22852 116.21172,602.85866 136.65513,554.5247 155.57617,544.5957 c 13.13945,-6.74392 23.85156,-9.32488 23.85156,-5.74804 9.10521,7.53777 25.3438,28.10206 50.93946,33.15039 7.11671,1.23904 9.06359,5.15057 5,10.04687 -3.39593,4.09172 -3.07702,18.37617 0.49023,21.94336 0.70544,0.70541 4.25816,-4.5667 7.89453,-11.71484 15.27822,-19.92134 11.50404,-34.1074 17.01953,-56.85352 3.07187,-11.49724 -9.5875,-14.11125 -10.4082,-27.0625 0,-7.1159 -11.72163,-12.38119 -61.75976,-21.40039 -59.43576,-12.51409 -30.12524,-14.77728 -19.57618,9.45703 2.09055,10.62946 -6.28889,6.56169 1.04688,16.75586 40.99125,5.30816 -12.00564,12.09637 -28.70703,12.47266 -5.07511,0 -7.80858,-2.3688 -6.92188,-8.65039 2.08139,-14.74503 -4.28623,-42.97597 2.25391,-63.65821 9.81937,-11.32074 19.1241,-0.0946 31.71875,-1.7246 59.63089,-8.86707 104.24916,-15.584 136.63672,-15.25586 2.15917,0.0219 4.26514,0.0742 6.3164,0.16015 170.29105,5.25236 197.07778,48.10985 193.61719,50.81055 -16.28824,12.71163 105.72851,41.47165 117.63281,58.31641 8.32006,14.96416 10.60537,19.10565 17.74024,39.39649 l 3.81445,10.94141 5.52149,-13.66016 c 22.22852,-26.75329 54.21978,-154.55548 29.98242,-120.01172 -48.16683,8.91484 -80.37293,-26.94356 -93.96289,-47.86523 -19.98188,-71.18622 34.03502,-163.24442 51.84179,-207.74805 -3.51628,-0.70908 -1.54353,-2.62089 5.38672,-5.21875 9.43937,-3.53852 11.19874,-3.30176 12.875,1.73047 1.06791,3.20577 5.77162,15.73925 10.45313,27.85156 l 8.51172,22.02148 c 19.34921,50.06094 22.75891,130.8001 9.9414,189.9629 -6.49689,29.98825 82.08366,-49.27615 -20.84179,-239.19727 -3.61066,-10.4673 -6.71759,-17.47345 -6.9043,-15.57031 -0.18645,1.90314 -3.49336,-2.5206 -7.34961,-9.83008 -6.00306,-11.37877 -8.24631,-12.98033 -15.59961,-11.13477 -84.16895,24.63148 -135.03884,96.67854 -207.07227,59.4336 -47.93801,-10.20113 -133.25086,6.1797 -143.8457,8.06836 -49.38558,-62.0008 -80.69669,-83.17244 -116.92969,-83.25586 z m 31.79688,378.08008 c 2.75988,0.004 6.49259,0.13103 11.36914,0.33007 27.96971,1.39761 30.37445,0.72487 28.9043,23.25196 0,7.67232 -1.16834,13.77976 -2.59571,13.57226 -45.80321,-16.8254 -48.2976,-30.86774 -37.67773,-37.15429 z m 230.16797,18.16015 c 9.95329,-0.15988 9.44904,5.5408 -3.9043,13.41992 -16.1301,9.51754 -29.69528,24.07086 -48.41992,23.68164 -15.05031,-0.31284 -15.69338,-34.41632 -4.34961,-35.03125 3.74397,0 5.28969,4.09727 5.54492,14.70508 l 0.35352,14.70703 2.82812,-12.02539 c 1.55584,-6.61402 2.14285,-13.13686 1.30274,-14.49609 10.60415,-4.64807 33.75417,-4.7082 46.64453,-4.96094 z m -84.36914,2.31641 c 5.96454,2.70449 1.34924,14.914 0.23632,18.78515 l -4.05664,13.8418 L 337.5,570.80273 c -1.9173,-9.30199 2.32764,-20.72106 6.2793,-20.6914 z m -78.42578,178.80859 c 7.96794,-0.23589 12.48561,9.06511 19.81445,13.3418 14.762,8.26377 14.89345,10.23373 -0.0156,15.625 -15.21213,6.85327 -9.16493,11.82062 -23.70703,-3.14649 -15.55286,-15.92757 -15.82314,-18.82663 -2.23633,-23.95507 2.28317,-1.24926 4.30578,-1.8108 6.14454,-1.86524 z"
       sodipodi:nodetypes="sccscsccccccscccccsssssscsssscccsscccsscccccssccccsccccssssscsssssssssccssssccccccsccccsccccccccscsssssccccccsscccccccsccscscccccccsscssccscccssccccccsscccccccccccsccccss" />
    <g
       id="g951"
       transform="matrix(0.56518913,0,0,0.56518913,232.64161,353.66075)"
       style="opacity:1">
      <path
         id="path905"
         style="fill:#ffffff;stroke:none;stroke-width:0.26458300000000001px;stroke-linecap:butt;stroke-linejoin:miter;stroke-opacity:1"
         d="m -199.69789,-342.11069 c -7.88603,-9.61735 -15.77207,-19.2347 -23.6581,-28.85205 -20.98393,-6.77482 -41.96787,-13.54965 -62.9518,-20.32447 -13.40259,15.54859 -26.80519,31.09719 -40.20778,46.64578 7.75804,8.17895 15.50363,16.37112 23.26945,24.54181 8.66649,7.28164 17.33297,14.56327 25.99946,21.84491 13.98619,5.83802 27.97238,11.67605 41.95857,17.51407 11.8634,-20.45668 23.7268,-40.91337 35.5902,-61.37005 z" />
      <path
         id="path925"
         style="fill:#ffffff;stroke:none;stroke-width:0.26458300000000001px;stroke-linecap:butt;stroke-linejoin:miter;stroke-opacity:1"
         d="m -228.7229,-362.93912 c -0.62928,0.69766 -0.71182,1.76897 -1.01968,2.64564 -1.93761,7.71147 -3.32574,15.54781 -4.82973,23.35177 -3.17322,17.03887 -6.13397,34.11658 -9.0211,51.20601 28.1437,21.34891 56.29647,42.68615 84.43451,64.04234 25.79303,20.51032 51.5774,41.03177 77.375842,61.53512 27.718483,21.06686 55.436971,42.13375 83.1554546,63.2006 31.4441054,-28.53019 62.8881874,-57.06033 94.3323124,-85.59052 -75.73199,-37.76542 -151.463975,-75.53084 -227.195959,-113.29626 -24.72074,-17.7761 -49.48419,-35.49763 -74.56674,-52.76115 -6.62513,-4.48271 -13.18586,-9.08144 -20.07277,-13.15893 -0.8372,-0.42753 -1.64983,-1.02151 -2.59214,-1.17462 z" />
      <path
         id="rect75"
         style="color:#000000;font-style:normal;font-variant:normal;font-weight:normal;font-stretch:normal;font-size:medium;line-height:normal;font-family:sans-serif;font-variant-ligatures:normal;font-variant-position:normal;font-variant-caps:normal;font-variant-numeric:normal;font-variant-alternates:normal;font-variant-east-asian:normal;font-feature-settings:normal;font-variation-settings:normal;text-indent:0;text-align:start;text-decoration:none;text-decoration-line:none;text-decoration-style:solid;text-decoration-color:#000000;letter-spacing:normal;word-spacing:normal;text-transform:none;writing-mode:lr-tb;direction:ltr;text-orientation:mixed;dominant-baseline:auto;baseline-shift:baseline;text-anchor:start;white-space:normal;shape-padding:0;shape-margin:0;inline-size:0;clip-rule:nonzero;display:inline;overflow:visible;visibility:visible;opacity:0.988;isolation:auto;mix-blend-mode:normal;color-interpolation:sRGB;color-interpolation-filters:linearRGB;solid-color:#000000;solid-opacity:1;vector-effect:none;fill:#000000;fill-opacity:1;fill-rule:evenodd;stroke:none;stroke-width:2.51457;stroke-linecap:butt;stroke-linejoin:miter;stroke-miterlimit:4;stroke-dasharray:none;stroke-dashoffset:0;stroke-opacity:1;color-rendering:auto;image-rendering:auto;shape-rendering:auto;text-rendering:auto;enable-background:accumulate;stop-color:#000000;stop-opacity:1"
         transform="matrix(0.46813238,0,0,0.46813238,-411.61728,-625.73877)"
         d="m 420.75586,353.25391 c 1.54027,1.28737 5.61583,0.66531 1.63672,0.0664 z m 11.11719,1.88086 c -22.03074,16.1811 -30.48488,45.51063 -27.31446,71.82031 1.0508,27.92368 -3.17926,55.93004 -11.45117,82.58203 -10.77227,6.80047 -19.22347,-9.58405 -29.64258,-11.5332 -24.66601,-13.24164 -48.06228,-28.70402 -72.82617,-41.7461 -27.88429,-14.32669 -59.71596,-25.5634 -91.41992,-20.07226 -18.45993,3.15139 -33.56032,17.94746 -37.98242,36.00976 -8.80409,31.75286 -7.98443,65.27743 -2.39453,97.50977 3.03619,15.12113 4.09457,30.54374 6.93945,45.68945 6.60916,9.77093 18.85219,12.83971 27.63477,20.13867 48.18511,31.37386 93.19345,67.29689 140.99414,99.23828 11.56831,7.34761 25.48097,10.71951 36.82422,18.85743 30.76967,18.99469 61.83894,37.57773 91.08789,58.90625 30.17244,22.33438 61.19639,43.65632 89.57421,68.30078 26.69762,23.44505 54.42726,45.72829 82.32813,67.71094 52.07693,37.40553 103.65638,75.55492 157.16992,110.90432 33.17494,22.8295 66.31602,45.7112 98.62305,69.7617 7.99522,6.0544 -5.2045,-5.8117 -7.49024,-8.25 -22.97864,-21.8009 -46.11389,-43.4087 -69.7832,-64.457 -43.38716,-39.8493 -88.70715,-77.51618 -133.22266,-116.08598 -37.68719,-32.03683 -76.28268,-63.15574 -117.86523,-90.04687 -18.33836,-12.70904 -36.55116,-25.73925 -56.2832,-36.19922 -12.62009,-8.09038 4.10888,-17.04968 8.01953,-24.94336 16.44498,-20.86487 34.49327,-42.22899 59.16601,-53.49219 11.59395,-5.14553 26.42121,-3.90577 35.17969,5.97656 45.00723,37.54494 89.78908,75.42752 136.50586,110.84571 57.32704,41.95486 111.87747,88.46581 174.58203,122.46679 31.59388,16.60612 65.70233,30.63456 101.67183,33.01566 24.3198,1.0148 49.3843,-8.97281 64.0586,-28.84964 6.6905,-8.53272 12.8965,-18.12919 15.2246,-28.79688 -0.5663,-14.79397 -14.0782,-23.98989 -24.3281,-32.65039 -33.5149,-25.04445 -71.765,-42.71192 -109.58201,-60.16406 -55.84311,-24.9444 -112.9132,-47.10187 -168.11328,-73.49219 -41.17372,-18.8373 -83.05536,-36.06715 -123.99219,-55.42578 -58.14128,-27.27822 -114.49701,-58.69202 -167.26757,-95.35156 -21.17871,-15.42923 -42.00936,-31.93934 -58.96289,-51.98828 -4.69229,-10.71686 11.18008,-18.50141 6.85156,-30.54492 -2.38428,-54.71301 1.71458,-109.831 -6.51758,-164.20508 -3.39447,-9.71561 3.19994,-28.09978 -10.51172,-30.125 -1.85464,-0.29013 -3.76234,-0.50449 -5.48437,-1.31445 z M 290.64453,536.84375 c 28.38575,4.64969 58.03818,8.11408 83.26758,23.02734 9.87605,8.36636 17.06116,21.12976 30.73242,23.77735 9.81071,-0.3546 22.38929,4.4143 15.69336,16.49609 -3.95768,25.06054 -7.61041,52.16174 -25.20312,71.86328 -16.61419,18.14649 -35.28233,34.64062 -56.53125,47.17774 -11.57823,-0.9213 -19.99493,-10.28412 -30.61133,-14.05664 -25.4913,-14.44859 -50.03253,-31.96565 -68.07422,-55.33594 -8.94751,-12.04922 -12.84607,-27.86391 -8.64649,-42.48828 4.95546,-25.07671 16.91844,-50.95916 39.50782,-64.61914 6.08206,-3.37332 12.90139,-5.49976 19.86523,-5.8418 z m 605.28711,596.86525 0.01,0.016 z m 0.0254,0.037 0.11524,0.06 z m 0.14258,0.072 0.20117,0.1738 z m 0.37109,0.2851 c 30.40296,28.3611 61.17039,56.4065 91.37891,84.9297 -26.13318,-32.5749 -57.79493,-60.2851 -91.37891,-84.9297 z" />
    </g>
  </g>
</svg>
