<?xml version="1.0" encoding="UTF-8" standalone="no"?>
<svg
   xmlns:dc="http://purl.org/dc/elements/1.1/"
   xmlns:cc="http://creativecommons.org/ns#"
   xmlns:rdf="http://www.w3.org/1999/02/22-rdf-syntax-ns#"
   xmlns:svg="http://www.w3.org/2000/svg"
   xmlns="http://www.w3.org/2000/svg"
   xmlns:sodipodi="http://sodipodi.sourceforge.net/DTD/sodipodi-0.dtd"
   xmlns:inkscape="http://www.inkscape.org/namespaces/inkscape"
   width="210mm"
   height="297mm"
   viewBox="0 0 210 297"
   version="1.1"
   id="svg8"
   inkscape:version="1.0.2 (e86c870879, 2021-01-15)"
   sodipodi:docname="judastrainwreck01.svg">
  <defs
     id="defs2">
    <inkscape:path-effect
       effect="roughen"
       id="path-effect973"
       is_visible="true"
       lpeversion="1"
       method="size"
       max_segment_size="0.06"
       segments="1"
       displace_x="0.01;1"
       displace_y="0.01;1"
       global_randomize="0.3;2147483646"
       handles="along"
       shift_nodes="true"
       fixed_displacement="true"
       spray_tool_friendly="true" />
    <inkscape:path-effect
       effect="sketch"
       id="path-effect971"
       is_visible="true"
       lpeversion="1"
       nbiter_approxstrokes="1"
       strokelength="100"
       strokelength_rdm="0.3;1"
       strokeoverlap="0.3"
       strokeoverlap_rdm="0.3;1"
       ends_tolerance="0.1;1"
       parallel_offset="5;1"
       tremble_size="5;1"
       tremble_frequency="1"
       nbtangents="5"
       tgt_places_rdmness="1;1"
       tgtscale="10"
       tgtlength="100"
       tgtlength_rdm="0.3;1" />
  </defs>
  <sodipodi:namedview
     id="base"
     pagecolor="#ffffff"
     bordercolor="#666666"
     borderopacity="1.0"
     inkscape:pageopacity="0.0"
     inkscape:pageshadow="2"
     inkscape:zoom="0.49497475"
     inkscape:cx="496.41664"
     inkscape:cy="658.51376"
     inkscape:document-units="mm"
     inkscape:current-layer="layer1"
     inkscape:document-rotation="0"
     showgrid="false"
     inkscape:window-width="1366"
     inkscape:window-height="750"
     inkscape:window-x="0"
     inkscape:window-y="18"
     inkscape:window-maximized="0"
     inkscape:snap-global="false" />
  <metadata
     id="metadata5">
    <rdf:RDF>
      <cc:Work
         rdf:about="">
        <dc:format>image/svg+xml</dc:format>
        <dc:type
           rdf:resource="http://purl.org/dc/dcmitype/StillImage" />
        <dc:title></dc:title>
      </cc:Work>
    </rdf:RDF>
  </metadata>
  <g
     inkscape:label="Layer 1"
     inkscape:groupmode="layer"
     id="layer1">
    <path
       id="path73"
       style="fill:#000000;stroke-width:3.46028"
       transform="scale(0.26458333)"
       d="m 150.01562,390.70307 c -7.0554,20.9548 -4.53129,-40.20371 -2.5969,-106.90547 0.27467,-9.47085 0.3415,-89.52771 -1.01011,-88.17618 -2.55562,2.55585 -17.62113,105.40371 -10.05705,184.69298 2.72606,28.57544 0.97164,17.47223 -5.65429,45.41351 -4.79666,41.03981 -5.76531,64.59213 -1.53516,101.79548 l 2.55664,20.91015 c -14.55051,12.47261 -31.928784,24.46006 -49.175781,28.83399 -61.823364,14.57003 -67.948576,-11.83542 -13.453125,44.6914 8.551658,5.07231 47.716166,45.54316 52.865236,53.43555 17.50374,27.68832 100.16303,65.46102 100.49414,96.30859 0.21384,19.9216 22.09772,84.11676 22.28711,83.53322 -0.0599,-13.34438 8.21287,-12.19791 5.6289,-7.78516 -1.1762,1.90315 -0.48812,3.45899 1.52735,3.45899 17.38751,-17.71192 -21.05888,-49.80961 -12.31836,-61.29688 10.03513,3.0819 44.66388,26.92442 45.17929,20.60506 0,-4.29505 -14.51098,-18.30063 -31.17343,-26.78279 -14.36698,-7.31362 -22.68451,-15.5226 -20.04883,-19.78711 0.87078,-1.40905 -0.0506,-5.61366 -2.04687,-9.34375 -8.95269,-16.72838 10.35039,-11.70561 20.38671,5.30469 8.69919,14.74395 18.61827,17.22431 28.57227,12.70703 13.50452,-6.12856 9.2208,-4.53321 19.07198,-8.80107 15.56732,-6.74427 15.29063,-0.45938 33.89677,-3.52901 28.87001,-4.83229 50.84257,-22.14004 74.99023,-34.70313 33.79266,-17.58101 59.60439,-30.64523 93.61133,-40.03906 20.04476,-5.53702 24.8001,-2.80707 37.54382,-5.99531 15.0032,-3.75352 -2.96112,-4.96943 -10.65039,-5.35157 -29.2989,-1.45606 -46.31281,3.77947 -76.11608,17.63594 -8.56419,3.96938 -19.75368,9.40435 -24.86719,12.07618 -5.60669,-51.24373 -23.32838,-67.41043 -47.79883,-93.1875 -5.95576,-3.68092 -3.77335,-12.11133 3.13477,-12.11133 14.97668,0 59.15039,-30.31889 59.15039,-40.59766 0,-6.18187 44.50988,-1.79699 64.05022,7.10463 49.94097,10.40239 89.41004,68.80904 132.68102,80.34656 48.05267,8.44933 -32.12521,27.77768 -155.10275,78.39371 -25.44,13.00184 -78.23558,24.66683 -113.82435,50.27725 -63.91791,45.99667 -76.34242,43.08276 12.51953,10.33989 48.93658,-18.03161 72.05355,-32.34813 93.26422,-42.53039 11.0262,-5.26488 7.46301,-3.09991 8.67075,-3.70172 -26.25743,85.77 -31.63055,165.21105 -132.00864,237.53571 -29.63127,-21.84572 -131.39944,-114.87863 -159.38868,-115.67188 -10.39347,-34.87348 -1.23147,-84.03319 -0.46565,-105.49403 1.11737,-28.3699 -9.22923,-3.88612 -11.88864,12.53857 -1.69475,10.46736 -1.394,29.49601 -1.8,41.05116 l -0.73828,21.00977 -26.29102,12.50195 c -36.8961,13.88523 -65.776623,24.87931 -98.945033,37.98134 -13.526127,5.30676 -36.42201,22.23188 -35.392857,22.06166 52.521953,-8.6868 85.03671,-35.17764 116.69727,-45.6875 11.49991,-3.81745 27.87216,-13.73219 37.06835,-16.69726 -7.63073,30.37825 6.73921,62.29445 8.9668,93.53711 3.3861,8.67968 78.38904,-22.2894 170.18085,81.35192 54.20883,-69.68171 116.83394,-82.14822 202.84845,-106.20514 4.4773,-1.30979 6.16414,2.55274 8.65039,19.80859 1.72467,11.97018 5.04582,22.08132 7.52148,22.89453 2.43844,0.80092 4.05356,0.14093 3.58985,-1.46484 -0.46379,-1.60577 1.16625,-6.54631 3.62109,-10.97852 2.96349,-5.35077 4.86312,-26.85941 5.65625,-64.01367 0.65696,-30.77609 1.31549,-57.05689 1.46289,-58.40039 31.12321,20.23423 66.68058,55.32867 109.56753,62.73521 13.60838,2.35016 35.2961,14.2858 47.45284,20.72433 12.15674,6.43858 21.31654,6.77781 22.10268,5.99163 0.78614,-0.78614 -10.71652,-7.7213 -25.5625,-15.41211 -50.00659,-25.90543 -63.38921,-34.04434 -60.75586,-36.94531 1.44178,-1.58843 0.70683,-1.78808 -1.63281,-0.44336 -3.84616,2.2106 -17.37854,-2.72083 -21.69922,-7.9082 -0.95157,-1.14247 -11.8502,-7.15879 -24.22071,-13.37109 -36.16231,-18.16037 -42.46509,-22.89641 -47.32031,-35.55469 l -4.59375,-11.97656 1.13477,11.24609 c 0.62487,6.1852 0.58901,11.24609 -0.0801,11.24609 -2.99667,0 -7.69644,-18.26865 -8.45117,-32.84961 -1.18923,-22.97397 -6.31595,-24.81791 -11.28516,-4.05859 -1.5391,6.42932 -1.10779,9.04047 1.25196,7.58203 2.09909,-1.29733 3.57893,1.10555 3.54492,5.76563 -0.0426,6.42799 -0.70763,6.97454 -3.40625,2.79883 -3.76305,-5.82331 -4.87072,5.5861 -3.58594,36.97265 5.93359,41.12773 -69.96895,35.13684 -73.92803,13.05078 3.42794,-86.88913 12.94612,-104.67555 76.18971,-122.03515 107.07267,-37.40313 212.22415,-65.18672 101.66601,-88.89844 -21.90539,-13.72089 -38.39812,-18.25137 -54.88867,-27.94922 -43.61723,-25.65065 -43.01583,-18.24827 -112.42461,-63.72736 -98.93508,-43.76785 -210.915,59.12927 -15.06562,-20.80975 1.16935,-4.47179 0.0922,-6.89453 -3.06446,-6.89453 -6.9267,0 -6.0359,-6.12117 1.18946,-8.17383 4.79229,-1.36141 11.51903,-1.97578 18.84179,-2.01758 37.69666,7.43644 103.37152,13.34437 127.63086,50.95117 8.32006,14.96416 10.60537,19.10565 17.74024,39.39649 l 3.81445,10.94141 5.52149,-13.66016 c 22.22852,-26.75329 54.21978,-154.55548 29.98242,-120.01172 -48.16683,8.91484 -80.37293,-26.94356 -93.96289,-47.86523 -19.98188,-71.18622 34.03502,-163.24442 51.84179,-207.74805 -3.51628,-0.70908 -1.54353,-2.62089 5.38672,-5.21875 9.43937,-3.53852 11.19874,-3.30176 12.875,1.73047 1.06791,3.20577 5.77162,15.73925 10.45313,27.85156 l 8.51172,22.02148 c 19.34921,50.06094 22.75891,130.8001 9.9414,189.9629 -6.49689,29.98825 82.08368,-49.27615 -20.84179,-239.19727 -3.61066,-10.4673 -6.71759,-17.47345 -6.9043,-15.57031 -0.18645,1.90314 -3.49336,-2.5206 -7.34961,-9.83008 -6.00306,-11.37877 -8.24631,-12.98033 -15.59961,-11.13477 -84.16895,24.63148 -135.03884,96.67854 -207.07227,59.4336 -47.93801,-10.20113 -133.25009,6.18006 -143.84493,8.06872 -50.97867,-64.00082 -82.69971,-84.49674 -120.45389,-83.19958 38.34896,224.84824 2.10366,195.8909 -12.64448,239.09144 z m 161.35519,45.81088 c 170.29105,5.25236 197.31388,48.44257 193.61747,50.81027 -24.94582,9.63966 -84.409,-21.44064 -116.82031,1.4375 -1.25291,1.25287 -0.26977,2.2793 2.18359,2.2793 7.99484,0 -3.09329,7.972 -12.93554,11.46093 -43.031,15.25383 -32.4893,19.34838 -49.10741,52.32617 -6.15391,12.21211 -0.76417,27.90404 10.84766,40.05469 48.44871,30.10972 66.48226,60.12125 67.66602,61.65821 18.93796,26.82693 -2.59733,67.61967 -30.15625,80.42578 -36.97099,16.05415 -77.21268,16.82663 -97.75595,-8.17383 -15.40554,-17.19417 -13.25863,-32.79426 6.20898,-45.13086 13.49326,-4.11586 20.26967,-28.94781 28.28516,-29.93555 2.31908,-0.0292 3.32367,-2.38081 2.23242,-5.22461 -13.65479,-4.32482 -67.71111,-10.53011 -79.98827,-0.33593 -3.56568,5.76941 -1.9537,16.73968 0.75976,19.39062 8.19273,8.00399 21.66457,27.52406 22.60547,43.98047 -16.25811,25.73874 -37.16429,21.15111 -58.54297,1.67969 -34.98341,-31.86243 38.52384,-91.56148 32.90235,-100.17969 -0.87879,-1.34727 -5.79273,1.94594 -10.89844,6.22656 -21.04474,17.64386 -41.5187,32.06855 -43.24414,69.87695 -0.72156,15.811 -2.35292,16.25028 -15.5918,2.15626 -5.58974,-5.9508 -17.69933,-16.84946 -26.91015,-24.22071 C 123.5762,656.02984 113.63051,644.76142 102.61713,635.60938 66.435733,605.63697 66.380608,607.5448 74.542909,605.22852 116.21166,602.85866 136.65507,554.5247 155.57611,544.5957 c 13.13945,-6.74392 23.85156,-9.32488 23.85156,-5.74804 9.10521,7.53777 25.3438,28.10206 50.93946,33.15039 7.11671,1.23904 9.06359,5.15057 5,10.04687 -3.39593,4.09172 -3.07702,18.37617 0.49023,21.94336 0.70544,0.70541 4.25816,-4.5667 7.89453,-11.71484 15.27822,-19.92134 11.50404,-34.1074 17.01953,-56.85352 3.07187,-11.49724 -9.5875,-14.11125 -10.4082,-27.0625 0,-7.1159 -11.72217,-12.38147 -61.76032,-21.40067 -22.95268,-4.13703 -25.47856,-5.3231 -40.28125,-18.91602 -4.66318,-4.28209 -10.01874,-7.78515 -11.90234,-7.78515 -2.16628,0 -2.06364,-2.54398 0.2793,-6.92188 9.81937,-11.32074 19.12409,-0.0946 31.71874,-1.72461 63.60629,-9.4582 110.13325,-16.47037 142.95346,-15.09514 z m -164.16824,46.4135 c 1.54046,0.007 2.24698,0.51747 1.66992,1.45117 -0.92335,1.49398 2.77076,3.60573 8.20899,4.69336 5.43823,1.08771 10.81319,4.39139 11.94531,7.3418 1.13196,2.95038 0.93988,5.18399 -0.42773,4.96289 -2.39002,-0.38585 -7.27809,-1.39791 -24.11329,-4.99023 -9.6517,-2.05954 -10.21099,-10.46852 -0.85937,-12.91407 1.42835,-0.3735 2.6519,-0.5494 3.57617,-0.54492 z m -4.09124,25.53935 c 5.36238,-0.0128 13.82543,1.61187 26.96289,4.70312 40.99125,5.30816 -12.00564,12.09637 -28.70703,12.47266 -5.07511,0 -6.92188,-2.30653 -6.92188,-8.65039 0,-5.7871 1.77153,-8.50889 8.66602,-8.52539 z m 54.86914,21.16797 c 2.75988,0.004 6.49259,0.13103 11.36914,0.33007 27.96971,1.39761 30.37445,0.72487 28.9043,23.25196 0,7.67232 -1.16834,13.77976 -2.59571,13.57226 -45.80321,-16.8254 -48.2976,-30.86774 -37.67773,-37.15429 z m 230.16797,18.16015 c 9.95329,-0.15988 9.44904,5.5408 -3.9043,13.41992 -16.1301,9.51754 -29.6949,24.07165 -48.41954,23.68243 -15.05031,-0.31284 -15.69376,-34.41711 -4.34999,-35.03204 3.74397,0 5.28969,4.09727 5.54492,14.70508 l 0.35352,14.70703 2.82812,-12.02539 c 1.55584,-6.61402 2.14285,-13.13686 1.30274,-14.49609 10.60415,-4.64807 33.75417,-4.7082 46.64453,-4.96094 z m -84.36914,2.31641 c 5.96454,2.70449 1.34924,14.914 0.23632,18.78515 l -4.05664,13.8418 L 337.5,570.80273 c -1.9173,-9.30199 2.32764,-20.72106 6.2793,-20.6914 z m -58.61133,192.15039 c 14.762,8.26377 14.89351,10.23373 -0.0156,15.625 -15.21213,6.85327 -9.16503,11.82062 -23.70713,-3.14649 -15.55286,-15.92757 -15.82314,-18.82663 -2.23633,-23.95507 12.17689,-6.66269 16.93895,6.21294 25.95906,11.47656 z"
       sodipodi:nodetypes="cscsccccccscccccsssssscsssscccsscccsscccccsscccssccccssssscsssssssssccssssccccccsccssccccccccsscssccsccccccccsssccccccccscsssssccccccssccccssccccssccsscsccssccccccsscccccccccccccccc" />
    <g
       id="g951"
       transform="matrix(0.56518913,0,0,0.56518913,232.64161,353.66075)"
       style="opacity:1">
      <path
         id="path905"
         style="fill:#ffffff;stroke:none;stroke-width:0.26458300000000001px;stroke-linecap:butt;stroke-linejoin:miter;stroke-opacity:1"
         d="m -199.69789,-342.11069 c -7.88603,-9.61735 -15.77207,-19.2347 -23.6581,-28.85205 -20.98393,-6.77482 -41.96787,-13.54965 -62.9518,-20.32447 -13.40259,15.54859 -26.80519,31.09719 -40.20778,46.64578 7.75804,8.17895 15.50363,16.37112 23.26945,24.54181 8.66649,7.28164 17.33297,14.56327 25.99946,21.84491 13.98619,5.83802 27.97238,11.67605 41.95857,17.51407 11.8634,-20.45668 23.7268,-40.91337 35.5902,-61.37005 z" />
      <path
         id="path925"
         style="fill:#ffffff;stroke:none;stroke-width:0.26458300000000001px;stroke-linecap:butt;stroke-linejoin:miter;stroke-opacity:1"
         d="m -228.7229,-362.93912 c -0.62928,0.69766 -0.71182,1.76897 -1.01968,2.64564 -1.93761,7.71147 -3.32574,15.54781 -4.82973,23.35177 -3.17322,17.03887 -6.13397,34.11658 -9.0211,51.20601 28.1437,21.34891 56.29647,42.68615 84.43451,64.04234 25.79303,20.51032 51.5774,41.03177 77.375842,61.53512 27.718483,21.06686 55.436971,42.13375 83.1554546,63.2006 31.4441054,-28.53019 62.8881874,-57.06033 94.3323124,-85.59052 -75.73199,-37.76542 -151.463975,-75.53084 -227.195959,-113.29626 -24.72074,-17.7761 -49.48419,-35.49763 -74.56674,-52.76115 -6.62513,-4.48271 -13.18586,-9.08144 -20.07277,-13.15893 -0.8372,-0.42753 -1.64983,-1.02151 -2.59214,-1.17462 z" />
      <path
         id="rect75"
         style="color:#000000;font-style:normal;font-variant:normal;font-weight:normal;font-stretch:normal;font-size:medium;line-height:normal;font-family:sans-serif;font-variant-ligatures:normal;font-variant-position:normal;font-variant-caps:normal;font-variant-numeric:normal;font-variant-alternates:normal;font-variant-east-asian:normal;font-feature-settings:normal;font-variation-settings:normal;text-indent:0;text-align:start;text-decoration:none;text-decoration-line:none;text-decoration-style:solid;text-decoration-color:#000000;letter-spacing:normal;word-spacing:normal;text-transform:none;writing-mode:lr-tb;direction:ltr;text-orientation:mixed;dominant-baseline:auto;baseline-shift:baseline;text-anchor:start;white-space:normal;shape-padding:0;shape-margin:0;inline-size:0;clip-rule:nonzero;display:inline;overflow:visible;visibility:visible;opacity:0.988;isolation:auto;mix-blend-mode:normal;color-interpolation:sRGB;color-interpolation-filters:linearRGB;solid-color:#000000;solid-opacity:1;vector-effect:none;fill:#000000;fill-opacity:1;fill-rule:evenodd;stroke:none;stroke-width:1.17715;stroke-linecap:butt;stroke-linejoin:miter;stroke-miterlimit:4;stroke-dasharray:none;stroke-dashoffset:0;stroke-opacity:1;color-rendering:auto;image-rendering:auto;shape-rendering:auto;text-rendering:auto;enable-background:accumulate;stop-color:#000000;stop-opacity:1"
         d="m -214.64784,-460.36918 c 0.72105,0.60266 2.62909,0.31147 0.76634,0.0311 z m 5.20432,0.8805 c -10.3133,7.5749 -14.2709,21.30494 -12.78672,33.62135 0.49191,13.07198 -1.48869,26.18295 -5.36104,38.65961 -5.04285,3.18352 -8.99919,-4.48649 -13.87671,-5.39895 -11.54696,-6.19884 -22.49956,-13.43733 -34.09234,-19.54275 -13.05354,-6.70679 -27.95424,-11.96735 -42.79589,-9.39677 -8.64169,1.47527 -15.71083,8.40152 -17.78096,16.85707 -4.12148,14.86454 -3.73748,30.55908 -1.12067,45.64808 1.42134,7.07869 1.91618,14.29798 3.24796,21.38818 3.09396,4.57409 8.82592,6.01061 12.93733,9.42749 22.55701,14.68712 43.62688,31.50435 66.00393,46.45715 5.4155,3.43965 11.92773,5.01769 17.23787,8.82731 14.40428,8.89203 28.94907,17.59127 42.64145,27.57584 14.1247,10.45545 28.64792,20.43716 41.9325,31.97403 12.49802,10.97539 25.47933,21.40681 38.54063,31.6976 24.378899,17.51074 48.524758,35.36954 73.57618,51.91771 15.530265,10.68723 31.04484,21.39926 46.1688039,32.658077 C 8.7716281,-94.28341 2.5920278,-99.8381 1.522,-100.97953 c -10.7570481,-10.20569 -21.587239,-20.3211 -32.667611,-30.17453 -20.310935,-18.65475 -41.526201,-36.28798 -62.365351,-54.34375 -17.642598,-14.99748 -35.710358,-29.56529 -55.176498,-42.1539 -8.58478,-5.94951 -17.11089,-12.04904 -26.3481,-16.94569 -5.90787,-3.78737 1.92329,-7.98154 3.75399,-11.67683 7.69843,-9.76752 16.14717,-19.76864 27.69728,-25.04131 5.4275,-2.40879 12.36867,-1.82866 16.4688,2.79758 21.06934,17.576 42.033557,35.30988 63.903195,51.89028 26.836645,19.64043 52.373675,41.41356 81.727713,57.33052 14.790117,7.77386 30.756915,14.34086 47.595426,15.45553 11.384878,0.47508 23.118038,-4.20003 29.987592,-13.50502 3.132012,-3.99444 6.037184,-8.48657 7.127064,-13.48046 -0.26514,-6.92554 -6.590021,-11.23053 -11.388308,-15.28479 -15.68941,-11.72412 -33.595559,-19.99525 -51.298943,-28.16516 -26.141969,-11.67728 -52.85809,-22.04947 -78.699033,-34.40363 -19.274753,-8.81835 -38.881072,-16.88474 -58.044927,-25.94714 -27.217819,-12.76982 -53.599869,-27.475 -78.303479,-44.63652 -9.91444,-7.22292 -19.66581,-14.95178 -27.60231,-24.33734 -2.19661,-5.01691 5.23403,-8.66132 3.20771,-14.29928 -1.11616,-25.61293 0.80229,-51.41529 -3.05145,-76.86956 -1.58906,-4.54819 1.49812,-13.15488 -4.92075,-14.10295 -0.86822,-0.13582 -1.76139,-0.23603 -2.56753,-0.6152 z m 217.240851,364.475802 0.00468,0.0075 z m 0.01198,0.0178 0.05382,0.02766 z m 0.066746,0.03371 0.094407,0.08109 z m 0.1737192,0.133465 C 22.282384,-81.55117 36.685426,-68.422576 50.827011,-55.06994 38.593225,-70.319307 23.771523,-83.290988 8.0497762,-94.827903 Z M -275.55716,-374.42483 c 13.28829,2.17667 27.16926,3.79862 38.97996,10.78 4.6233,3.91656 7.98676,9.8912 14.38672,11.13062 4.59271,-0.166 10.48164,2.06623 7.34706,7.72211 -1.85272,11.73165 -3.56282,24.41897 -11.79854,33.6419 -7.77764,8.49496 -16.5167,16.21633 -26.46401,22.08536 -5.42014,-0.43129 -9.36024,-4.81467 -14.33012,-6.58071 -11.9333,-6.76385 -23.42192,-14.96391 -31.86782,-25.9043 -4.18862,-5.64063 -6.01332,-13.04422 -4.04736,-19.89036 2.31981,-11.73922 7.92001,-23.85545 18.49483,-30.25013 2.84721,-1.57916 6.03928,-2.57437 9.29928,-2.73449 z" />
    </g>
  </g>
</svg>
