<?xml version="1.0" encoding="UTF-8" standalone="no"?>
<svg
   xmlns:dc="http://purl.org/dc/elements/1.1/"
   xmlns:cc="http://creativecommons.org/ns#"
   xmlns:rdf="http://www.w3.org/1999/02/22-rdf-syntax-ns#"
   xmlns:svg="http://www.w3.org/2000/svg"
   xmlns="http://www.w3.org/2000/svg"
   xmlns:sodipodi="http://sodipodi.sourceforge.net/DTD/sodipodi-0.dtd"
   xmlns:inkscape="http://www.inkscape.org/namespaces/inkscape"
   width="210mm"
   height="297mm"
   viewBox="0 0 210 297"
   version="1.1"
   id="svg8"
   inkscape:version="1.0.2 (e86c870879, 2021-01-15)"
   sodipodi:docname="judastrainwreck01.svg">
  <defs
     id="defs2" />
  <sodipodi:namedview
     id="base"
     pagecolor="#ffffff"
     bordercolor="#666666"
     borderopacity="1.0"
     inkscape:pageopacity="0.0"
     inkscape:pageshadow="2"
     inkscape:zoom="0.175"
     inkscape:cx="-897.72241"
     inkscape:cy="-1455.9017"
     inkscape:document-units="mm"
     inkscape:current-layer="layer1"
     inkscape:document-rotation="0"
     showgrid="false"
     inkscape:window-width="1366"
     inkscape:window-height="750"
     inkscape:window-x="0"
     inkscape:window-y="18"
     inkscape:window-maximized="0"
     inkscape:snap-global="false" />
  <metadata
     id="metadata5">
    <rdf:RDF>
      <cc:Work
         rdf:about="">
        <dc:format>image/svg+xml</dc:format>
        <dc:type
           rdf:resource="http://purl.org/dc/dcmitype/StillImage" />
        <dc:title></dc:title>
      </cc:Work>
    </rdf:RDF>
  </metadata>
  <g
     inkscape:label="Layer 1"
     inkscape:groupmode="layer"
     id="layer1">
    <path
       style="fill:#000000;stroke-width:1.61987"
       d="m -246.53181,-150.45728 c -0.27075,-5.46755 -18.59421,-21.21361 -31.27774,-26.8782 -2.45004,-1.0942 -4.50586,-2.78364 -4.56848,-3.75429 -0.0626,-0.97064 -0.74032,-0.30693 -1.50601,1.47492 -1.13489,2.64104 -1.4132,2.73353 -1.506,0.50057 -0.0627,-1.50654 -0.95764,-3.26065 -1.98889,-3.898 -1.29628,-0.80115 -1.58015,-0.0313 -0.9197,2.49442 1.10689,4.23274 -0.12942,3.37772 -2.75168,-1.90307 -1.00324,-2.02036 -3.62819,-3.92911 -5.83319,-4.24166 -2.20501,-0.31254 -4.42484,-1.23705 -4.93295,-2.05443 -5.86276,-9.43142 -20.94435,-3.32981 -20.94435,8.47355 0,6.73324 -0.59039,9.61106 -1.8833,9.18008 -2.35833,-0.78611 -3.20168,-5.79116 -1.18573,-7.0371 0.8261,-0.51057 0.96296,-1.78909 0.30415,-2.84119 -0.65883,-1.05209 -1.37964,-4.74789 -1.60179,-8.21287 -0.45965,-7.16915 -2.03076,-9.9975 -2.27426,-4.09417 l -0.1615,3.91468 -1.1665,-4.04967 c -0.68523,-2.37887 -0.45153,-4.54067 0.56644,-5.23976 1.16961,-0.80322 1.08824,-1.19815 -0.2503,-1.2149 -1.09079,-0.0129 -2.96664,1.97979 -4.1686,4.42983 -2.32408,4.73743 -1.95341,10.12416 0.69668,10.12416 0.87817,0 1.22126,-0.60745 0.76242,-1.34988 -0.45886,-0.74245 0.12699,-1.3499 1.302,-1.3499 1.19636,0 1.82566,1.18785 1.43029,2.69978 -0.88999,3.40327 -4.87477,3.52003 -6.15631,0.18039 -0.81856,-2.13311 -1.18422,-2.16758 -2.3849,-0.22486 -0.94973,1.5367 -1.3105,0.38608 -1.09234,-3.48379 0.17916,-3.17808 1.239,-6.87873 2.35519,-8.22365 1.11618,-1.34493 2.28985,-6.3581 2.60817,-11.14038 0.31831,-4.78229 0.66478,-9.97072 0.76993,-11.52984 0.10513,-1.55912 0.87184,-2.83477 1.70377,-2.83477 0.83193,0 1.18553,1.80364 0.7858,4.00808 -0.53749,2.96408 -0.13089,3.77942 1.5609,3.13022 4.38079,-1.68107 3.3153,-18.9119 -1.08457,-17.53919 -1.97157,0.61509 -4.03063,1.81132 -4.57569,2.65825 -0.54509,0.84694 -1.6385,1.43376 -2.4298,1.30405 -0.79132,-0.12975 -5.44793,1.60485 -10.34802,3.8546 -14.19226,6.51599 -53.94016,22.07771 -54.62976,21.38812 -0.34531,-0.34531 4.55289,-2.66044 10.8849,-5.14471 6.33201,-2.48428 11.88307,-5.11607 12.33567,-5.84841 0.45263,-0.73236 1.90373,-1.33155 3.2247,-1.33155 2.36729,0 12.28676,-4.29607 36.44285,-15.78325 l 12.30803,-5.85296 0.34577,-9.83517 c 0.19018,-5.40935 0.99492,-13.84434 1.7883,-18.74443 1.24495,-7.68893 1.35951,-6.80143 0.83642,6.47946 -0.33361,8.47027 -0.0523,13.56807 0.62587,11.33905 0.67757,-2.22731 2.07859,-3.86742 3.11339,-3.64469 1.03479,0.22273 1.88143,-0.32398 1.88143,-1.2149 0,-0.89093 -0.72894,-1.61987 -1.61987,-1.61987 -0.89092,0 -1.5472,-2.00458 -1.45839,-4.45463 l 0.1615,-4.45462 1.29692,4.04966 1.29693,4.04966 0.1615,-4.55023 c 0.0888,-2.50263 0.77879,-4.16871 1.53329,-3.7024 0.7545,0.46631 0.79794,4.33627 0.0965,8.5999 -0.70139,4.26363 -1.3187,11.92058 -1.37182,17.01545 -0.0732,7.02699 -0.61799,9.06329 -2.25637,8.43457 -1.2248,-0.46999 -2.15983,0.2533 -2.15983,1.67071 0,1.37473 0.60745,2.4995 1.3499,2.4995 0.74243,0 1.34988,1.14547 1.34988,2.54551 0,4.28964 4.47947,7.33018 11.19362,7.59793 3.51794,0.14028 6.10608,0.72456 5.75144,1.2984 -0.35465,0.57384 1.10875,1.84234 3.25203,2.81887 3.42044,1.55846 3.98137,1.33987 4.5882,-1.78796 0.48101,-2.47928 0.75847,-1.9617 0.91195,1.70107 0.12133,2.89551 1.02752,5.26456 2.01377,5.26456 0.98624,0 1.3736,-1.09341 0.86077,-2.42979 -0.51282,-1.33639 -0.22633,-2.4298 0.63662,-2.4298 0.86297,0 1.66015,0.72894 1.77152,1.61986 0.11128,0.89093 0.2936,2.48778 0.40496,3.54856 0.11129,1.06077 3.84718,3.79429 8.30181,6.07449 8.73869,4.47308 30.71601,25.11225 29.25596,27.47465 -0.84492,1.36712 2.5458,3.39893 5.67222,3.39893 0.80078,0 4.17724,-3.64504 7.50325,-8.10009 3.326,-4.45505 7.34929,-8.51334 8.94066,-9.01842 1.59136,-0.50507 2.94386,-1.78037 3.00556,-2.834 0.13283,-2.26966 15.84525,-15.29809 30.18976,-25.03286 5.60708,-3.80521 10.1947,-7.71012 10.1947,-8.6776 0,-0.96748 1.08597,-1.34233 2.41329,-0.833 2.48513,0.95365 5.48285,-6.18217 3.45078,-8.21425 -0.55249,-0.55246 -1.00449,0.5749 -1.00449,2.50523 0,2.14368 -1.01317,3.50971 -2.60311,3.50971 -1.70818,0 -2.26507,-0.88088 -1.61987,-2.56228 0.5408,-1.40925 1.08669,-9.24535 1.21312,-17.41355 0.166,-10.72524 0.52097,-13.05112 1.27765,-8.3718 l 1.04781,6.47946 1.14371,-4.8596 c 2.7181,-11.54912 4.68178,-31.87405 2.99845,-31.03532 -0.56538,0.28171 -5.2512,2.52876 -10.41293,4.99343 -8.20774,3.9191 -9.13191,4.81751 -7.36752,7.16223 1.70063,2.25999 1.66086,2.36303 -0.25323,0.65618 -2.71286,-2.41914 -5.46749,-2.6944 -4.05253,-0.40497 0.55062,0.89093 -0.11777,1.61987 -1.48511,1.61987 -1.36744,0 -4.82142,1.4201 -7.67552,3.15577 -2.85409,1.73569 -5.91134,2.70952 -6.7939,2.16408 -0.95492,-0.59019 -1.17274,0.13363 -0.53795,1.78794 0.59595,1.55303 0.40299,2.3695 -0.43728,1.85019 -2.0779,-1.28423 -11.69354,4.77557 -10.19717,6.42628 0.665,0.73359 0.18748,0.74119 -1.06114,0.0168 -1.86629,-1.08259 -1.74323,-1.70225 0.69168,-3.4827 1.62905,-1.19118 2.63189,-2.4958 2.22855,-2.89917 -1.03537,-1.03536 -24.08356,12.55425 -24.11346,14.21771 -0.013,0.75284 3.25564,-0.55353 7.2648,-2.90305 4.00917,-2.34953 7.2894,-3.48933 7.2894,-2.53288 0,0.95645 -1.27565,2.20964 -2.83477,2.78489 -1.55912,0.57524 -3.19923,1.46354 -3.64469,1.974 -3.12937,3.58588 -10.97838,6.32236 -12.9361,4.51004 -1.69901,-1.57284 -1.92161,-1.39971 -1.122,0.87267 1.09218,3.10382 -0.10561,3.56098 -3.5743,1.3642 -1.77953,-1.12699 -1.48293,-1.82806 1.43375,-3.38903 2.91668,-1.56097 3.21327,-2.26204 1.43374,-3.38903 -1.61635,-1.02366 -1.67755,-1.4279 -0.21884,-1.44577 1.11365,-0.013 2.02483,-0.79676 2.02483,-1.74026 0,-0.94351 -0.91118,-1.16806 -2.02483,-0.49899 -1.30613,0.78471 -1.21315,0.21646 0.26198,-1.60094 1.75465,-2.16178 2.58124,-2.34102 3.55204,-0.77023 0.69586,1.12593 0.39575,3.10134 -0.66695,4.38975 -2.58804,3.13776 -0.77339,2.31877 13.92269,-6.28359 9.32402,-5.45782 12.45803,-8.1577 12.47291,-10.74516 0.0189,-3.30133 4.65852,-6.11105 9.22091,-5.58419 2.87712,0.33223 12.42172,-5.89061 10.18073,-6.63759 -1.06883,-0.35629 7.80063,-5.62767 19.70991,-11.71422 11.9093,-6.08653 22.34575,-11.7073 23.19213,-12.4906 0.84637,-0.7833 2.26134,-1.42419 3.14436,-1.42419 0.88302,0 0.19053,1.14747 -1.53887,2.54993 -1.7294,1.40245 -2.12458,2.02125 -0.87818,1.37509 1.24641,-0.64615 4.52664,-1.3708 7.2894,-1.61033 9.94001,-0.86178 17.04749,-5.05895 16.22719,-9.58262 -0.87923,-4.84869 1.80714,-5.52373 3.05113,-0.76671 0.71227,2.72369 1.67065,3.10348 5.45348,2.16109 4.61874,-1.1506 3.59994,2.22026 -1.89009,6.25372 -1.07991,0.79339 -1.07991,1.19008 0,1.19008 2.16439,0 5.98114,-2.48158 5.80788,-3.77618 -0.34154,-2.55208 0.0763,-2.65593 3.50635,-0.87137 2.00458,1.04295 3.14216,1.35576 2.52798,0.69511 -1.55833,-1.67612 5.43644,-8.33752 10.16316,-9.67875 2.60988,-0.74057 3.19312,-0.61061 1.75182,0.39035 -1.74,1.20842 -1.63537,1.70212 0.53745,2.53592 8.94148,3.43116 7.30033,-2.44218 -2.42646,-8.68384 -4.45463,-2.85853 -8.13614,-6.39698 -8.18116,-7.86323 -0.20746,-6.75869 -24.10651,-18.84864 -37.49004,-18.9653 -6.85519,-0.0598 -12.09699,0.48518 -11.64843,1.21096 0.44855,0.72577 -1.96098,1.40271 -5.35453,1.50429 -8.06023,0.24128 -15.03872,1.07295 -17.75766,2.11631 -1.21827,0.46755 -2.18129,-0.21319 -2.18129,-1.54186 0,-1.30843 0.91117,-2.44189 2.02483,-2.51879 1.11365,-0.0769 5.30505,-0.35226 9.31422,-0.61189 9.23835,-0.59826 21.05825,-3.787 21.05825,-5.68103 0,-1.45395 -1.57806,-2.06634 -10.47293,-4.06422 -2.64187,-0.59339 -7.75232,-2.42227 -11.35655,-4.06419 -9.14745,-4.16714 -20.28702,-5.71764 -20.28702,-2.82372 0,4.81184 -20.67971,19.00474 -27.69078,19.00474 -3.2339,0 -4.25488,3.9464 -1.46679,5.66953 0.89093,0.55062 1.61987,0.15113 1.61987,-0.88764 0,-1.03882 1.07006,-1.47816 2.37791,-0.97627 1.30786,0.50186 2.74303,0.32173 3.18929,-0.4003 0.44624,-0.72204 5.74451,-1.44852 11.77395,-1.61439 6.02943,-0.1659 12.61258,-0.71573 14.62923,-1.22187 2.01666,-0.50614 3.66665,-0.19629 3.66665,0.68856 0,1.54768 -10.82363,3.44529 -25.73619,4.51208 -7.71262,0.55173 -11.48439,2.77961 -8.17183,4.82688 1.29651,0.80128 1.60052,0.57842 0.85547,-0.6271 -0.6357,-1.02858 -0.38386,-1.87015 0.55964,-1.87015 0.94351,0 1.71547,1.01632 1.71547,2.25848 0,1.24218 2.09091,4.49682 4.64647,7.23255 2.55555,2.73572 4.25641,5.3641 3.77968,5.84084 -0.47672,0.47673 -0.0164,0.86678 1.02306,0.86678 1.03942,0 1.7425,0.5467 1.56241,1.2149 -0.1801,0.66819 1.32798,4.38225 3.35129,8.25347 3.20953,6.14086 3.386,7.38046 1.38359,9.71919 -4.77366,5.57541 -4.70244,8.34308 0.14951,5.80798 2.39379,-1.25075 7.63258,-3.79446 11.64175,-5.65267 4.00916,-1.85821 9.47621,-4.54905 12.14899,-5.97963 5.5251,-2.95726 28.79059,-4.38789 33.17744,-2.04013 1.80532,0.96617 3.42517,0.83221 4.64122,-0.38384 1.41079,-1.41079 1.86803,-1.17058 1.86803,0.98135 0,1.56715 -0.68548,2.42571 -1.52331,1.90791 -0.83781,-0.51779 -2.9477,0.58746 -4.68863,2.45613 -2.32954,2.50049 -3.4904,2.8716 -4.39651,1.40551 -0.74583,-1.20678 -0.56086,-1.57781 0.46924,-0.94117 0.93522,0.578 2.11838,-0.0384 2.62924,-1.36958 1.41223,-3.68021 -10.09856,-3.12916 -21.2831,1.01886 -5.10056,1.89166 -11.46058,3.59388 -14.13335,3.78271 -5.96261,0.42126 -15.46815,5.21136 -29.68949,14.96132 -5.94392,4.07506 -12.81172,8.11158 -15.26177,8.97003 -2.45005,0.85845 -4.45463,2.13731 -4.45463,2.84192 0,1.13452 -5.41509,2.69458 -15.38872,4.43344 -6.10925,1.06513 -11.15857,0.43087 -12.61601,-1.58471 -1.01455,-1.40309 -1.1859,-1.16723 -0.563,0.77494 0.49251,1.53557 -0.003,3.35792 -1.10097,4.04967 -1.09804,0.69176 -3.27138,3.26232 -4.82966,5.71237 -1.55828,2.45005 -3.59826,4.45463 -4.53331,4.45463 -0.93505,0 -0.13704,-1.98715 1.77345,-4.41588 3.8434,-4.88612 1.67207,-7.27406 -2.92716,-3.21916 -3.83839,3.38409 -9.30294,0.95391 -13.37531,-5.94823 -4.69832,-7.96307 -13.73458,-10.31467 -9.54352,-2.48359 0.93454,1.74618 1.36561,3.71458 0.95796,4.37419 -1.23384,1.99638 2.65972,5.83914 9.38537,9.26287 7.80025,3.97078 13.88412,8.63604 13.88412,10.64669 0,2.91297 -5.16784,1.44586 -12.37593,-3.51344 -4.00957,-2.75866 -7.63885,-4.66702 -8.06505,-4.2408 -1.34637,1.34635 1.27545,9.25654 3.06804,9.25654 0.94284,0 1.22669,0.48755 0.63079,1.08345 -0.59588,0.59589 0.12457,2.41824 1.60096,4.04966 1.47641,1.63141 1.89335,2.96621 0.92653,2.96621 -1.21227,0 -1.29019,1.63059 -0.25104,5.25387 1.84956,6.44908 1.86203,6.08519 -0.20869,6.08519 -0.94351,0 -1.26495,-0.72894 -0.71433,-1.61987 0.55063,-0.89092 0.22918,-1.61986 -0.71433,-1.61986 -0.9435,0 -1.80789,2.36905 -1.92086,5.26456 -0.11291,2.89551 -0.81413,0.52646 -1.5581,-5.26456 -0.96473,-7.50939 -2.29955,-11.30046 -4.65418,-13.21857 -1.81589,-1.4792 -3.30156,-3.42303 -3.30156,-4.31965 0,-0.89659 -0.91118,-2.04867 -2.02484,-2.56016 -1.11365,-0.51147 -0.38471,-0.5231 1.61987,-0.0258 2.068,0.51302 3.6447,0.15616 3.6447,-0.82488 0,-0.95097 -0.91118,-1.74019 -2.02484,-1.75383 -1.56752,-0.0193 -1.58127,-0.30667 -0.0609,-1.27285 2.18604,-1.3892 0.98481,-8.42154 -1.43852,-8.42154 -0.8396,0 -1.12531,-0.64921 -0.63491,-1.44268 0.93497,-1.51283 -7.10278,-7.64013 -9.20472,-7.01687 -0.66819,0.19813 -1.2149,-0.69696 -1.2149,-1.98908 0,-1.29212 -0.987,-2.93223 -2.19333,-3.64469 -1.20631,-0.71247 -3.06524,-2.95592 -4.13093,-4.98546 -1.06569,-2.02953 -2.52014,-3.33004 -3.23212,-2.89002 -1.39447,0.86183 -9.23783,-7.30502 -8.69559,-9.05424 0.17996,-0.58054 -2.20017,-2.25485 -5.28919,-3.7207 -3.08903,-1.46589 -5.61641,-3.35995 -5.61641,-4.20909 0,-0.84911 -1.07054,-1.54386 -2.37897,-1.54386 -1.55333,0 -2.01997,-0.93547 -1.34458,-2.69552 0.6955,-1.81245 0.4135,-2.31182 -0.86076,-1.52427 -1.05322,0.65092 -1.89515,0.28922 -1.89515,-0.81418 0,-1.092 -0.44454,-1.5409 -0.98787,-0.99756 -0.54334,0.54333 -4.17807,-2.43317 -8.07722,-6.61446 -7.11958,-7.63475 -8.41439,-7.76771 -10.93512,-1.12286 -0.33797,0.89093 -1.1775,1.0959 -1.86562,0.45552 -0.68812,-0.64039 -0.13769,-2.86356 1.22303,-4.94038 2.23734,-3.41464 2.21739,-4.00087 -0.20851,-6.12505 -1.47547,-1.29195 -3.67382,-4.2922 -4.88523,-6.6672 -1.21142,-2.37499 -3.57013,-4.6758 -5.2416,-5.11291 -1.73277,-0.45312 -3.03903,-2.23057 -3.03903,-4.13527 0,-2.30385 0.75405,-3.05118 2.4298,-2.40814 1.33639,0.51283 2.4298,0.23687 2.4298,-0.61323 0,-0.85009 1.64011,-2.34532 3.6447,-3.32273 3.20121,-1.56087 2.95482,-1.67643 -2.02483,-0.94965 -8.26603,1.20644 -2.85127,-1.72162 8.09932,-4.37976 5.38166,-1.30634 11.70294,-4.4067 15.96497,-7.83026 l 7.05569,-5.66765 -1.19659,-9.78867 c -0.65814,-5.38378 -1.07272,-12.21893 -0.92132,-15.18923 0.21752,-4.26697 -0.44604,-5.58918 -3.16128,-6.29923 -5.40592,-1.41368 -0.11339,-3.88828 5.74657,-2.68691 5.52661,1.13304 5.49088,1.06618 -3.05749,-5.72123 -3.46348,-2.75 -5.46807,-4.99999 -4.45463,-4.99999 1.01342,0 1.8426,-1.05038 1.8426,-2.33419 0,-1.28381 0.84156,-2.85432 1.87015,-3.49002 1.15869,-0.71611 1.43043,-0.44436 0.71432,0.71433 -0.6357,1.02858 -0.46184,1.87015 0.38634,1.87015 2.0607,0 3.50865,-4.06562 3.50865,-9.85168 0,-3.64719 0.74011,-4.7271 3.23973,-4.7271 1.78185,0 3.25089,0.91117 3.26453,2.02483 0.0189,1.54671 0.3421,1.52453 1.36855,-0.094 1.71309,-2.70115 10.44282,-0.8325 8.81363,1.88659 -0.61034,1.01862 0.14125,0.83698 1.67021,-0.40362 3.65937,-2.96931 2.81684,-3.55585 -6.49079,-4.51867 -10.05984,-1.04065 -9.03513,0.36878 -10.97408,-15.09385 -1.24443,-9.92402 -1.42517,-51.84225 -0.22869,-53.03873 0.63272,-0.63272 1.0452,2.47712 0.91663,6.91075 -0.90554,31.22524 2.40535,60.80148 5.70823,50.99185 1.75917,-5.22478 2.28901,-5.54509 9.03442,-5.46173 6.44447,0.0797 6.5543,0.0233 1.09117,-0.55986 -8.1479,-0.86975 -7.77208,-3.52224 0.48292,-3.40831 3.60656,0.0498 7.00828,-0.36039 7.55937,-0.91147 0.55108,-0.55106 -2.03529,-1.00194 -5.74747,-1.00194 -6.99519,0 -7.78596,-0.74915 -5.12958,-4.8596 1.04684,-1.61986 1.57853,-1.75485 1.59507,-0.40496 0.013,1.11365 1.30044,2.01366 2.85956,2.00002 2.30661,-0.0202 2.40592,-0.29622 0.53305,-1.48162 -1.96158,-1.24153 -1.90172,-2.06727 0.40496,-5.58773 4.33374,-6.61412 2.98639,-23.68328 -1.86943,-23.68328 -1.77019,0 -2.03428,-0.51701 -0.8626,-1.68869 1.17168,-1.17169 1.00547,-4.2713 -0.54291,-10.12416 -1.22739,-4.6395 -2.47409,-11.35122 -2.77041,-14.91492 -0.29634,-3.5637 -1.0897,-7.78654 -1.76303,-9.38409 -0.67333,-1.59754 -0.77603,-3.35282 -0.22822,-3.90062 0.54779,-0.54779 0.37866,-1.792 -0.37586,-2.7649 -2.07291,-2.67286 -3.34231,-9.0583 -1.80078,-9.0583 0.74554,0 1.67144,1.64011 2.05755,3.6447 0.38609,2.00458 0.80126,-0.46872 0.92259,-5.49622 0.16359,-6.77908 -0.40722,-9.38183 -2.2092,-10.07332 -3.61003,-1.3853 -2.941,-3.54587 1.19447,-3.85739 2.47661,-0.18656 2.94655,0.14585 1.48406,1.04973 -3.15542,1.95015 2.49924,3.82963 5.86125,1.94815 2.44067,-1.36586 9.7282,0.65684 11.70853,3.24977 0.44546,0.58326 2.26781,1.37033 4.04966,1.74904 1.78186,0.3787 3.0723,1.51202 2.86767,2.51847 -0.20462,1.00645 1.07102,2.28792 2.83476,2.84772 1.76376,0.55979 3.20683,1.73482 3.20683,2.61117 0,0.87635 2.55129,2.65935 5.66953,3.96224 3.11824,1.30288 5.66953,3.4525 5.66953,4.77694 0,1.32443 0.72894,2.40806 1.61986,2.40806 0.89093,0 1.61987,-0.85601 1.61987,-1.90223 0,-1.04623 1.79988,-0.21133 3.99973,1.85532 2.19986,2.06666 3.61472,4.38054 3.14413,5.14196 -0.47059,0.76143 -0.005,1.38441 1.03317,1.38441 1.03882,0 1.47816,1.07006 0.97627,2.37792 -1.52891,3.98427 1.50495,4.33103 15.49579,1.77114 20.94611,-3.83249 48.10501,-4.60191 53.97055,-1.52901 15.6658,8.20716 22.76005,9.26517 28.59435,4.26444 1.50297,-1.28825 3.62019,-1.79376 4.70491,-1.12337 1.17969,0.7291 1.55444,0.54294 0.93259,-0.46325 -0.99523,-1.61031 8.14467,-6.48147 10.66322,-5.68303 0.66819,0.21184 1.2149,-0.34378 1.2149,-1.23471 0,-0.89092 1.01265,-1.61986 2.25034,-1.61986 1.23768,0 3.64109,-1.27565 5.34091,-2.83477 1.69981,-1.55912 2.32726,-2.40121 1.39435,-1.87132 -5.44074,3.09031 -8.01667,3.00035 -4.12601,-0.14411 2.22732,-1.80012 5.32631,-2.9711 6.88666,-2.60217 1.56035,0.36892 2.47904,0.0916 2.04155,-0.6163 -0.92776,-1.50114 16.95529,-10.32415 18.26699,-9.01244 0.48536,0.48535 -0.0895,0.88246 -1.27736,0.88246 -1.18789,0 -1.75264,0.40717 -1.25499,0.90482 1.66577,1.66578 13.36057,-4.26036 17.1343,-8.68252 3.20795,-3.75915 3.4796,-3.85359 1.93992,-0.67442 -1.65895,3.42543 -1.4952,3.62278 2.23007,2.68779 3.44231,-0.86396 4.4925,-0.11438 7.30272,5.21239 1.80523,3.42181 3.35366,5.49252 3.44094,4.6016 0.0873,-0.89093 1.54165,2.3893 3.23193,7.28939 7.831681,22.70399 10.995601,30.85088 12.848041,33.08294 1.10106,1.3267 1.57017,3.11079 1.04245,3.96465 -0.52772,0.85385 -0.22239,1.79816 0.67848,2.09845 0.90087,0.30029 2.27441,4.91842 3.0523,10.26251 1.03294,7.09634 1.47429,8.18767 1.63666,4.047 0.15697,-4.003 0.64714,-4.99848 1.66752,-3.38663 0.79485,1.2556 1.04195,3.33375 0.54909,4.61811 -0.49286,1.28437 0.12133,2.97942 1.36477,3.76679 1.46957,0.93053 1.58474,1.44026 0.32906,1.45638 -1.06251,0.0136 -1.65107,1.48268 -1.30792,3.26454 0.34316,1.78185 -0.0632,3.23973 -0.90294,3.23973 -0.83977,0 -1.53801,1.27564 -1.55165,2.83476 -0.019,2.17091 -0.34555,2.32877 -1.39445,0.67411 -1.10432,-1.74213 -1.55889,-1.66745 -2.3467,0.38554 -0.57664,1.50272 -0.19096,2.38819 0.94115,2.16065 1.27836,-0.25694 1.93431,2.45103 1.96653,8.11861 0.0266,4.67728 -0.49837,8.50421 -1.16656,8.50429 -0.6682,8e-5 -1.29946,2.00473 -1.40281,4.45478 -0.14206,3.36674 -0.3782,3.66343 -0.96717,1.21489 -0.42858,-1.78185 -1.43744,-3.93222 -2.24188,-4.7786 -2.12034,-2.23084 -1.8442,5.02152 0.32334,8.49231 1.28164,2.05222 1.30148,4.90496 0.0703,10.10217 l -1.71572,7.24237 0.67968,-8.90926 c 0.71422,-9.36202 -0.0457,-7.96321 -3.95966,7.28939 -1.60726,6.26337 -1.62686,6.20935 -0.58774,-1.61986 0.59126,-4.45463 1.30945,-12.10849 1.59601,-17.00858 0.52605,-8.9957 1.8165,-24.74095 2.67462,-32.63431 0.32556,-2.99455 -0.17438,-4.04093 -1.65856,-3.47139 -2.59964,0.99757 -2.62996,0.10148 -0.26373,-7.79629 1.2869,-4.29531 1.3446,-6.85141 0.18704,-8.28726 -1.72018,-2.13375 -4.52719,-12.46154 -3.97636,-14.63019 0.55762,-2.19538 -3.42007,-1.26989 -6.853261,1.59455 -1.85201,1.54519 -1.30618,0.53514 1.21294,-2.24456 l 4.580221,-5.054 -3.98471,-10.3094 c -2.191581,-5.67016 -4.393701,-11.53727 -4.893611,-13.03801 -0.7847,-2.35573 -1.60838,-2.46642 -6.02724,-0.80993 -3.24427,1.21616 -4.16746,2.11045 -2.52137,2.44242 4.06751,0.82032 3.08315,2.91906 -3.07256,6.55102 -5.32526,3.14198 -7.03349,6.41005 -4.6148,8.82874 0.5801,0.5801 2.05774,-0.20958 3.28364,-1.75486 1.2259,-1.54527 -0.26127,1.92852 -3.30481,7.71954 -3.04355,5.79102 -5.159,11.62253 -4.70102,12.95892 0.67235,1.96191 0.41939,2.03989 -1.31362,0.40497 -2.99423,-2.82475 -4.74248,-2.52433 -4.71331,0.80993 0.0212,2.42258 0.25312,2.48147 1.59506,0.40497 2.47989,-3.83736 1.87612,-0.33465 -0.85153,4.94003 -1.35926,2.62854 -1.94241,4.77916 -1.29589,4.77916 0.64652,0 0.30078,0.87472 -0.76833,1.94383 -2.34259,2.34258 -2.61874,15.87468 -0.32398,15.87468 0.89093,0 1.61987,0.70606 1.61987,1.56903 0,0.86296 -1.09341,1.14944 -2.4298,0.63662 -1.53861,-0.59042 -2.4298,0.0223 -2.4298,1.67071 -4e-5,1.4317 -0.65962,2.6031 -1.46576,2.6031 -0.80616,0 -1.05969,3.02735 -0.56339,6.72744 0.64986,4.84507 0.3801,6.40468 -0.96408,5.57392 -3.07467,-1.90025 -2.09965,4.31695 1.37332,8.75689 3.53728,4.52216 4.22155,7.27745 1.36958,5.51484 -1.16799,-0.72186 -1.43005,-0.44373 -0.698,0.74075 0.64467,1.04311 1.79823,1.50963 2.56345,1.0367 0.76523,-0.47294 1.82984,0.52179 2.36582,2.21048 0.53596,1.6887 2.98704,3.47286 5.44686,3.96483 3.43824,0.68765 17.73686,9.13695 22.83447,13.4933 4.01375,3.43011 -2.89583,0.97882 -8.94522,-3.17344 -11.61781,-7.97444 -15.76434,-10.03845 -14.88853,-7.41105 0.73134,2.19403 6.14629,5.79414 15.86941,10.55075 3.11824,1.52544 7.11485,3.92699 8.88135,5.33674 2.99777,2.39238 3.06551,2.37429 1.01655,-0.27157 -2.50504,-3.23479 -0.26088,-3.87261 2.849731,-0.80993 1.65028,1.62484 2.83424,1.12702 5.9935,-2.52012 4.5928,-5.30206 5.04607,-3.05554 1.44364,7.15488 -1.61564,4.57918 -1.90075,7.26443 -0.80994,7.62804 0.92589,0.30861 1.68342,1.67763 1.68342,3.04223 0,2.12693 -0.6359,2.06728 -4.45463,-0.41789 -3.87697,-2.52305 -4.16633,-2.54722 -2.23146,-0.1863 1.79627,2.19179 1.81457,2.71271 0.0954,2.71271 -1.60458,0 -1.53423,0.49791 0.28611,2.02483 4.91851,4.12568 7.46471,8.43217 4.27977,7.23856 -1.89521,-0.71028 -2.83477,-0.27392 -2.83477,1.31656 0,1.30843 -1.01542,2.37897 -2.25648,2.37897 -3.227181,0 -4.660791,4.79327 -1.765871,5.90415 3.333911,1.27935 3.008511,3.21851 -1.24221,7.40262 -2.00458,1.97315 -4.80772,6.46527 -6.22922,9.98246 l -2.58451,6.39491 -1.78585,-5.12289 c -0.98221,-2.81758 -2.006,-5.09908 -2.27507,-5.06998 -1.50745,0.16294 -17.67935,6.06816 -18.28975,6.67854 -0.40055,0.40054 1.51269,2.05203 4.25163,3.66995 4.94321,2.92003 4.97185,2.91642 3.89065,-0.49013 -1.31429,-4.141 -0.32771,-4.32197 3.88721,-0.71304 1.74639,1.49531 2.73551,3.43029 2.19803,4.29994 -0.53748,0.86966 -0.2037,1.10313 0.74172,0.51883 0.94543,-0.58432 7.68532,3.67671 14.97754,9.46891 11.974501,9.51131 13.677161,11.51315 9.042751,10.6317 -0.819,-0.15583 -0.52062,0.88372 0.66308,2.30998 1.49624,1.80286 3.55463,2.28519 6.75365,1.58256 2.54729,-0.55947 4.60149,-0.32044 4.60149,0.53543 0,1.99305 -9.47564,3.91154 -11.9104,2.41146 -1.02215,-0.62977 -0.56601,0.83136 1.01365,3.24696 3.11725,4.76684 2.70934,5.37604 -1.7394,2.59776 -4.85834,-3.03409 -41.828991,8.97227 -47.068711,15.28574 -2.17058,2.6154 -1.91536,6.11373 0.57979,7.94688 1.45434,1.06849 -0.0752,1.55483 -3.4636,1.10135 -0.56857,-0.0761 -1.62971,0.82588 -2.35809,2.0044 -0.90629,1.46642 -1.23812,0.99878 -1.05129,-1.48151 0.15016,-1.99334 0.84684,-3.62427 1.54816,-3.62427 0.70133,0 1.27515,-1.59721 1.27515,-3.54934 0,-3.3732 -0.10837,-3.40121 -2.18254,-0.56454 -1.45661,1.99207 -2.55323,2.38501 -3.29707,1.18144 -0.75611,-1.22341 -2.39847,-1.31522 -5.10685,-0.28549 -2.19578,0.83483 -3.99232,0.98232 -3.99232,0.32776 0,-0.65457 -1.53416,-2.14821 -3.40923,-3.31923 -2.82327,-1.76316 -3.22025,-1.76052 -2.30969,0.0146 0.60476,1.17942 -0.0479,0.72944 -1.45035,-0.99996 -2.50089,-3.0831 -2.54995,-3.07531 -2.54995,0.40571 0,1.95213 -0.64052,3.54934 -1.42335,3.54934 -3.72842,0 -5.56268,11.73279 -5.76071,36.8482 -0.0991,12.5662 -1.36248,16.9459 -3.03838,10.53285 -0.55747,-2.13322 -0.78732,-1.93277 -0.92872,0.80993 -0.10334,2.00459 -1.09907,3.65586 -2.21273,3.6695 -1.34988,0.0165 -1.2149,0.54823 0.40497,1.59506 1.7656,1.14102 1.85016,1.57704 0.30936,1.59507 -1.16624,0.013 -1.61206,0.84735 -0.99073,1.85269 0.77046,1.24661 1.60517,0.97823 2.62494,-0.84402 0.82241,-1.46952 2.1794,-2.24905 3.01558,-1.73228 0.83617,0.51678 1.52031,0.0462 1.52031,-1.04583 0,-1.092 0.46321,-1.52224 1.02936,-0.95608 0.56614,0.56614 -0.14401,2.81999 -1.57793,5.00856 -1.95163,2.97857 -2.10864,4.18114 -0.62439,4.78226 1.53551,0.62186 1.52604,0.83191 -0.042,0.93094 -1.11366,0.0703 -2.02483,1.22129 -2.02483,2.55768 0,3.08821 2.60698,2.55152 9.6271,-1.98192 5.34494,-3.45164 9.82259,-3.66051 4.90477,-0.22877 -1.76785,1.23362 -1.19316,1.40194 2.22669,0.65209 2.53526,-0.55587 5.57196,-0.21199 6.74821,0.7642 2.92442,2.42706 4.41675,-2.63861 3.97273,-13.48539 -0.60144,-14.69305 -0.0836,-20.03365 1.67809,-17.30758 1.2633,1.95481 1.5751,1.69863 1.59506,-1.3105 0.0146,-2.18154 -0.67733,-3.30635 -1.65999,-2.69904 -1.10468,0.68275 -1.30645,-0.5393 -0.58597,-3.54909 2.32627,-9.71809 4.72628,-8.85504 5.283,1.8998 0.35332,6.82583 2.55367,15.37802 3.95652,15.37802 0.3132,0 0.33022,-2.36905 0.0377,-5.26456 l -0.53164,-5.26456 2.15021,5.60595 c 2.27286,5.92574 5.22351,8.14272 22.15229,16.64416 5.79101,2.90818 10.89359,5.72517 11.33905,6.26 2.02266,2.42839 8.357111,4.73726 10.157641,3.7024 1.09524,-0.6295 1.43914,-0.53621 0.7642,0.20731 -1.23276,1.35804 5.03244,5.16776 28.44213,17.29494 6.9499,3.60033 12.33508,6.84717 11.96704,7.2152 -0.36801,0.36804 -5.32537,-1.79695 -11.01633,-4.81106 -5.69094,-3.0141 -15.08528,-7.83145 -20.8763,-10.70519 -5.79102,-2.87375 -11.62253,-5.89347 -12.95892,-6.71048 -1.336391,-0.81701 -5.710021,-3.18715 -9.719191,-5.26699 -4.00917,-2.07985 -12.20973,-6.42372 -18.22348,-9.65309 -6.01375,-3.22934 -10.99051,-5.35697 -11.05945,-4.72803 -0.069,0.62895 -0.37701,12.93129 -0.68456,27.33856 -0.37129,17.39312 -1.26126,27.46263 -2.64857,29.96751 -1.14917,2.07485 -1.91175,4.38751 -1.69462,5.13923 0.21711,0.75171 -0.53919,1.05999 -1.6807,0.68505 -1.15894,-0.38068 -2.71393,-5.11318 -3.52132,-10.71684 -1.16389,-8.078 -1.95369,-9.88656 -4.04967,-9.27337 -2.22888,0.65206 -9.45594,1.96633 -26.54348,4.82705 -2.03409,0.34053 -6.43146,2.15424 -9.77193,4.03048 -3.3404,1.87624 -7.14477,3.41134 -8.45406,3.41134 -1.30929,0 -2.38052,0.66685 -2.38052,1.4819 0,0.81505 -3.82693,4.24034 -8.50429,7.61176 -16.90981,12.18851 -33.60976,26.85668 -32.54262,28.58336 0.67738,1.09602 0.11323,1.37865 -1.50913,0.75609 -1.42498,-0.54682 -2.94489,-0.12392 -3.37757,0.93962 -0.4327,1.0636 -0.8589,0.47595 -0.94715,-1.3059 z m -82.81084,-55.88535 c 2.62658,0 0.82833,-6.99444 -1.90104,-7.39426 -2.29687,-0.33646 -2.50945,0.15583 -1.15791,2.68114 0.98578,1.84196 1.03847,3.09326 0.13023,3.09326 -0.83886,0 -1.07622,1.64011 -0.52746,3.6447 0.81131,2.96365 1.10784,3.115 1.58698,0.80993 0.32409,-1.55912 1.16522,-2.83477 1.86918,-2.83477 z m 46.45039,-61.26063 c -0.45061,-0.72911 1.69318,-2.23417 4.76399,-3.34459 6.97948,-2.52381 6.98073,-3.55967 0.008,-7.31429 -3.06595,-1.65113 -5.9405,-3.95594 -6.38789,-5.12182 -0.64479,-1.6803 -1.83989,-1.73231 -5.7646,-0.25091 -6.36043,2.4008 -6.23368,3.75824 1.04712,11.21445 5.7351,5.87328 8.09453,7.66809 6.33255,4.81716 z m 47.60417,-13.13739 c 5.42184,-3.00522 11.13479,-9.50209 13.89243,-15.79868 1.24142,-2.83459 3.03979,-5.63751 3.99637,-6.22871 2.38877,-1.47633 0.30473,-10.10963 -3.77121,-15.62264 -3.1767,-4.29671 -7.04714,-4.74031 -5.46863,-0.62679 0.42378,1.10434 0.1202,3.03519 -0.6747,4.29078 -0.79485,1.2556 -1.45636,1.47984 -1.47,0.49832 -0.013,-0.98151 -2.02938,-3.95369 -4.47943,-6.60483 -2.45004,-2.65111 -5.40071,-6.22169 -6.55703,-7.9346 -1.75717,-2.60294 -1.96501,-2.64886 -1.26573,-0.2796 1.36123,4.61211 -0.36588,3.27041 -4.76923,-3.70496 -2.27059,-3.59684 -3.709,-7.21823 -3.19646,-8.04752 0.51253,-0.8293 -1.19567,-3.73409 -3.79599,-6.45508 -5.43586,-5.68811 -7.35296,-12.76732 -5.07791,-18.75112 1.07077,-2.81635 1.0057,-5.22764 -0.20198,-7.48418 -1.26098,-2.35618 -1.26817,-3.01178 -0.0246,-2.24322 1.14557,0.70799 1.55976,-0.49244 1.1901,-3.44921 -0.31185,-2.49434 -0.25017,-3.25951 0.13704,-1.70039 0.7992,3.21788 2.98898,3.70571 4.64032,1.0338 0.61218,-0.99055 0.19735,-2.36692 -0.92187,-3.05863 -1.11921,-0.69172 -1.52669,-2.07999 -0.90554,-3.08505 0.62117,-1.00506 1.84288,-1.38644 2.71491,-0.8475 0.87203,0.53895 2.82623,0.44073 4.3427,-0.21824 3.45776,-1.50257 6.42448,-2.35237 12.0193,-3.44285 4.79809,-0.9352 9.79764,-5.36528 6.05498,-5.36528 -1.1485,0 -1.6083,-0.47989 -1.02178,-1.06641 0.58652,-0.58652 7.89179,-1.28026 16.23393,-1.54164 8.34214,-0.26137 15.81984,-0.63311 16.61711,-0.8261 0.79728,-0.19299 4.36535,0.23244 7.92906,0.94537 11.05652,2.21189 11.55396,2.2387 13.90691,0.7493 1.75475,-1.11074 1.79489,-1.45645 0.1713,-1.47545 -1.16624,-0.013 -1.67507,-0.7454 -1.13076,-1.62612 0.58785,-0.95115 -0.13882,-1.16823 -1.79,-0.53465 -1.5362,0.5895 -2.37168,0.40004 -1.86767,-0.42352 0.50159,-0.8196 -1.6149,-1.62403 -4.7033,-1.78762 -3.0884,-0.16359 -6.56704,-1.08733 -7.73032,-2.05277 -2.27806,-1.89062 -7.88415,-0.5774 -6.57535,1.54028 0.43523,0.70422 -0.37906,1.72952 -1.80952,2.27844 -1.83759,0.70514 -2.33188,0.29707 -1.68427,-1.39054 0.53554,-1.39564 -0.73624,-3.68869 -3.05937,-5.51606 -2.18679,-1.72012 -3.97596,-3.77756 -3.97596,-4.57207 0,-0.79453 -1.4295,-1.4446 -3.17666,-1.4446 -2.90989,0 -2.96349,0.23555 -0.63827,2.80488 2.32998,2.5746 2.2675,2.78447 -0.76093,2.55634 -1.81461,-0.13672 -3.2634,-0.64391 -3.21955,-1.12715 0.30343,-3.34371 -1.04766,-4.63832 -6.56635,-6.29175 -8.0811,-2.42116 -9.39627,-2.36398 -9.39627,0.40853 0,1.4035 1.23447,2.04706 3.20042,1.66844 1.76022,-0.33898 4.24871,-0.0296 5.52999,0.68738 1.47759,0.82689 -0.41209,1.4074 -5.16688,1.58724 -4.12306,0.15599 -9.10211,-0.60743 -11.06454,-1.69644 -1.96243,-1.08898 -4.22352,-1.78886 -5.02464,-1.55528 -0.80112,0.23359 -2.62347,-0.0271 -4.04967,-0.57916 -1.42619,-0.55214 -8.24235,-1.25678 -15.14703,-1.56586 l -12.55395,-0.56198 -0.21324,12.41939 c -0.16714,9.73492 -0.47117,11.1939 -1.40661,6.74985 -1.14858,-5.4567 -1.20139,-5.49217 -1.40663,-0.94492 -0.11728,2.59852 -0.75508,4.18275 -1.41735,3.52049 -0.66226,-0.66227 -0.96264,-5.98464 -0.6675,-11.82753 l 0.53662,-10.62341 -16.74605,1.02905 c -16.49614,1.01369 -22.86895,1.61411 -36.72443,3.45998 -5.0296,0.67006 -6.69617,0.41206 -5.87901,-0.91012 0.8097,-1.31013 0.0875,-1.28177 -2.49025,0.0978 -2.40319,1.28614 -3.25844,1.34078 -2.52968,0.16166 0.60555,-0.97989 0.3547,-1.78156 -0.55746,-1.78156 -0.91216,0 -2.43871,1.45788 -3.39232,3.23973 -1.09681,2.04942 -1.14481,3.23973 -0.13056,3.23973 0.88177,0 3.3893,1.64012 5.5723,3.6447 6.92962,6.36328 8.11142,6.91826 18.8563,8.85497 23.42449,4.22218 31.58736,6.85433 31.58736,10.1855 0,1.33251 1.31072,3.87347 2.91272,5.64661 1.88534,2.08676 2.57641,4.56376 1.95929,7.02262 -0.52438,2.0893 -1.29346,7.1591 -1.70904,11.26624 -0.41559,4.10714 -1.29727,7.87188 -1.95929,8.36612 -0.66202,0.49422 -2.59645,3.63646 -4.29874,6.98277 -1.70228,3.34628 -3.36525,5.81397 -3.69549,5.48372 -1.66994,-1.66991 -1.81956,-8.35667 -0.22988,-10.27213 1.90229,-2.29212 0.99088,-4.12364 -2.34067,-4.70366 -5.01376,-0.8729 -13.68034,-5.60624 -17.26036,-9.42692 -2.52451,-2.69423 -4.33892,-3.56839 -5.04278,-2.42952 -0.6047,0.97841 -2.83935,1.44322 -4.96591,1.0329 l -3.86654,-0.74601 3.6447,-1.2045 c 2.00458,-0.66247 3.6447,-1.89754 3.6447,-2.7446 0,-1.67444 -5.01438,-0.46579 -11.16536,2.69126 -2.50796,1.28723 -3.22261,2.39316 -2.02483,3.13343 1.01812,0.62922 1.85113,0.28285 1.85113,-0.76976 0,-1.34714 0.79312,-1.25557 2.67864,0.30929 1.47327,1.22269 4.20679,2.08815 6.0745,1.92324 2.91112,-0.257 2.95764,-0.17577 0.32596,0.56913 -2.49001,0.7048 -2.64299,1.15321 -0.80993,2.37394 1.52146,1.01323 0.79743,1.16517 -2.21572,0.465 -4.48025,-1.04109 -10.01823,1.6977 -8.4766,4.19208 0.42949,0.69494 -0.91798,1.68993 -2.99437,2.21107 -5.0512,1.26777 -12.66314,7.3826 -11.51089,9.24695 0.50653,0.81959 -0.12619,1.49016 -1.4061,1.49016 -1.27987,0 -3.24912,1.11102 -4.37609,2.46895 -3.21239,3.87069 -3.7699,1.51553 -0.73698,-3.1133 l 2.72912,-4.16516 -4.93545,1.72051 c -2.71449,0.94628 -5.79596,2.75735 -6.84769,4.02462 -1.05175,1.26725 -3.41832,2.30411 -5.25909,2.30411 -3.97191,0 -3.79583,0.19056 13.14185,14.22164 5.61454,4.65107 9.74048,8.45647 9.16876,8.45647 -0.57171,0 2.48842,2.82333 6.80033,6.27405 4.3119,3.45072 9.98078,8.55329 12.59751,11.33905 6.19755,6.59788 7.7132,6.38825 7.29859,-1.00948 -0.18724,-3.34097 0.17067,-7.27509 0.79537,-8.74248 0.6247,-1.46738 0.95645,-3.6542 0.73723,-4.85959 -0.46334,-2.54763 5.23549,-12.69537 7.13802,-12.7105 0.70869,-0.005 3.18367,-1.90537 5.49995,-4.22164 3.0509,-3.05091 3.89857,-3.3962 3.07615,-1.25302 -0.89867,2.34194 -0.27397,2.14929 2.99798,-0.92455 2.27326,-2.13562 4.56886,-3.4473 5.10131,-2.91484 0.53247,0.53247 -2.55898,4.34767 -6.86988,8.47823 -11.90458,11.40661 -16.51194,32.15274 -8.53228,38.41936 2.15475,1.69218 5.29936,4.2146 6.98802,5.60538 4.53172,3.73233 20.41773,-1.2407 20.41773,-6.39166 0,-0.91992 -1.3348,-0.46461 -2.96621,1.0118 -4.33133,3.9198 -5.55902,1.3458 -1.84552,-3.86934 3.91766,-5.50186 -0.0402,-17.66259 -5.77088,-17.73125 -1.77573,-0.0212 -2.02444,-6.37709 -0.35522,-9.07794 0.85307,-1.38028 22.70798,-1.596 29.06958,-0.28692 2.56679,0.52819 2.56109,-0.80352 -0.0415,-9.68861 -1.35045,-4.61049 -2.93223,-6.89262 -4.78884,-6.90923 -2.32465,-0.0207 -2.3903,-0.26645 -0.40655,-1.52121 1.73354,-1.09651 1.0514,-1.45905 -2.55244,-1.35659 -2.70503,0.0769 -6.32092,-0.72709 -8.03532,-1.78668 -2.58607,-1.59832 -1.9165,-1.74796 3.93044,-0.87847 6.54568,0.97341 6.97355,0.81494 6.00861,-2.2253 -0.57141,-1.80036 -0.28033,-3.74218 0.64683,-4.31521 0.92718,-0.57303 1.68576,-2.88194 1.68576,-5.13091 0,-2.37164 0.7857,-3.82716 1.87073,-3.46547 2.08445,0.69481 6.34809,13.56574 4.9552,14.95862 -0.48753,0.48754 1.23965,0.98569 3.83818,1.10702 3.82001,0.17836 4.02677,0.35501 1.07991,0.92259 -2.00458,0.38612 -3.65586,1.56248 -3.6695,2.61418 -0.0146,1.12519 -0.67106,0.91216 -1.59506,-0.51763 -1.24389,-1.92479 -1.57354,-1.58812 -1.58603,1.61986 -0.0233,6.00018 3.17468,16.40915 4.74362,15.43949 0.74939,-0.46316 1.7805,0.24712 2.29136,1.57839 0.51086,1.33127 0.0405,2.43166 -1.04515,2.4453 -1.33856,0.0169 -1.41474,0.4079 -0.23667,1.2149 0.95555,0.65456 3.03821,5.88981 4.62814,11.63389 1.58993,5.74409 3.21799,11.5756 3.61792,12.95892 0.39993,1.38333 -1.1631,-0.97312 -3.4734,-5.23654 -2.3103,-4.26342 -3.69637,-8.56745 -3.08016,-9.56451 0.72953,-1.18039 0.37894,-1.35459 -1.00493,-0.49932 -1.58314,0.97845 -1.89229,0.42244 -1.21185,-2.17951 0.93228,-3.56507 -1.00945,-4.82361 -2.84925,-1.84675 -0.55959,0.90546 -1.80866,1.1573 -2.77568,0.55965 -1.00061,-0.61842 -1.29611,-0.33892 -0.68577,0.64861 0.60252,0.97492 -2.10102,3.74626 -6.17004,6.32478 -9.11344,5.77516 -10.11795,13.0777 -2.90613,21.12685 4.16712,4.65092 15.55555,9.40953 18.36451,7.67351 0.69024,-0.42659 1.62663,-0.17427 2.08089,0.56073 1.09321,1.76886 20.16248,-1.5511 25.31579,-4.40748 z m -1.02528,-71.79479 c -0.96038,-1.59855 -0.70545,-1.61154 1.21095,-0.0617 3.00538,2.43056 14.01527,-2.76291 22.08748,-10.41886 7.02175,-6.65967 6.8522,-6.86238 -4.8596,-5.80986 -5.56829,0.50043 -11.41556,0.86101 -12.99393,0.80132 -1.57838,-0.0596 -2.54803,0.41208 -2.15479,1.04836 0.39326,0.63628 0.11922,3.69017 -0.6091,6.78639 l -1.32411,5.6295 -0.16581,-6.88442 c -0.11959,-4.96586 -0.84294,-6.8844 -2.59561,-6.8844 -2.15826,0 -3.27815,3.08047 -2.56478,7.05494 0.13672,0.76196 -0.60897,2.41876 -1.65717,3.68177 -1.52069,1.83234 -1.41153,2.1067 0.54021,1.35774 1.57922,-0.60599 2.75476,0.24193 3.31721,2.39272 0.47914,1.83224 1.3469,3.33135 1.92835,3.33135 0.58145,0 0.50977,-0.91118 -0.15923,-2.02483 z m -13.14839,-14.73423 c -2.00066,-3.47719 -5.26591,3.38223 -4.16124,8.7417 l 1.15167,5.58756 1.89902,-6.47946 c 1.04446,-3.5637 1.5442,-7.09611 1.11055,-7.8498 z m 117.0351,10.2796 c 2.67278,-0.6801 3.76619,-1.4046 2.4298,-1.60999 -1.33639,-0.2054 1.42566,-1.20281 6.13786,-2.21649 l 8.56768,-1.84305 -4.85727,-7.64701 c -3.21131,-5.05571 -6.38905,-8.02531 -9.37761,-8.76342 -2.48618,-0.61404 -7.41844,-2.93521 -10.96059,-5.15817 -4.29448,-2.69512 -8.50741,-3.96075 -12.64453,-3.79863 -3.45095,0.13526 -5.79293,-0.4225 -5.27734,-1.25673 2.12453,-3.43754 -21.3346,-6.47986 -30.30831,-3.93055 -3.38241,0.9609 -3.79925,3.82674 -0.55662,3.82674 1.47771,0 1.98161,1.13392 1.4342,3.22729 -0.85767,3.2797 -6.32669,5.36909 -21.53086,8.22564 -7.53039,1.41479 10.65844,0.71862 28.34764,-1.08502 7.52059,-0.76681 7.82531,-0.66346 4.26455,1.44628 -4.39628,2.60479 -0.81451,5.30721 4.71012,3.55376 1.78661,-0.56704 3.98875,0.47617 5.90638,2.79804 4.27179,5.17228 10.19028,8.45932 10.33649,5.74074 0.0603,-1.12121 0.82712,-0.5632 1.70403,1.24 3.40353,6.99869 11.72475,9.78232 21.67438,7.25057 z m -167.65603,-9.77002 c 0,-4.29926 -0.82696,-6.84764 -2.4205,-7.45914 -1.33127,-0.51086 -2.13555,-1.39916 -1.78728,-1.97399 0.34826,-0.57484 -3.84732,-1.22803 -9.32354,-1.45152 -9.1315,-0.37269 -9.69612,-0.20485 -6.81235,2.02483 1.7294,1.33715 2.5276,2.43119 1.77376,2.43119 -4.23194,0 12.0829,12.01629 17.35501,12.78238 0.6682,0.097 1.2149,-2.76209 1.2149,-6.35375 z m -42.11649,-14.43193 c 0,-0.84679 4.70056,-1.3042 10.57953,-1.02949 12.51165,0.58461 12.41194,-0.27611 -0.3807,-3.28619 -14.0573,-3.30767 -16.67829,-3.02639 -16.67829,1.78985 0,2.96975 0.86392,4.04967 3.23973,4.04967 1.78185,0 3.23973,-0.68572 3.23973,-1.52384 z m 7.034,-12.32641 c -0.53,-1.38117 -3.04657,-2.9278 -5.59239,-3.43697 -2.54581,-0.50915 -4.27511,-1.49795 -3.84288,-2.19733 0.43223,-0.69936 -0.67301,-0.89005 -2.45609,-0.42377 -4.3778,1.14482 -4.11556,5.0814 0.40273,6.04553 7.88108,1.68171 10.16937,2.15521 11.28822,2.33583 0.64022,0.10335 0.73042,-0.94213 0.20041,-2.32329 z m 147.25814,-29.25386 c 0.6682,-0.12505 2.30831,-0.3184 3.6447,-0.42977 1.33639,-0.11128 2.4298,-1.15063 2.4298,-2.30949 0,-1.15886 3.29973,-3.71015 7.33272,-5.66952 8.17486,-3.97167 9.51068,-4.2964 8.06746,-1.96121 -0.57842,0.93588 0.11145,1.17878 1.66009,0.5845 2.12068,-0.81379 2.21834,-1.29027 0.4891,-2.38643 -1.18837,-0.75331 -1.67356,-1.38081 -1.07825,-1.39445 0.59534,-0.013 2.35503,-0.51314 3.91044,-1.11001 2.07997,-0.79816 2.47727,-0.51773 1.50207,1.06022 -0.86363,1.39737 -0.69855,1.75766 0.47345,1.03333 0.98967,-0.61165 1.40643,-2.13612 0.92616,-3.38773 -0.83538,-2.17698 -4.2855,-1.81458 -7.89453,0.82921 -0.89092,0.65265 -5.77841,2.48462 -10.86108,4.07102 -5.08266,1.58641 -8.89343,3.4471 -8.46838,4.13486 1.13661,1.83908 -5.98948,7.98385 -7.89391,6.80685 -0.92722,-0.57306 -1.12158,-0.18993 -0.45268,0.89237 0.64467,1.04311 2.03294,1.34914 3.08504,0.68005 1.05209,-0.66907 2.45961,-1.31879 3.1278,-1.4438 z m -38.26377,-2.55676 c -1.52578,-0.85388 -2.63782,-3.53124 -2.63782,-6.35091 0,-3.4413 0.5954,-4.53206 2.02483,-3.70946 1.11366,0.64089 1.46328,0.54757 0.77694,-0.20737 -0.68635,-0.75494 -2.71681,-1.48083 -4.51214,-1.6131 -2.25075,-0.16582 -2.74343,0.2803 -1.58686,1.43687 0.92256,0.92256 1.67737,2.99936 1.67737,4.61511 0,3.9845 3.53444,9.38229 5.39183,8.23436 0.82701,-0.51112 0.31665,-1.59359 -1.13415,-2.4055 z m -59.58387,-0.50529 c -1.0549,-6.46455 -1.74169,-7.39876 -3.59271,-4.88697 -1.44173,1.9564 -2.95708,2.15199 -7.20003,0.92937 -3.32512,-0.95815 -6.87621,-0.97738 -9.31422,-0.0505 -5.11529,1.94484 -5.05493,3.18572 0.1095,2.24925 2.70753,-0.49097 4.04967,0.002 4.04967,1.4865 0,1.60724 2.23965,2.17544 8.10611,2.05651 4.45835,-0.0904 7.98715,-0.89327 7.84177,-1.7842 z m 103.92214,-10.27477 c 2.22731,-1.42997 4.53562,-2.61888 5.12957,-2.64205 0.59394,-0.0232 1.62661,-0.5888 2.2948,-1.25699 0.6682,-0.6682 2.69708,-1.2149 4.50864,-1.2149 2.34961,0 2.79443,-0.49929 1.55184,-1.74188 -1.49826,-1.49826 -22.79846,7.27579 -26.39563,10.87297 -1.83311,1.83311 9.09434,-1.56694 12.91078,-4.01715 z m -110.15082,-2.4641 c 0,-1.21576 2.09375,-1.98304 5.26456,-1.92923 4.33182,0.0735 5.36044,-0.58827 5.80575,-3.73517 0.33844,-2.39172 -0.10415,-3.42564 -1.18143,-2.75985 -0.94742,0.58555 -3.15132,0.30001 -4.8975,-0.63452 -1.7462,-0.93454 -3.56621,-1.06601 -4.04448,-0.29215 -0.47828,0.77385 -2.89157,1.15384 -5.36287,0.84441 -3.9183,-0.49061 -4.01467,-0.41098 -0.75299,0.6222 4.5033,1.4265 4.87639,3.86949 0.8342,5.46233 -2.713,1.06908 -2.7228,1.17361 -0.11987,1.27814 1.55912,0.0627 2.83476,0.88582 2.83476,1.82933 0,0.94351 -0.84157,1.19535 -1.87015,0.55965 -1.16799,-0.72186 -1.43005,-0.44373 -0.698,0.74075 1.3834,2.23837 4.18802,0.90847 4.18802,-1.98589 z m 27.26595,-0.46013 c 0.60146,-0.90082 7.73322,-1.56671 16.06419,-1.49991 8.24038,0.0661 14.98307,-0.45222 14.98375,-1.15176 6.8e-4,-0.69954 1.52155,-0.45826 3.37972,0.53621 1.85814,0.99445 3.67134,1.51521 4.02931,1.15723 0.35798,-0.35796 -1.94194,-1.88727 -5.11091,-3.39844 -3.16898,-1.51117 -5.30362,-2.00629 -4.74365,-1.10025 0.55996,0.90604 0.24616,1.64734 -0.69735,1.64734 -0.94351,0 -1.72663,-0.91117 -1.74027,-2.02483 -0.0194,-1.59024 -0.30567,-1.58229 -1.33339,0.0371 -1.04481,1.64623 -2.51664,1.55711 -7.30159,-0.44218 -4.63056,-1.93477 -6.76553,-2.09057 -9.3912,-0.68535 -1.86903,1.00027 -2.98023,1.14235 -2.46936,0.31571 1.67054,-2.70297 -11.85775,-1.15358 -14.69426,1.68295 -2.56878,2.56878 -2.39256,2.74282 2.87515,2.8392 4.99014,0.0914 5.20799,0.26493 1.96698,1.56766 -2.00458,0.80575 -3.64469,1.84837 -3.64469,2.31695 0,1.45111 6.68322,-0.0837 7.82757,-1.79758 z m 91.04873,-5.46236 c 7.85022,-4.0049 8.46275,-5.7258 0.91559,-2.57239 -4.15979,1.73808 -5.95872,1.84201 -7.38535,0.4267 -1.42992,-1.41856 -1.65011,-1.25079 -0.91043,0.69372 0.59723,1.57008 0.11096,2.5648 -1.25392,2.5648 -4.84217,0 -1.84375,-4.91131 4.78989,-7.84568 5.36563,-2.37348 6.97514,-3.94586 6.83151,-6.67392 -0.1142,-2.17058 -0.45274,-2.59025 -0.86381,-1.07112 -0.37175,1.37378 -5.44636,4.57601 -11.2769,7.11607 -7.12607,3.10445 -9.91008,5.04532 -8.49318,5.92102 1.16962,0.72286 2.5676,0.5588 3.14075,-0.36859 0.56811,-0.91921 1.43028,-0.1518 1.91593,1.70538 1.10898,4.24071 4.42756,4.26812 12.58992,0.10399 z m -11.80566,-8.8105 c 0.66661,-0.70303 -0.51939,-0.74512 -2.63555,-0.0935 -2.63492,0.81132 -3.49917,0.62102 -2.74219,-0.6038 0.7892,-1.27697 -0.0794,-1.33807 -3.03688,-0.21364 -2.56479,0.97514 -4.14223,0.99263 -4.14223,0.0459 0,-0.84091 -1.08923,-1.11096 -2.4205,-0.6001 -1.33127,0.51086 -2.10784,1.4347 -1.72573,2.05299 0.93889,1.51914 15.18054,1.01791 16.70308,-0.58786 z m -27.13564,-3.75063 c 0,-1.32234 -8.79557,-3.42374 -17.93281,-4.28444 -5.72815,-0.53958 -12.23717,-1.24775 -14.46449,-1.57371 -13.66895,-2.00045 -24.95253,-2.86888 -23.99925,-1.84708 0.60974,0.65359 3.88997,1.56 7.28939,2.01424 3.3994,0.45424 6.63921,1.55646 7.19955,2.44937 0.63953,1.01907 1.25775,0.90665 1.66062,-0.30196 0.41325,-1.23973 2.20974,-1.53191 5.04449,-0.82043 2.42147,0.60775 4.09677,1.59998 3.72287,2.20495 -0.3739,0.60498 0.67103,1.09996 2.32206,1.09996 1.65103,0 2.6479,-0.57274 2.21526,-1.27275 -0.43261,-0.70002 0.30682,-1.27275 1.64321,-1.27275 1.33639,0 2.91101,0.77863 3.49917,1.73029 0.58817,0.95167 2.06572,1.34797 3.28347,0.88068 1.21773,-0.46729 2.53227,-0.33475 2.92118,0.29454 0.64798,1.04845 15.59528,1.71849 15.59528,0.69909 z m 27.51291,-1.57977 c -0.0214,-2.43823 -0.25779,-2.49488 -1.69029,-0.40497 -1.32338,1.93069 -1.56783,1.62402 -1.19009,-1.49298 0.26146,-2.15753 1.56879,-4.21761 2.90518,-4.57795 2.15981,-0.58238 2.15981,-0.46174 0,1.08575 -1.83358,1.31373 -1.0386,1.49018 3.23973,0.71905 3.11824,-0.56203 6.2715,-1.5639 7.00724,-2.22638 0.73574,-0.66248 -0.64824,-0.82487 -3.07551,-0.36087 -3.05973,0.58491 -4.06168,0.27481 -3.26696,-1.01108 0.63047,-1.0201 2.04255,-1.85473 3.13799,-1.85473 1.09542,0 4.6971,-1.3793 8.00372,-3.06511 6.60309,-3.36645 8.14418,-2.06902 2.36733,1.99304 -3.05289,2.14669 -2.54262,2.11301 3.14256,-0.20738 5.0851,-2.07548 6.10069,-3.02538 4.04966,-3.78769 -2.78247,-1.03417 -0.39163,-2.56641 8.29917,-5.31876 1.73949,-0.55089 2.4569,-1.70781 1.75911,-2.83686 -0.82568,-1.33597 -0.25042,-1.55307 1.92216,-0.7254 2.23631,0.85196 2.61161,0.68813 1.34653,-0.58776 -1.84491,-1.86066 -7.65508,-0.54217 -6.41965,1.4568 0.39437,0.63811 -3.07229,2.47728 -7.70366,4.08704 -4.63139,1.60977 -10.06082,3.94387 -12.0654,5.18688 -2.00459,1.24301 -3.6447,1.8531 -3.6447,1.35575 0,-0.49734 -1.3982,-0.15597 -3.10713,0.75862 -1.70891,0.91458 -5.45133,1.19404 -8.31648,0.62101 l -5.20936,-1.04188 4.26682,-2.23561 c 2.34675,-1.22959 4.26683,-2.59553 4.26683,-3.03541 0,-0.43989 -2.15062,0.31233 -4.77916,1.6716 -2.62854,1.35926 -5.88587,2.47139 -7.23856,2.47139 -1.64889,0 -2.11126,0.90721 -1.40301,2.75286 0.69884,1.82116 1.28319,2.0724 1.72655,0.74233 0.50991,-1.52976 1.20861,-1.56368 2.92181,-0.14184 1.23841,1.02778 3.35434,1.44555 4.70208,0.92838 1.34773,-0.51717 2.45042,-0.63283 2.45042,-0.25702 0,1.91718 -15.50865,7.23754 -18.4115,6.31621 -2.91522,-0.92525 -3.02307,-0.76665 -0.91334,1.34309 3.26783,3.26783 14.3123,2.98764 13.3603,-0.33894 -0.38337,-1.3397 0.52625,-0.79569 2.02138,1.20889 3.25412,4.36287 5.57227,4.70189 5.53823,0.80993 z m -121.95987,-0.58499 c -2.3667,-1.37681 -2.54602,-2.15752 -0.94001,-4.09263 1.67663,-2.02022 1.32305,-2.30268 -2.27872,-1.82033 -4.94511,0.66224 -7.8593,2.85325 -3.79501,2.85325 1.51284,0 3.17019,1.09341 3.68301,2.4298 0.51283,1.33639 2.13006,2.40763 3.59386,2.38054 2.30983,-0.0428 2.27507,-0.27404 -0.26313,-1.75063 z m 166.12599,-10.95655 c -0.22273,-1.00229 0.16885,-1.82235 0.87019,-1.82235 0.70132,0 1.37173,-1.28229 1.48979,-2.84953 0.11809,-1.56725 0.45541,-3.89301 0.74969,-5.16836 0.29426,-1.27535 -0.59425,-2.56961 -1.97447,-2.87613 -1.91671,-0.42566 -2.51999,0.89091 -2.5539,5.57332 -0.0277,3.82271 -0.75992,5.97818 -1.94513,5.72567 -2.07876,-0.4429 -2.55895,1.63659 -0.78708,3.40846 1.60665,1.60665 4.62831,0.15723 4.15091,-1.99108 z m -86.3928,-10.56551 c -1.51898,-1.44897 -17.68353,-5.57379 -17.68353,-4.51242 0,1.22325 16.543,6.52192 17.68353,5.66397 0.37121,-0.27924 0.37121,-0.79744 0,-1.15155 z m 82.7481,-12.65831 c 0,-0.72607 -2.73352,-0.15073 -6.07449,1.27852 -3.34097,1.42925 -6.98567,2.9749 -8.09933,3.43477 -1.11365,0.45988 -2.02483,1.42439 -2.02483,2.14335 0,0.71896 3.6447,-0.23264 8.09933,-2.11467 4.45462,-1.88202 8.09932,-4.01591 8.09932,-4.74197 z m -70.46413,2.03551 c 5.68319,-0.61557 -5.76996,-4.51593 -13.38269,-4.55747 -9.24424,-0.0504 -9.25991,-0.0424 -2.84393,1.46025 3.54831,0.83103 7.08166,2.14114 7.85187,2.91136 0.77022,0.77022 2.60517,1.16661 4.07764,0.88086 1.47249,-0.28575 3.40619,-0.5985 4.29711,-0.695 z m 90.79029,-13.18187 c 2.64594,-5.11669 2.31348,-7.49748 -0.78001,-5.5856 -0.9502,0.58725 -1.72763,2.33681 -1.72763,3.88789 0,1.55109 -0.87473,3.69489 -1.94384,4.764 -1.46465,1.46464 -1.4749,1.94384 -0.0416,1.94384 1.04624,0 3.06812,-2.25456 4.49308,-5.01013 z m -161.13871,337.77668 c -1.94665,-4.14133 -3.15068,-7.9184 -2.67561,-8.39348 0.47509,-0.47507 1.37287,0.46291 1.99511,2.08441 1.07509,2.80166 1.18786,2.79306 2.26899,-0.17311 0.83519,-2.29143 1.45778,-1.05568 2.34168,4.64789 1.60736,10.37187 0.35723,10.95533 -3.93017,1.83429 z m -113.54529,-44.34463 c 2.20584,-1.69495 4.39266,-2.98175 4.85959,-2.85957 0.46694,0.12214 2.55152,-0.72069 4.6324,-1.87308 2.08089,-1.15239 4.15795,-1.72073 4.6157,-1.26297 0.85022,0.85021 -14.54819,9.17872 -16.84957,9.11337 -0.69781,-0.0198 0.53603,-1.42279 2.74188,-3.11775 z m 19.47741,-9.51784 c 0,-1.16051 7.02167,-5.39845 9.71919,-5.86604 0.44547,-0.0773 1.76961,-0.74894 2.94254,-1.4927 1.17293,-0.74376 2.52106,-0.96384 2.99584,-0.48907 0.47477,0.47478 -2.85396,2.74687 -7.39718,5.04909 -4.5432,2.30223 -8.26039,3.56164 -8.26039,2.79872 z m 115.82035,-14.93522 c -2.67277,-1.68963 -6.86417,-4.20637 -9.31422,-5.59273 -2.45005,-1.38636 -4.45463,-2.8285 -4.45463,-3.20473 0,-1.28206 10.52133,2.97118 12.68455,5.12773 1.18548,1.18183 3.00783,1.66074 4.04966,1.06426 1.04183,-0.5965 1.35385,-0.48804 0.6934,0.24103 -0.66047,0.72905 -0.38898,2.30381 0.6033,3.49943 2.31476,2.7891 1.6764,2.61911 -4.26206,-1.13499 z m 13.76886,-17.56308 c 0,-0.9934 1.13643,-1.80617 2.5254,-1.80617 1.38897,0 2.09748,-0.69236 1.57449,-1.53859 -1.11837,-1.80955 4.14374,-4.94087 8.30302,-4.94087 2.63463,0 2.60763,0.19738 -0.29846,2.18139 -9.36925,6.39648 -12.10445,7.77584 -12.10445,6.10424 z m 123.43439,-56.36129 c -1.66525,-0.66748 -1.56623,-1.66628 0.47386,-4.77987 2.54558,-3.88503 2.52038,-3.92323 -1.94452,-2.94694 -3.47283,0.75936 -3.95914,0.58818 -2.09372,-0.73697 4.07797,-2.89692 8.63835,-2.23041 7.24641,1.05907 -0.65973,1.55912 -1.14749,4.1104 -1.08391,5.66952 0.0637,1.55912 -0.0214,2.77721 -0.18868,2.70688 -0.16737,-0.0703 -1.25161,-0.5076 -2.40944,-0.97169 z"
       id="path73" />
    <path
       style="fill:#ffffff;stroke:none;stroke-width:0.26458300000000001px;stroke-linecap:butt;stroke-linejoin:miter;stroke-opacity:1"
       d="m -199.69789,-342.11069 -23.6581,-28.85205 -62.9518,-20.32447 -40.20778,46.64578 23.22346,24.50317 26.04545,21.88355 41.95857,17.51407 z"
       id="path905" />
    <path
       style="fill:#ffffff;stroke:none;stroke-width:0.26458300000000001px;stroke-linecap:butt;stroke-linejoin:miter;stroke-opacity:1"
       d="m -243.59358,-285.73568 84.24691,63.89276 77.372021,61.53921 83.3474395,63.346371 94.3319155,-85.591041 -227.195746,-113.29626 c 0,0 -95.16089,-68.67314 -97.29905,-67.06952 -2.13815,1.60364 -14.80349,77.17848 -14.80349,77.17848 z"
       id="path925" />
    <path
       style="color:#000000;font-style:normal;font-variant:normal;font-weight:normal;font-stretch:normal;font-size:medium;line-height:normal;font-family:sans-serif;font-variant-ligatures:normal;font-variant-position:normal;font-variant-caps:normal;font-variant-numeric:normal;font-variant-alternates:normal;font-variant-east-asian:normal;font-feature-settings:normal;font-variation-settings:normal;text-indent:0;text-align:start;text-decoration:none;text-decoration-line:none;text-decoration-style:solid;text-decoration-color:#000000;letter-spacing:normal;word-spacing:normal;text-transform:none;writing-mode:lr-tb;direction:ltr;text-orientation:mixed;dominant-baseline:auto;baseline-shift:baseline;text-anchor:start;white-space:normal;shape-padding:0;shape-margin:0;inline-size:0;clip-rule:nonzero;display:inline;overflow:visible;visibility:visible;opacity:1;isolation:auto;mix-blend-mode:normal;color-interpolation:sRGB;color-interpolation-filters:linearRGB;solid-color:#000000;solid-opacity:1;vector-effect:none;fill:#000000;fill-opacity:1;fill-rule:evenodd;stroke:none;stroke-width:1.17715;stroke-linecap:butt;stroke-linejoin:miter;stroke-miterlimit:4;stroke-dasharray:none;stroke-dashoffset:0;stroke-opacity:1;color-rendering:auto;image-rendering:auto;shape-rendering:auto;text-rendering:auto;enable-background:accumulate;stop-color:#000000;stop-opacity:1"
       d="m -251.77465,-279.30164 c 1.62112,-2.56465 53.14717,28.16651 108.4738,74.75506 67.315906,56.68425 160.311979,106.632927 194.696887,150.155841 0,0 -214.537987,-185.636501 -286.684147,-226.349951 13.75922,-18.20529 40.74536,-45.65825 55.95397,-32.91033 111.16979,93.183 252.336835,197.19065 282.11419,135.48559 12.1562,-25.19024 -145.561266,-77.33596 -223.92621,-118.86749 -64.72678,-34.30363 -82.45245,-58.48431 -82.45245,-58.48431 l 4.70122,-7.43744 -0.47673,-37.96847 c -0.41688,-33.20354 -1.49802,-29.32528 -3.71003,-55.3271 l -0.0933,-1.10885 -0.73908,-0.83167 c 0,0 -9.85915,-1.8169 -10.88899,-2.10447 -1.02989,-0.28751 6.58579,0.70887 5.45261,1.18672 -2.26634,0.95573 -4.21753,3.00858 -7.16299,7.29581 -13.08463,19.04514 1.31223,28.88146 -11.86874,66.98229 0,0 -19.07439,-11.51107 -47.81336,-27.53073 -32.38817,-15.64002 -48.82356,-11.68632 -56.64965,0.34499 -0.11228,0.17256 -0.22272,0.34679 -0.33145,0.52263 -12.8683,20.81269 -1.2319,64.42558 -1.01184,74.50745 z m -2.08704,-9.25871 c 0,0 -47.53191,-21.51751 -50.14662,-43.48812 -2.04149,-17.15387 13.01678,-44.82519 30.09023,-42.1946 57.06957,8.79307 29.37641,18.95065 59.98596,23.11816 0,0 -3.1664,25.41726 -9.72483,35.96197 -7.08585,11.39269 -30.20474,26.60259 -30.20474,26.60259 z"
       id="rect75"
       sodipodi:nodetypes="csccsssccscccsssccsccccascsc" />
  </g>
</svg>
