<?xml version="1.0" encoding="UTF-8" standalone="no"?>
<svg
   xmlns:dc="http://purl.org/dc/elements/1.1/"
   xmlns:cc="http://creativecommons.org/ns#"
   xmlns:rdf="http://www.w3.org/1999/02/22-rdf-syntax-ns#"
   xmlns:svg="http://www.w3.org/2000/svg"
   xmlns="http://www.w3.org/2000/svg"
   xmlns:sodipodi="http://sodipodi.sourceforge.net/DTD/sodipodi-0.dtd"
   xmlns:inkscape="http://www.inkscape.org/namespaces/inkscape"
   width="210mm"
   height="297mm"
   viewBox="0 0 210 297"
   version="1.1"
   id="svg8"
   inkscape:version="1.0.2 (e86c870879, 2021-01-15)"
   sodipodi:docname="judastrainwreck01.svg">
  <defs
     id="defs2">
    <inkscape:path-effect
       effect="roughen"
       id="path-effect973"
       is_visible="true"
       lpeversion="1"
       method="size"
       max_segment_size="0.06"
       segments="1"
       displace_x="0.01;1"
       displace_y="0.01;1"
       global_randomize="0.3;2147483646"
       handles="along"
       shift_nodes="true"
       fixed_displacement="true"
       spray_tool_friendly="true" />
    <inkscape:path-effect
       effect="sketch"
       id="path-effect971"
       is_visible="true"
       lpeversion="1"
       nbiter_approxstrokes="1"
       strokelength="100"
       strokelength_rdm="0.3;1"
       strokeoverlap="0.3"
       strokeoverlap_rdm="0.3;1"
       ends_tolerance="0.1;1"
       parallel_offset="5;1"
       tremble_size="5;1"
       tremble_frequency="1"
       nbtangents="5"
       tgt_places_rdmness="1;1"
       tgtscale="10"
       tgtlength="100"
       tgtlength_rdm="0.3;1" />
  </defs>
  <sodipodi:namedview
     id="base"
     pagecolor="#ffffff"
     bordercolor="#666666"
     borderopacity="1.0"
     inkscape:pageopacity="0.0"
     inkscape:pageshadow="2"
     inkscape:zoom="0.7"
     inkscape:cx="975.94265"
     inkscape:cy="968.0389"
     inkscape:document-units="mm"
     inkscape:current-layer="layer1"
     inkscape:document-rotation="0"
     showgrid="false"
     inkscape:window-width="1366"
     inkscape:window-height="750"
     inkscape:window-x="0"
     inkscape:window-y="18"
     inkscape:window-maximized="0"
     inkscape:snap-global="false" />
  <metadata
     id="metadata5">
    <rdf:RDF>
      <cc:Work
         rdf:about="">
        <dc:format>image/svg+xml</dc:format>
        <dc:type
           rdf:resource="http://purl.org/dc/dcmitype/StillImage" />
        <dc:title></dc:title>
      </cc:Work>
    </rdf:RDF>
  </metadata>
  <g
     inkscape:label="Layer 1"
     inkscape:groupmode="layer"
     id="layer1">
    <path
       id="path73"
       style="fill:#000000;stroke-width:3.46028"
       transform="scale(0.26458333)"
       d="m 166.18359,151.55469 c -1.1688,-0.003 -2.34362,0.0161 -3.52343,0.0566 38.34896,224.84824 2.1036,195.89127 -12.64454,239.09179 -7.05538,20.9548 -4.53204,-40.2045 -2.59765,-106.90624 0.27467,-9.47085 0.34184,-89.52732 -1.00977,-88.17579 -2.55562,2.55585 -17.62072,105.40409 -10.05664,184.69336 2.72606,28.57544 0.97164,17.47279 -5.65429,45.41407 -5.49336,49.14695 -6.67703,76.83597 1.02148,122.70507 -14.55051,12.47261 -31.928784,24.46006 -49.175781,28.83399 -61.823362,14.57003 -67.948576,-11.8354 -13.453125,44.6914 8.551658,5.07231 47.716166,45.54316 52.865236,53.43555 17.50374,27.68832 100.16303,65.46104 100.49414,96.30859 0.21384,19.9216 22.09772,84.11675 22.28711,83.53321 -0.0599,-13.34438 8.21287,-12.19791 5.6289,-7.78516 -1.1762,1.90315 -0.48812,3.45899 1.52735,3.45899 17.38751,-17.71192 -21.05888,-49.80961 -12.31836,-61.29688 10.03513,3.0819 44.66428,26.92483 45.17969,20.60547 0,-4.29505 -14.51138,-18.30104 -31.17383,-26.7832 -14.36698,-7.31362 -22.68451,-15.5226 -20.04883,-19.78711 0.87078,-1.40905 -0.0506,-5.61366 -2.04687,-9.34375 -8.95269,-16.72838 10.35039,-11.70561 20.38671,5.30469 8.69919,14.74393 18.61827,17.22431 28.57227,12.70703 13.50452,-6.12856 9.2211,-4.53293 19.07226,-8.80079 15.56732,-6.74425 15.29035,-0.45966 33.89649,-3.52929 28.87001,-4.83229 50.84257,-22.14004 74.99023,-34.70313 33.79266,-17.58101 59.60439,-30.64523 93.61133,-40.03906 20.04476,-5.53702 24.79925,-2.80785 37.54297,-5.99609 15.0032,-3.75352 -2.96112,-4.96943 -10.65039,-5.35157 -42.93475,0.98649 -65.99506,11.53224 -100.98242,29.7129 -5.60669,-51.24373 -23.32838,-67.41045 -47.79883,-93.1875 -5.95576,-3.68092 -3.77335,-12.11133 3.13477,-12.11133 14.97668,0 59.15039,-30.31889 59.15039,-40.59766 0,-6.18187 44.51044,-1.79615 64.05078,7.10547 49.94097,10.40239 89.40872,68.80818 132.67968,80.3457 48.05267,8.44933 -32.8706,26.00131 -155.10156,78.39453 -26.25925,11.2558 -78.23545,24.66693 -113.82422,50.27735 -63.91791,45.99667 -76.34241,43.08271 12.51954,10.33984 34.65706,-12.47413 73.43683,-32.41714 101.93359,-46.23242 -26.25743,85.77 -31.62974,165.2105 -132.00781,237.53516 C 323.02889,953.6328 221.26072,860.59985 193.27148,859.8066 c -10.39347,-34.87348 -1.23066,-84.0333 -0.46484,-105.49414 1.11737,-28.3699 -9.22926,-3.88563 -11.88867,12.53906 -1.832,20.89557 -1.80425,41.14965 -2.53906,62.06055 l -26.29102,12.50195 c -36.8961,13.88523 -65.776902,24.87844 -98.945312,37.98047 -13.526127,5.30676 -36.421731,22.23272 -35.392578,22.0625 52.521951,-8.6868 85.03671,-35.17764 116.69727,-45.6875 11.49991,-3.81745 27.87218,-13.73219 37.06835,-16.69726 -7.63071,30.37825 6.73921,62.29445 8.9668,93.53711 3.3861,8.67966 78.38983,-22.28972 170.18164,81.35156 54.20883,-69.68167 116.83315,-82.14816 202.84766,-106.20508 16.2059,4.88918 1.36334,35.8533 16.17187,42.70312 5.31177,1.34792 4.58559,-7.62279 7.21094,-12.44336 2.96349,-5.35075 4.86312,-26.85941 5.65625,-64.01367 0.65696,-30.77609 1.31549,-57.05689 1.46289,-58.40039 31.12321,20.23423 66.68141,55.32979 109.56836,62.73633 13.60838,2.35016 35.29443,14.28413 47.45117,20.72266 12.15674,6.43858 21.31738,6.77836 22.10352,5.99218 -42.1705,-35.46258 -90.89936,-52.42972 -133.8711,-74.08007 -29.39286,-13.21721 -47.34156,-23.13254 -51.91406,-47.53125 -0.23905,4.9259 3.53013,19.02339 1.05467,22.49218 -2.99667,0 -7.69644,-18.26865 -8.45117,-32.84961 -1.18923,-22.97397 -6.31595,-24.81791 -11.28516,-4.05859 -1.5391,6.42932 -1.10779,9.04047 1.25196,7.58203 5.30689,0.0206 4.72442,15.5476 0.13867,8.56446 -3.76305,-5.82331 -4.87072,5.5861 -3.58594,36.97265 5.93359,41.12773 -73.81837,35.48861 -73.92773,13.05078 -0.42382,-86.95569 13.75467,-101.96015 76.18945,-122.03515 C 666.70973,678.44283 770.96046,647.9734 660.40232,624.26168 638.49693,610.54079 622.0042,606.01031 605.51365,596.31246 561.89642,570.66181 562.4986,578.06499 493.08982,532.5859 c -13.6897,-6.05619 -27.62766,-9.29451 -40.96679,-10.60742 14.29887,-5.93861 25.43911,-6.15498 22.83593,-17.09766 -6.14203,-25.81849 -75.64485,-10.46913 -97.54296,-2.37896 -43.031,15.25383 -32.48932,19.3484 -49.10743,52.32617 -8.40376,48.0238 52.7087,65.5037 78.51368,101.7129 18.93796,26.82693 -6.00386,61.98255 -30.15625,80.42578 -50.17849,38.31727 -148.70916,-21.33178 -91.54688,-53.30469 8.13423,-4.54977 32.67389,-29.14723 30.51758,-35.16016 -13.65479,-4.32482 -68.74736,-11.66252 -79.98828,-0.33593 -4.7776,4.81401 -1.9537,16.73968 0.75976,19.39062 8.19273,8.00399 28.22993,28.48647 22.60547,43.98047 -10.388,28.6164 -37.16429,21.15111 -58.54297,1.67969 -34.98341,-31.86243 38.52384,-91.56148 32.90235,-100.17969 -0.87879,-1.34727 -5.79273,1.94594 -10.89844,6.22656 -21.04474,17.64386 -41.5187,32.06857 -43.24414,69.87695 -0.72156,15.811 -2.35292,16.25026 -57.57379,-33.62665 -55.220871,-49.87691 -55.275992,-47.96908 -47.113691,-50.28536 41.668751,-2.36986 62.075521,-50.77396 81.033201,-60.63282 13.10313,-6.81422 21.58486,-8.51497 23.85156,-5.74804 7.49079,9.1439 25.31962,28.22622 50.93946,33.15039 7.09392,1.36346 9.06359,5.15057 5,10.04687 -3.39593,4.09172 -3.07702,18.37617 0.49023,21.94336 19.45632,-18.45287 20.23888,-49.3817 24.91406,-68.56836 2.81735,-11.56225 -9.8779,-14.09611 -10.4082,-27.0625 -0.29078,-7.10996 -11.87122,-11.58742 -61.75976,-21.40039 -59.59692,-11.72259 -28.5847,-15.39113 -19.57618,9.45703 3.6923,10.18444 -6.28889,6.56169 1.04688,16.75586 40.99125,5.30816 -12.0039,12.18404 -28.70703,12.47266 -5.07435,0.0877 -7.80858,-2.3688 -6.92188,-8.65039 2.08139,-14.74503 -4.28623,-42.97597 2.25391,-63.65821 9.81937,-11.32074 19.1241,-0.0946 31.71875,-1.7246 47.65252,-4.19239 97.73479,-16.96029 142.95312,-15.09571 170.29105,5.25236 197.07778,48.10985 193.61719,50.81055 -16.28824,12.71163 106.98427,40.651 117.63281,58.31641 12.73133,21.12066 14.37298,29.73779 21.55469,50.3379 11.55198,-42.2885 65.79251,-173.67616 35.50391,-133.67188 -48.16683,8.91484 -74.58013,-32.15817 -93.96289,-47.86523 -46.46865,-37.65644 64.44274,-227.49207 70.10351,-211.23633 1.06791,3.20577 5.77162,15.73925 10.45313,27.85156 l 8.51172,22.02148 c 19.34921,50.06094 22.75891,130.8001 9.9414,189.9629 -6.49689,29.98825 82.08366,-49.27615 -20.84179,-239.19727 -8.10868,-12.02922 -17.11745,-39.56561 -29.85352,-36.53516 -84.16895,24.63148 -135.03884,96.67854 -207.07227,59.4336 -47.93801,-10.20113 -133.25086,6.1797 -143.8457,8.06836 -49.38558,-62.0008 -80.69669,-83.17244 -116.92969,-83.25586 z m 31.79688,378.08008 c 2.49819,-1.17304 6.49429,0.0931 11.36914,0.33007 27.97158,1.35969 30.37445,0.72487 28.9043,23.25196 0,7.67232 -1.23887,14.06158 -2.59571,13.57226 -45.90207,-16.5538 -48.84861,-31.90893 -37.67773,-37.15429 z m 230.16797,18.16015 c 9.95329,-0.15988 9.44904,5.5408 -3.9043,13.41992 -16.1301,9.51754 -29.69528,24.07086 -48.41992,23.68164 -15.05031,-0.31284 -15.70061,-34.56862 -4.34961,-35.03125 3.74086,-0.15247 5.28993,4.09726 5.54492,14.70508 l 0.35352,14.70703 2.82812,-12.02539 c 1.5555,-6.6141 2.14285,-13.13686 1.30274,-14.49609 10.60415,-4.64807 33.75417,-4.7082 46.64453,-4.96094 z m -84.36914,2.31641 c 10.55019,5.9061 -1.28396,23.97255 -3.82032,32.62695 -2.41598,-7.74572 -5.52956,-37.8611 3.82032,-32.62695 z m -58.61133,192.15039 c 14.762,8.26377 14.67116,9.65469 -0.0156,15.625 -15.45634,6.28314 -9.16493,11.82062 -23.70703,-3.14649 -15.55286,-15.92757 -15.82314,-18.82663 -2.23633,-23.95507 12.78359,-6.13837 17.87685,6.50183 25.95896,11.47656 z"
       sodipodi:nodetypes="sccscsccccccscccccsssssscssscccsscscsccccccccccscccccsscsccccsscccssccsccscccsscsssssscccsssscsssscsscccsscccccssccccsssscsccsssscsccsccccsc" />
    <g
       id="g951"
       transform="matrix(0.56518913,0,0,0.56518913,232.64161,353.66075)"
       style="opacity:1">
      <path
         id="path905"
         style="fill:#ffffff;stroke:none;stroke-width:0.26458300000000001px;stroke-linecap:butt;stroke-linejoin:miter;stroke-opacity:1"
         d="m -199.69789,-342.11069 c -7.88603,-9.61735 -15.77207,-19.2347 -23.6581,-28.85205 -20.98393,-6.77482 -41.96787,-13.54965 -62.9518,-20.32447 -13.40259,15.54859 -26.80519,31.09719 -40.20778,46.64578 7.75804,8.17895 15.50363,16.37112 23.26945,24.54181 8.66649,7.28164 17.33297,14.56327 25.99946,21.84491 13.98619,5.83802 27.97238,11.67605 41.95857,17.51407 11.8634,-20.45668 23.7268,-40.91337 35.5902,-61.37005 z" />
      <path
         id="path925"
         style="fill:#ffffff;stroke:none;stroke-width:0.26458300000000001px;stroke-linecap:butt;stroke-linejoin:miter;stroke-opacity:1"
         d="m -228.7229,-362.93912 c -0.62928,0.69766 -0.71182,1.76897 -1.01968,2.64564 -1.93761,7.71147 -3.32574,15.54781 -4.82973,23.35177 -3.17322,17.03887 -6.13397,34.11658 -9.0211,51.20601 28.1437,21.34891 56.29647,42.68615 84.43451,64.04234 25.79303,20.51032 51.5774,41.03177 77.375842,61.53512 27.718483,21.06686 55.436971,42.13375 83.1554546,63.2006 31.4441054,-28.53019 62.8881874,-57.06033 94.3323124,-85.59052 -75.73199,-37.76542 -151.463975,-75.53084 -227.195959,-113.29626 -24.72074,-17.7761 -49.48419,-35.49763 -74.56674,-52.76115 -6.62513,-4.48271 -13.18586,-9.08144 -20.07277,-13.15893 -0.8372,-0.42753 -1.64983,-1.02151 -2.59214,-1.17462 z" />
      <path
         id="rect75"
         style="color:#000000;font-style:normal;font-variant:normal;font-weight:normal;font-stretch:normal;font-size:medium;line-height:normal;font-family:sans-serif;font-variant-ligatures:normal;font-variant-position:normal;font-variant-caps:normal;font-variant-numeric:normal;font-variant-alternates:normal;font-variant-east-asian:normal;font-feature-settings:normal;font-variation-settings:normal;text-indent:0;text-align:start;text-decoration:none;text-decoration-line:none;text-decoration-style:solid;text-decoration-color:#000000;letter-spacing:normal;word-spacing:normal;text-transform:none;writing-mode:lr-tb;direction:ltr;text-orientation:mixed;dominant-baseline:auto;baseline-shift:baseline;text-anchor:start;white-space:normal;shape-padding:0;shape-margin:0;inline-size:0;clip-rule:nonzero;display:inline;overflow:visible;visibility:visible;opacity:0.988;isolation:auto;mix-blend-mode:normal;color-interpolation:sRGB;color-interpolation-filters:linearRGB;solid-color:#000000;solid-opacity:1;vector-effect:none;fill:#000000;fill-opacity:1;fill-rule:evenodd;stroke:none;stroke-width:2.51457;stroke-linecap:butt;stroke-linejoin:miter;stroke-miterlimit:4;stroke-dasharray:none;stroke-dashoffset:0;stroke-opacity:1;color-rendering:auto;image-rendering:auto;shape-rendering:auto;text-rendering:auto;enable-background:accumulate;stop-color:#000000;stop-opacity:1"
         d="m 404.55859,426.95508 c 2.1684,27.85918 -3.17926,55.93004 -11.45117,82.58203 -67.48637,-17.75931 -126.27639,-83.68934 -193.88867,-73.35156 -18.4551,3.17955 -33.21048,18.03672 -37.98242,36.00976 -6.09095,48.25498 -10.75765,100.80247 4.54492,143.19922 1.15426,0.92754 18.18653,13.72468 27.63477,20.13867 47.57267,32.29496 93.05121,67.51078 140.99414,99.23828 11.42856,7.56315 24.92713,11.55302 36.82422,18.85743 147.89484,90.80242 288.9783,217.04476 420.16015,305.82229 33.4237,22.4637 127.57439,97.7616 98.62305,69.7617 C 796.1989,1038.4775 665.29482,924.79352 561.65625,850.37305 529.98019,827.62721 499.2465,805.43491 513.39258,789.23047 530.8638,769.21706 546.00901,730.19538 572.55859,735.73828 756.0229,774.04114 863.98848,992.5469 1020.498,1008.043 c 52.7079,-1.1417 105.7506,-51.35996 54.9551,-90.29691 C 881.89954,800.59336 677.38098,752.59656 506.49805,633.3125 c -48.27717,-26.89783 -49.95172,-47.94372 -52.11133,-82.5332 -5.47934,-54.49014 3.29871,-110.09455 -6.51758,-164.20508 -1.83702,-10.12625 3.19787,-28.08582 -10.51172,-30.125 -25.88897,-1.9573 -33.87963,53.8456 -32.79883,70.50586 z m -30.64648,132.91601 c 10.78714,7.15332 16.87307,22.424 30.73242,23.77735 9.77064,0.95409 19.50186,3.21827 15.69336,16.49609 -6.99518,24.38773 -7.4926,52.26758 -25.20312,71.86328 -16.49704,18.25306 -33.27264,38.94773 -56.53125,47.17774 -10.94955,3.87448 -20.55274,-8.98075 -30.61133,-14.05664 -26.15926,-13.20081 -50.18011,-31.85246 -68.07422,-55.33594 -9.09615,-11.93741 -12.06543,-27.66197 -8.64649,-42.48828 17.94795,-77.98949 82.6756,-85.6997 142.64063,-47.4336 z"
         sodipodi:nodetypes="cccccssscssssccccscccsssssscc"
         transform="matrix(0.46813238,0,0,0.46813238,-411.61728,-625.73877)" />
    </g>
  </g>
</svg>
