<?xml version="1.0" encoding="UTF-8" standalone="no"?>
<svg
   xmlns:dc="http://purl.org/dc/elements/1.1/"
   xmlns:cc="http://creativecommons.org/ns#"
   xmlns:rdf="http://www.w3.org/1999/02/22-rdf-syntax-ns#"
   xmlns:svg="http://www.w3.org/2000/svg"
   xmlns="http://www.w3.org/2000/svg"
   xmlns:xlink="http://www.w3.org/1999/xlink"
   xmlns:sodipodi="http://sodipodi.sourceforge.net/DTD/sodipodi-0.dtd"
   xmlns:inkscape="http://www.inkscape.org/namespaces/inkscape"
   width="210mm"
   height="297mm"
   viewBox="0 0 210 297"
   version="1.1"
   id="svg46"
   inkscape:version="1.0.2 (e86c870879, 2021-01-15)"
   sodipodi:docname="throwthosepicturesdownthelane-v1.svg">
  <defs
     id="defs40">
    <inkscape:path-effect
       effect="powerstroke"
       id="path-effect108"
       is_visible="true"
       lpeversion="1"
       offset_points="0,0.1322915"
       sort_points="true"
       interpolator_type="CubicBezierJohan"
       interpolator_beta="0.2"
       start_linecap_type="zerowidth"
       linejoin_type="extrp_arc"
       miter_limit="4"
       scale_width="1"
       end_linecap_type="zerowidth" />
    <inkscape:path-effect
       effect="powerstroke"
       id="path-effect95"
       is_visible="true"
       lpeversion="1"
       offset_points="0.2,0.04597665 | 2,0.04597665 | 3.8,0.04597665"
       sort_points="true"
       interpolator_type="CentripetalCatmullRom"
       interpolator_beta="0.2"
       start_linecap_type="zerowidth"
       linejoin_type="round"
       miter_limit="4"
       scale_width="4"
       end_linecap_type="zerowidth" />
    <inkscape:path-effect
       effect="powerstroke"
       id="path-effect93"
       is_visible="true"
       lpeversion="1"
       offset_points="0.2,0.04597665 | 1,0.04597665 | 1.8,0.04597665"
       sort_points="true"
       interpolator_type="CentripetalCatmullRom"
       interpolator_beta="0.2"
       start_linecap_type="zerowidth"
       linejoin_type="round"
       miter_limit="4"
       scale_width="4"
       end_linecap_type="zerowidth" />
    <inkscape:path-effect
       effect="powerstroke"
       id="path-effect91"
       is_visible="true"
       lpeversion="1"
       offset_points="0,0.17377"
       sort_points="true"
       interpolator_type="CubicBezierJohan"
       interpolator_beta="0.2"
       start_linecap_type="zerowidth"
       linejoin_type="extrp_arc"
       miter_limit="4"
       scale_width="1"
       end_linecap_type="zerowidth" />
    <inkscape:path-effect
       effect="powerstroke"
       id="path-effect85"
       is_visible="true"
       lpeversion="1"
       offset_points="0,0.17377"
       sort_points="true"
       interpolator_type="CubicBezierJohan"
       interpolator_beta="0.2"
       start_linecap_type="square"
       linejoin_type="miter"
       miter_limit="4"
       scale_width="1"
       end_linecap_type="zerowidth" />
    <inkscape:path-effect
       effect="powerstroke"
       id="path-effect69"
       is_visible="true"
       lpeversion="1"
       offset_points="0,0.17377"
       sort_points="true"
       interpolator_type="CubicBezierJohan"
       interpolator_beta="0.2"
       start_linecap_type="zerowidth"
       linejoin_type="extrp_arc"
       miter_limit="4"
       scale_width="1"
       end_linecap_type="zerowidth" />
    <inkscape:path-effect
       effect="powerstroke"
       id="path-effect65"
       is_visible="true"
       lpeversion="1"
       offset_points="0,0.17377"
       sort_points="true"
       interpolator_type="CubicBezierJohan"
       interpolator_beta="0.2"
       start_linecap_type="zerowidth"
       linejoin_type="extrp_arc"
       miter_limit="4"
       scale_width="1"
       end_linecap_type="zerowidth" />
    <inkscape:path-effect
       effect="powerstroke"
       id="path-effect61"
       is_visible="true"
       lpeversion="1"
       offset_points="0,0.17377"
       sort_points="true"
       interpolator_type="CubicBezierJohan"
       interpolator_beta="0.2"
       start_linecap_type="zerowidth"
       linejoin_type="extrp_arc"
       miter_limit="4"
       scale_width="1"
       end_linecap_type="zerowidth" />
    <inkscape:path-effect
       effect="powerstroke"
       id="path-effect57"
       is_visible="true"
       lpeversion="1"
       offset_points="0,0.17377"
       sort_points="true"
       interpolator_type="CubicBezierJohan"
       interpolator_beta="0.2"
       start_linecap_type="zerowidth"
       linejoin_type="extrp_arc"
       miter_limit="4"
       scale_width="1"
       end_linecap_type="zerowidth" />
    <inkscape:path-effect
       effect="powerstroke"
       id="path-effect53"
       is_visible="true"
       lpeversion="1"
       offset_points="0,0.17377"
       sort_points="true"
       interpolator_type="CubicBezierJohan"
       interpolator_beta="0.2"
       start_linecap_type="zerowidth"
       linejoin_type="extrp_arc"
       miter_limit="4"
       scale_width="1"
       end_linecap_type="zerowidth" />
    <inkscape:path-effect
       effect="powerstroke"
       id="path-effect49"
       is_visible="true"
       lpeversion="1"
       offset_points="0,0.17377"
       sort_points="true"
       interpolator_type="CubicBezierJohan"
       interpolator_beta="0.2"
       start_linecap_type="zerowidth"
       linejoin_type="extrp_arc"
       miter_limit="4"
       scale_width="1"
       end_linecap_type="zerowidth" />
    <inkscape:path-effect
       effect="powerstroke"
       id="path-effect45"
       is_visible="true"
       lpeversion="1"
       offset_points="0,0.17377"
       sort_points="true"
       interpolator_type="CubicBezierJohan"
       interpolator_beta="0.2"
       start_linecap_type="zerowidth"
       linejoin_type="extrp_arc"
       miter_limit="4"
       scale_width="1"
       end_linecap_type="zerowidth" />
    <inkscape:path-effect
       effect="powerstroke"
       id="path-effect40"
       is_visible="true"
       lpeversion="1"
       offset_points="0.11352874,0.1737697"
       sort_points="true"
       interpolator_type="CubicBezierJohan"
       interpolator_beta="0.2"
       start_linecap_type="zerowidth"
       linejoin_type="extrp_arc"
       miter_limit="4"
       scale_width="1"
       end_linecap_type="zerowidth" />
    <inkscape:path-effect
       effect="powerstroke"
       id="path-effect35"
       is_visible="true"
       lpeversion="1"
       offset_points="0,0.1322915"
       sort_points="true"
       interpolator_type="CubicBezierJohan"
       interpolator_beta="0.2"
       start_linecap_type="zerowidth"
       linejoin_type="extrp_arc"
       miter_limit="4"
       scale_width="1"
       end_linecap_type="zerowidth" />
    <inkscape:path-effect
       effect="powerstroke"
       id="path-effect76"
       is_visible="true"
       lpeversion="1"
       offset_points="0,0.1322915"
       sort_points="true"
       interpolator_type="CubicBezierJohan"
       interpolator_beta="0.2"
       start_linecap_type="zerowidth"
       linejoin_type="extrp_arc"
       miter_limit="4"
       scale_width="1"
       end_linecap_type="zerowidth" />
    <inkscape:path-effect
       effect="powerstroke"
       id="path-effect72"
       is_visible="true"
       lpeversion="1"
       offset_points="0,0.1322915"
       sort_points="true"
       interpolator_type="CubicBezierJohan"
       interpolator_beta="0.2"
       start_linecap_type="zerowidth"
       linejoin_type="extrp_arc"
       miter_limit="4"
       scale_width="1"
       end_linecap_type="zerowidth" />
    <inkscape:path-effect
       effect="powerstroke"
       id="path-effect67"
       is_visible="true"
       lpeversion="1"
       offset_points="0,0.1322915"
       sort_points="true"
       interpolator_type="CubicBezierJohan"
       interpolator_beta="0.2"
       start_linecap_type="zerowidth"
       linejoin_type="extrp_arc"
       miter_limit="4"
       scale_width="1"
       end_linecap_type="zerowidth" />
    <inkscape:path-effect
       effect="powerstroke"
       id="path-effect62"
       is_visible="true"
       lpeversion="1"
       offset_points="0,0.1322915"
       sort_points="true"
       interpolator_type="CubicBezierJohan"
       interpolator_beta="0.2"
       start_linecap_type="zerowidth"
       linejoin_type="extrp_arc"
       miter_limit="4"
       scale_width="1"
       end_linecap_type="zerowidth" />
    <inkscape:path-effect
       effect="powerstroke"
       id="path-effect34"
       is_visible="true"
       lpeversion="1"
       offset_points="0,0.1322915"
       sort_points="true"
       interpolator_type="CubicBezierJohan"
       interpolator_beta="0.2"
       start_linecap_type="zerowidth"
       linejoin_type="extrp_arc"
       miter_limit="4"
       scale_width="1"
       end_linecap_type="zerowidth" />
    <inkscape:path-effect
       effect="powerstroke"
       id="path-effect29"
       is_visible="true"
       lpeversion="1"
       offset_points="0,0.1322915"
       sort_points="true"
       interpolator_type="CubicBezierJohan"
       interpolator_beta="0.2"
       start_linecap_type="zerowidth"
       linejoin_type="extrp_arc"
       miter_limit="4"
       scale_width="1"
       end_linecap_type="zerowidth" />
    <clipPath
       clipPathUnits="userSpaceOnUse"
       id="clipPath61">
      <use
         x="0"
         y="0"
         xlink:href="#g57"
         id="use63" />
    </clipPath>
    <clipPath
       clipPathUnits="userSpaceOnUse"
       id="clipPath27">
      <use
         x="0"
         y="0"
         xlink:href="#g23"
         id="use29" />
    </clipPath>
  </defs>
  <sodipodi:namedview
     id="base"
     pagecolor="#ffffff"
     bordercolor="#666666"
     borderopacity="1.0"
     inkscape:pageopacity="0.0"
     inkscape:pageshadow="2"
     inkscape:zoom="0.7"
     inkscape:cx="450.36904"
     inkscape:cy="486.94769"
     inkscape:document-units="mm"
     inkscape:current-layer="layer1"
     inkscape:document-rotation="0"
     showgrid="false"
     inkscape:window-width="1022"
     inkscape:window-height="748"
     inkscape:window-x="3"
     inkscape:window-y="18"
     inkscape:window-maximized="0"
     showguides="false"
     inkscape:snap-global="false" />
  <metadata
     id="metadata43">
    <rdf:RDF>
      <cc:Work
         rdf:about="">
        <dc:format>image/svg+xml</dc:format>
        <dc:type
           rdf:resource="http://purl.org/dc/dcmitype/StillImage" />
        <dc:title />
      </cc:Work>
    </rdf:RDF>
  </metadata>
  <g
     inkscape:label="Layer 1"
     inkscape:groupmode="layer"
     id="layer1">
    <a
       id="a53"
       style="opacity:1"
       transform="rotate(57.357635,115.14045,134.98906)">
      <g
         id="g59"
         clip-path="url(#clipPath61)">
        <g
           inkscape:label="Clip"
           id="g57">
          <g
             id="g25"
             clip-path="url(#clipPath27)">
            <g
               inkscape:label="Clip"
               id="g23" />
          </g>
        </g>
      </g>
    </a>
    <path
       style="fill:#00ff00;fill-rule:nonzero;stroke:none;stroke-width:0.0700042;stroke-linecap:butt;stroke-linejoin:miter;stroke-opacity:1"
       d="m 52.91137,151.73003 4.84463,-2.77165 -2.138493,-3.9836 -2.43943,-8.07033 -4.426226,1.31163 -0.232478,4.00524 0.680496,2.94728 1.91831,4.21983 z"
       id="path490" />
    <path
       id="path64"
       style="opacity:1;fill:#000000;fill-rule:evenodd;stroke:none;stroke-width:0.264583"
       d="m 154.75995,81.028179 c -0.0192,-0.03744 -0.0383,-0.06964 -0.0623,-0.09328 -2.99471,0.525868 -3.806,1.066364 -5.87169,2.131869 -1.27998,-2.377629 -4.74052,-2.377802 -6.28683,-1.928764 -1.54109,-1.695747 -2.65678,-1.956536 -4.31246,-3.639644 -2.61631,3.889691 -2.8809,6.127439 -3.08634,9.886932 -0.0593,1.08503 -0.2197,1.044411 -1.18797,1.295505 -3.67842,0.953869 -0.45968,0.588292 2.4681,5.530513 0,0 -0.12523,2.167783 -1.35171,3.045092 -0.5771,0.412785 -4.31342,1.155776 -4.31342,1.155776 0,0 -2.66249,-3.518248 -11.95347,-3.328122 -1.42365,0.0292 -10.41824,-3.071324 -21.0619,0.963017 -0.339148,0.128536 -2.503964,-3.112271 -11.582254,-1.616201 -10.057263,1.657404 -13.87717,0.406865 -14.45795,0.162056 0.03875,0.02007 0.08425,0.04424 0.14701,0.08196 0.214852,0.12934 -3.562593,-1.657185 -9.252532,-1.170499 -1.153197,0.09864 -1.135553,1.7018 -0.683739,2.012724 0.162209,0.11159 -1.416596,-0.406321 -1.623808,-0.10438 -0.579127,0.843862 -0.708212,1.686054 -0.143799,2.227157 -1.008389,-0.02762 -1.086718,2.54749 -0.05441,2.66944 -0.109063,0.84724 -0.123761,1.44362 0.204833,1.85839 0.178092,0.22482 3.059325,0.76377 5.190608,0.7549 2.794475,-0.0115 4.274472,-1.94286 -0.443746,4.80167 -0.865314,1.23694 -1.096368,5.42359 1.046371,2.06558 0.879049,-1.37763 2.924247,-3.1559 5.546444,-5.40072 0.861059,-0.73713 2.396352,-2.34326 3.718657,-2.52689 2.19546,-0.30487 16.587591,1.39443 19.486455,0.85809 0.743205,-0.13751 13.75146,4.2917 22.99593,1.91538 0.76158,-0.19576 3.13542,-0.0134 4.56743,0.49867 -5.36078,11.30301 -6.73119,23.88163 -10.67975,34.0812 -2.31505,3.39287 -5.95841,6.97198 -9.6148,9.53059 -6.814924,4.76882 -10.186181,7.51013 -23.567958,8.19958 -2.171367,0.11187 -28.825345,2.82513 -24.578125,-32.94475 0.202605,-1.70622 -0.591685,-1.34652 -1.909917,0.8276 -2.087507,3.44288 -4.454427,9.90294 -3.631057,17.99911 0.644905,6.34133 7.82633,14.53506 13.064949,17.11837 8.507621,4.19533 22.185723,3.41757 28.425826,1.33564 13.264592,-4.42554 18.477172,-8.24497 24.070262,-14.18882 2.55138,4.97973 6.9934,9.39358 10.17168,15.50741 0.22842,0.43946 0.28677,0.0972 -1.38073,0.83842 -0.21188,0.0942 -3.20196,-3.45297 -13.64186,-2.19013 -2.35964,0.28543 -5.08525,1.43868 -13.9274,-1.58684 -5.899123,16.5195 -10.399524,21.33136 -11.575334,23.46477 -0.540901,0.98145 -4.257471,7.89625 -2.813357,8.62214 -0.325675,0.0758 -1.647092,0.45895 -0.87199,2.03021 -0.511964,0.6222 -0.177922,1.27015 0.174022,1.52096 -1.045735,1.11751 3.173385,2.84877 3.64557,2.22206 0.01744,-0.0284 0.879344,-0.10218 1.267045,-0.48514 0.266025,-0.2628 1.729041,-1.28942 3.059137,-4.34687 0.418234,-0.96136 1.501782,-2.2832 1.538336,-6.68173 0,0 2.830241,-5.6672 8.004524,-13.86278 0.716023,-1.13411 1.048118,-2.91735 1.891677,-4.17283 0,0 5.25028,1.95142 11.46958,1.84364 -2.11674,0.7232 -5.82467,1.58598 -8.51701,2.63151 0.86769,2.56499 3.03201,5.45578 2.33583,15.16126 -0.43959,6.12802 -0.79038,7.5346 -0.9865,9.82815 -0.10942,1.27952 1.84751,3.26373 3.42875,3.52758 1.44215,0.24066 6.30743,1.10881 6.01877,-0.26593 0.90263,0.95761 1.61891,0.47325 1.80803,-0.30452 0.68879,0.49887 1.31746,0.0354 1.80154,-0.38076 0.70005,-0.60185 1.39317,-0.58629 0.57868,-3.28328 -0.15238,-0.50458 -0.57006,-0.29751 -0.70623,-0.1435 -0.16063,0.18174 -0.25284,-1.4614 -1.04952,-1.5407 -1.57828,-0.15709 -2.25503,-1.00683 -5.13208,-1.42327 -0.77984,-0.11288 0.74819,-17.4424 0.25007,-17.87573 -1.00285,-0.87232 22.82385,-0.86553 30.01274,-5.58831 0.6486,-0.42616 1.17749,-0.77374 1.62389,-1.47532 0.54486,-0.85629 2.35188,-4.3705 -7.51517,-19.98176 0,0 3.47803,-4.92898 3.69673,-14.64497 3.71731,-5.5018 6.33964,-10.07062 7.90297,-13.37368 0.0352,-0.0124 0.0788,-0.0267 0.10805,-0.0373 -0.0268,0.005 -0.0665,0.01 -0.0976,0.0153 1.3016,-2.75364 1.86713,-4.62684 1.69065,-5.39296 1.08346,0.48813 -1.97427,12.54719 4.66666,22.2489 0.98835,1.44407 -2.63009,2.86095 1.78207,14.75378 1.33281,3.59232 1.51093,5.76482 2.79353,10.91404 0.007,0.0269 -0.73264,2.84896 -0.58328,3.53696 0.1688,0.77751 1.40149,2.53554 2.1111,3.64221 0.14852,0.23164 1.20917,1.92993 1.88751,3.18805 0.0283,0.0517 -2.89394,0.5578 -0.39516,0.89873 -1.43423,0.73877 -3.00154,0.3744 -2.94734,0.82813 0.0441,0.3695 1.44022,0.47199 2.57747,0.48277 0.0425,0.009 -0.0173,0.0123 -0.10446,0.0841 -0.47456,0.3883 -2.77343,0.96326 -2.78483,1.11249 -0.0294,0.38471 0.90788,0.38702 1.85965,0.49458 1.02527,0.11594 3.16658,0.57297 3.30572,0.4336 0.058,-0.0581 -1.12934,2.59032 -0.53918,2.45588 0.15364,-0.035 0.80271,-1.62757 1.24843,-1.52878 0.6549,0.14517 2.34826,-3.80002 0.96597,-4.57465 -0.8832,-0.49495 -1.87829,-0.53311 -2.48464,-0.49498 0.27005,-0.20221 0.50073,-0.60989 0.34063,-1.24061 -0.54901,-1.06426 -0.90223,-2.01152 -1.09191,-2.87534 -0.0557,-0.25364 1.45363,3.71783 1.94102,3.96999 0.32789,0.16965 1.00595,0.4326 1.62047,0.47473 0.5695,0.0391 1.26859,-2.48776 -0.11592,-7.95839 -0.25111,-0.99221 -0.7627,-2.09763 -1.36576,-4.21089 -0.006,-6.85237 1.16597,-18.10677 -2.92986,-23.70812 -0.36278,-4.47809 -0.79626,-6.73804 -1.04665,-11.22112 -0.1325,-2.37224 -2.07048,-5.93127 -3.24286,-12.85331 -0.25181,-1.48675 0.0477,-3.21279 -0.38978,-4.26343 -1.59948,-3.84094 -5.25276,-4.53658 -5.25276,-4.53658 0,0 -3.46604,-3.35713 -4.04791,-4.99905 -0.17136,-0.483563 0.79506,-2.012949 1.51516,-3.055284 0.29643,-0.143809 0.62123,-0.292358 1.0409,-0.456881 2.8937,-1.134139 7.55812,-0.853805 4.2002,-2.850082 -0.80784,-0.835555 -1.02295,-1.513881 -0.40087,-2.206583 2.38825,-2.659413 2.68307,-10.146277 2.38219,-10.724639 z m -0.67968,0.944135 c -0.12104,4.084735 -2.82684,7.940992 -2.82684,7.940992 -3.36031,-1.219884 -2.54806,-5.563369 -2.54806,-5.563369 0,0 2.56519,-1.65729 5.3749,-2.377623 z m -4.38541,8.831354 c 0.64935,1.027403 0.65576,1.970277 0.65576,1.970277 -0.79609,-0.322066 -2.08258,-0.418621 -3.12282,-0.440282 l 1.74002,-0.02652 -0.015,-0.998696 c 0,0 -3.24021,-0.387394 -3.68542,-0.09033 -0.44521,0.297062 -1.93877,4.396309 -1.93877,4.396309 0,0 -2.00068,-0.529162 -2.11696,-0.93364 0.66263,-1.94719 1.42456,-3.286353 1.14825,-4.069741 -0.2763,-0.783388 -3.27139,-2.091076 -3.27139,-2.091076 l -0.49465,0.867961 1.42389,0.822198 c -0.58774,-0.218444 -0.75104,-0.04484 -0.75104,-0.04484 -0.88765,-0.553586 -4.5805,-1.038326 -4.5805,-1.038326 3.8406,-1.674637 3.16282,-1.140513 9.39849,-0.89234 3.3127,0.131841 4.8742,1.404656 5.61013,2.569053 z m 2.48634,4.250313 c 0.13897,0.218416 0.18849,0.368986 0.18849,0.368986 -1.70867,-0.09502 -4.86323,1.203234 -6.93846,2.232199 0.002,-0.0063 0.004,-0.01153 0.005,-0.01797 -0.17634,-3.089443 -1.93665,-2.270528 -0.28588,-5.335217 0.83752,-0.1236 -0.5519,1.416591 -0.16037,1.510542 1.58688,0.380787 2.92499,-0.601467 2.92499,-0.601467 1.53517,0.0156 3.4058,0.489412 4.26619,1.842927 z M 141.81838,82.175966 c 0,0 -1.48122,3.839139 -5.07918,4.729504 0,0 -0.0293,-4.949613 1.649,-8.429849 1.00993,1.170123 3.50575,1.979714 3.43018,3.700345 z m 5.95751,10.577412 c -0.56845,0.934336 -1.59274,0.886304 -2.46872,0.868269 0,0 0.2134,-0.926763 0.47285,-1.055285 0.39683,-0.196577 1.40067,-0.105498 1.99587,0.187016 z m -3.62795,1.383767 c -0.0308,0.295576 0.21941,0.578098 0.32822,0.810332 0.64535,1.377427 0.70176,2.658349 0.27575,3.482823 -0.60038,1.161936 -2.60354,1.065666 -3.09468,-0.41167 -0.48246,-1.451262 1.5548,-1.4242 1.89383,-2.299367 0.14565,-0.511505 0.36425,-1.054071 0.59688,-1.582118 z m -2.35602,-2.64429 c -0.12363,1.506837 -0.67016,2.142907 -1.8075,2.42265 -0.88807,0.226442 -1.51617,0.825638 -2.08419,1.515496 -1.29383,-2.156346 -2.89194,-5.077972 -2.89194,-5.077972 0,0 3.14223,-0.59901 4.06405,0.65173 1.06816,1.449293 2.12764,1.819355 2.1726,1.73999 0.35102,-0.619676 0.17292,-1.109987 0.54698,-1.251894 z m -0.47812,-0.201262 c 0.18572,0.319698 -0.38499,1.04012 -0.38499,1.04012 -0.81712,-0.50718 -1.69267,-0.730202 -1.4553,-1.942323 0.1731,-0.151401 1.41678,0.173158 1.84029,0.902203 z m -0.009,2.051016 c -0.15605,0.423767 -0.30981,0.835924 -0.40844,1.193219 0.0685,0.574956 0.67124,1.675733 0.51118,2.485121 -1.26793,2.602031 -3.65729,-0.936609 -2.81719,-1.946302 0.68707,-0.925576 2.05157,-1.120749 2.71239,-1.729494 9.7e-4,-9.37e-4 0.001,-0.0017 0.002,-0.0026 z m 7.33298,11.868191 c -2.49758,-1.76501 -5.58621,-0.9209 -8.13658,0.37428 0,0 -4.31875,-5.942631 -8.37394,-6.312688 -0.0418,-0.05943 1.60287,-0.701156 3.19546,-1.713064 0.0591,4.537712 0.0431,0.627261 1.80399,-1.407807 0,0 2.36722,3.405069 3.56148,3.473247 1.19425,0.06818 3.94774,-0.364302 3.94774,-0.364301 0.90008,2.340823 -2.93176,7.402463 1.18657,1.814983 2.21881,3.3724 2.77778,4.08327 2.81528,4.13535 z m 6.99364,11.94871 c 0.8308,1.45419 1.54044,5.8854 1.54044,5.8854 -1.42674,-2.79785 -4.75672,-5.78905 -1.88708,-6.1899 0.11126,-0.0155 0.22794,0.0968 0.34664,0.3045 z M 141.97959,99.149382 c -1.33483,1.001228 -2.8856,-1.130899 -2.47088,-0.981255 0.26494,0.112587 2.31529,0.796197 2.42816,0.918403 0.0205,0.02217 0.0341,0.04337 0.0428,0.06283 z m 13.12651,22.162788 c 2.62818,4.14724 3.58041,9.22481 1.03613,15.73913 -9.81292,-7.55529 -3.6904,-19.17858 -3.6904,-19.17858 1.18113,1.19441 1.7782,2.05704 2.65427,3.43945 z m -7.8692,-7.8499 c -0.01,0.11708 -0.11749,1.61885 -0.134,1.73653 -0.85874,0.29758 -0.62969,0.22242 -2.16621,0.95706 -1.5176,-2.04758 -3.67292,-4.05311 -3.67292,-4.05311 0.54027,1.67325 1.62773,3.71775 2.27887,4.90358 -0.7488,0.55857 -1.27865,0.97703 -1.279,0.99119 -0.65559,2.18137 -0.51293,2.28774 -2.19715,1.30308 -1.36494,-0.82266 -2.16169,-2.15369 -2.19601,-3.73957 0.0937,-3.56986 5.49955,-7.70883 7.21099,-6.27831 0.94479,1.00716 2.27421,2.79229 2.15543,4.17955 z m -4.93474,-4.39171 c -1.92664,0.59389 -2.90015,2.06093 -3.8844,3.66977 0.70891,-2.26288 -0.0374,-4.24467 -1.26381,-6.02166 -0.5347,-0.76649 -1.18288,-1.47513 -1.85762,-2.11052 -0.4801,-0.45211 -0.98063,-0.86998 -1.47573,-1.25663 2.88391,0.15595 4.97241,1.38511 6.3215,3.41133 3.90314,0.0776 7.16954,0.76352 2.16006,2.30771 z m 7.59209,11.66049 c -0.0792,-0.36419 -1.18478,-2.71758 0.17811,-2.88063 1.332,0.0778 0.36482,2.29796 -0.17811,2.88063 z m -3.03336,-4.91863 c -0.21127,1.33678 -0.28655,1.08645 -0.74954,2.48505 -0.38059,-0.90395 -0.27779,-0.85238 -0.78448,-1.58806 0.31698,-0.44619 0.84859,-0.61628 1.53402,-0.89699 z m 13.02722,23.69801 c 0.82141,2.22285 3.32824,11.88164 2.33295,15.71912 -0.17174,0.66216 -1.96104,0.60505 -1.96104,0.60505 z m -16.01937,-21.88454 c 1.07425,2.64092 2.28137,3.37545 -0.49232,2.89665 -2.35282,-0.40511 -0.97522,-0.2833 -0.63574,-2.19098 0.1432,-0.10537 0.65024,-0.33997 1.12806,-0.70567 z m -9.69124,-0.98746 c -0.84679,0.20611 -2.95437,-0.21295 -4.39755,-1.42259 -3.48523,-2.92124 1.25877,-3.44824 3.69514,-5.33237 -0.0317,-0.0811 -3.17084,0.44642 -5.88168,1.25884 -0.036,-0.19152 -0.0354,-0.39396 -0.0954,-0.59062 -0.3336,-1.09374 -0.91411,-2.0746 -1.5536,-3.28473 -0.32921,-0.623 0.0766,-0.86928 -0.0145,-1.40222 -0.1389,-0.33382 -0.61209,-0.33276 -0.74703,0.002 -0.12325,0.36465 -0.35952,0.3493 -0.62385,0.0234 4.20064,-3.44921 10.4339,-1.46194 12.19431,1.10876 2.71575,3.96577 0.86234,8.80297 -2.57583,9.63984 z m 9.52337,7.18907 c -1.23467,-0.0592 -2.05028,-0.10638 -2.90649,-0.15139 1.13881,-2.72039 0.43964,-3.49228 2.51327,-2.75603 0.25965,0.0408 0.50184,0.0654 0.72273,0.0802 1.35576,-0.16277 -0.0935,2.38805 -0.32951,2.82726 z m -3.40825,-0.20537 c -3.628,-0.18581 -3.51224,-0.0499 -0.61592,1.09609 -0.73738,1.8868 -1.62867,3.83582 -2.6553,5.81081 -2.80931,-0.25153 -5.14519,-1.95779 -0.52843,0.99822 -0.11544,0.2135 -0.23022,0.42681 -0.34873,0.6407 -1.15312,0.54699 -2.30149,0.75138 -3.39375,0.4924 0.89508,0.21223 1.70252,0.67547 2.39151,1.26837 -0.37374,2.27684 -0.88639,4.88087 -0.63961,7.00693 -5.24474,1.97995 -3.63568,0.89593 0.20288,1.16555 0.17098,0.78521 0.51684,1.08981 0.77158,1.85682 -0.40173,0.78869 -1.0219,2.09644 -1.5416,2.92985 -0.69004,1.10658 -4.49114,-6.53658 -5.357,-7.57633 -7.40418,-8.89116 3.66739,6.42681 6.28906,11.03274 2.74045,4.32597 5.43303,9.21041 6.40236,12.83253 -5.91804,-11.29283 -13.70013,-20.61944 -10.80626,-16.44919 0.83969,1.20999 5.88033,14.19576 5.07605,18.2204 0.56543,1.31491 -8.3455,6.11996 -22.6007,8.44591 6.95851,-0.55812 23.07013,-2.06064 17.56561,-0.76577 -5.50452,1.29487 -8.00113,0.84394 -22.15728,2.23541 3.56845,5.17078 1.13068,13.13637 1.00559,17.40156 -0.22014,0.17866 0.16534,-9.95266 0.30708,-11.38314 -1.42789,7.54526 -0.39021,9.16816 -4.94367,14.74473 0.002,-0.0291 4.22898,-8.50894 -1.13684,-22.51548 -0.31553,-0.82363 6.80322,-0.75104 10.3696,-3.00445 0.79254,-0.44842 1.53375,-0.91957 2.23881,-1.39484 -2.7294,6.17944 -0.9116,3.0074 4.61484,-3.06598 3.61237,-2.56858 5.02731,-3.39104 10.62242,-1.19951 0.29099,0.10851 -14.66968,-12.67143 -18.12297,-24.23754 0.98424,-2.52227 1.11866,-4.32043 2.13551,-5.37966 0.79345,2.6695 1.90765,5.35623 3.02797,7.32042 0.25297,0.43852 0.92026,0.11022 0.72281,-0.35561 -0.81954,-2.25782 0.94953,-4.81647 1.97413,-6.5178 1.15604,1.31627 2.87225,3.20035 4.47754,4.67721 0,0 -1.65581,-3.80629 -3.53314,-6.82622 0.21589,-1.84257 0.6982,-3.82435 1.11104,-5.47581 l 6.02574,0.33224 -5.51187,-2.32944 c 0.44363,-1.71673 0.92855,-3.52835 1.30992,-5.03983 l 6.05865,1.19795 -5.44558,-3.74351 c 0.21564,-0.95082 0.41314,-1.89028 0.56923,-2.78259 -0.0136,-0.46507 -0.1029,-0.96954 -0.20143,-1.37023 2.62833,-1.24415 1.69674,0.15509 3.49476,1.61108 3.26249,2.64186 6.39438,2.14002 8.07191,-0.84696 -0.3961,2.00754 1.46094,4.62512 2.92753,5.34773 1.30971,0.52061 0.40187,1.86781 -0.22405,3.59424 z m -30.63286,57.25986 c 0.012,-0.0639 0.0213,-0.1202 0.0338,-0.18488 -0.008,-0.0347 -0.0205,0.051 -0.0338,0.18488 z m 44.02757,-40.64537 c 0,0 4.88164,14.12803 4.67136,16.14391 -1.13998,0.22476 -1.68634,1.11292 -1.95473,0.35431 -1.42241,-7.42461 -3.40668,-12.85419 -2.71663,-16.49822 z M 142.48412,125.8656 c -1.17123,1.80712 -2.47622,3.39653 -3.82972,4.59438 -0.36629,0.077 -0.74881,0.10203 -1.13147,0.0951 0.99984,-1.92061 1.87635,-3.81426 2.61359,-5.65462 0.68326,0.27239 1.45052,0.58321 2.3476,0.9651 z m -15.33758,-14.5874 c -0.64553,0.20518 -1.25419,0.42628 -1.77452,0.65863 -0.066,-0.19708 -0.12859,-0.39547 -0.18158,-0.60538 -0.2513,-1.20296 -0.3201,-2.75777 0.37966,-3.75109 0.97452,1.09744 1.33923,2.40837 1.57644,3.69784 z m -2.49027,-4.64732 c -0.5312,0.92119 -1.44083,1.67248 -2.13363,2.4002 0.14585,-0.91311 0.67481,-2.03408 1.68546,-2.79615 0.1571,-0.11845 0.54775,0.22326 0.44817,0.39595 z m -7.10268,-10.093623 c 0.38583,0.815491 1.47756,4.277563 0.15845,4.465623 -1.62778,0.23207 -6.90655,-2.936268 -11.62527,-1.99184 -5.05224,1.01118 -6.308435,1.30798 -6.499229,0.592726 -0.614804,-2.304803 -1.740852,-2.137306 -1.353969,-2.357044 9.499668,-5.395505 19.320018,-0.709465 19.320018,-0.709465 z m 6.91303,11.551733 c -0.26698,1.15499 -0.28413,2.33468 0.0175,3.43037 0.0227,0.0817 0.0497,0.16036 0.0749,0.24048 -1.18218,-0.47334 -1.79459,-1.10118 -1.99306,-1.80652 0.73565,-0.66168 1.3164,-1.217 1.90064,-1.86433 z m 0.93151,6.05761 c 0.77561,1.04403 -0.008,2.45728 -0.29289,3.54453 l -0.60988,-0.41941 c -5.88231,-1.49251 -5.68299,-7.74272 0.0694,-2.84908 0,0 0.31066,-0.0924 0.83332,-0.27604 z m -8.11569,-10.73041 c -1.15435,1.18453 -12.39001,3.62567 -18.460343,-1.75289 7.575543,-3.072425 16.108593,-1.779326 18.460343,1.75289 z m 19.29239,32.16301 c 1.10121,1.70018 1.40117,3.58493 0.47648,4.13916 -0.58878,0.3529 -1.27456,0.68409 -1.97658,0.98507 0.006,-2.19769 0.003,-4.45599 0.43804,-6.4335 0.40695,0.40298 0.76407,0.84919 1.06206,1.30927 z m -12.12655,-15.08243 c -0.42133,1.70719 -0.87013,3.39215 -1.2671,4.92465 l -1.49006,-0.62946 c -5.16677,-0.19757 -5.51399,-10.49114 1.58722,-4.52645 z m 11.82232,21.84937 c -0.17787,0.45556 -0.15714,0.44205 -0.38181,0.91807 -0.10581,-0.44972 -0.45498,-0.51032 -0.57114,-1.09992 0.32627,0.044 0.64677,0.10355 0.95295,0.18185 z m -13.65783,-14.72812 c -0.37867,1.66263 -0.80619,3.21711 -1.03056,4.69704 -0.36625,-0.54458 -0.73547,-1.04987 -1.09823,-1.47207 -7.38225,5.3322 -4.22638,-5.95191 0.56314,-3.31137 z M 96.019289,96.132402 c 0.299402,0.415135 0.312172,0.862707 0.07254,1.261934 -0.981998,1.635967 -14.749844,3.378624 -15.359661,2.751354 -0.578768,-0.595328 -0.497871,-3.179291 -0.414078,-3.561755 9.909882,-3.004927 14.631908,-1.934156 15.701204,-0.451533 z m 24.683661,38.618268 c -1.00084,1.65392 -2.18045,3.34879 -2.47963,5.20364 -0.862,-1.79798 -1.59174,-3.767 -2.14009,-5.62586 0.7732,-0.4399 1.91383,-0.6513 3.72366,-0.62886 0,0 0.35383,0.42441 0.89606,1.05108 z m 6.56331,27.22553 c 0.36519,0.58246 0.4504,0.88364 0.13177,0.76617 -0.46822,-0.17263 -1.78972,-0.53385 -2.37092,-0.6384 -1.39182,-0.25038 -8.26815,-11.48372 -8.81759,-12.55331 -1.06254,-2.06845 9.08468,9.28022 11.05674,12.42554 z m -7.25485,1.36273 c 0.49377,0.8678 -0.69381,2.58098 -1.13483,2.70058 -10.51268,2.85083 -17.29956,-0.14587 -16.94078,0.12496 1.40634,1.06164 4.33626,2.5492 4.33626,2.5492 -6.749694,-0.74132 -8.05342,-4.8589 -7.892343,-4.41311 0.294525,0.81511 0.443936,1.68694 0.299063,2.47493 -0.817484,4.09103 -8.420785,16.82328 -8.895972,17.76435 -0.123254,-0.37336 3.177095,-7.89589 6.645094,-14.17334 -3.155473,4.73805 -4.464645,8.53194 -10.140704,10.59407 5.316069,-10.81747 6.403648,-9.68069 9.637572,-19.59381 0.29614,0.56872 6.16637,1.26756 10.60472,1.56363 -3.72784,4.87338 -3.03837,3.08917 4.31915,0.21646 1.52821,-0.65932 8.5948,-0.74267 9.16277,0.19208 z m -10.34211,-13.6897 c 0.46554,0.92632 -8.43632,6.99277 -9.17833,6.24757 -0.82022,-1.79736 -1.707925,-2.34873 -1.612667,-3.91152 2.794287,-1.60868 6.655287,-5.79505 8.000067,-5.78861 1.57592,0.008 2.13591,2.14919 2.79093,3.45256 z M 71.30865,95.406845 c 0.759652,1.012866 1.02464,5.160355 0.23817,5.083485 -0.552201,-0.054 -1.467282,-0.0151 -5.094303,1.16687 -0.334382,0.10896 -0.554736,0.15984 -0.626701,0.0381 -2.051365,-3.469243 -0.01812,-5.990385 0.715651,-7.198641 0.416487,-0.685803 4.395316,0.414328 4.767183,0.910146 z m 45.91861,104.029675 c -0.53443,0.14232 -0.52029,-2.51803 -0.16963,-2.58424 0.75124,0.23754 0.53474,2.42093 0.16963,2.58424 z M 92.506901,159.51741 c -2.250911,0.54772 -4.051803,2.43647 -5.404855,1.54623 0.0092,-0.0154 -0.270787,-2.3495 -0.565129,-4.04187 1.667922,-1.08756 2.587978,-0.80589 4.112241,-1.12878 0.467205,0.97286 2.352944,2.58106 1.857743,3.62442 z m 23.501849,40.7156 c -1.00967,0.25438 -1.47552,-4.37136 -0.47399,-4.39298 1.43483,0.62743 1.04878,4.08549 0.47399,4.39298 z m -1.80025,0.63953 c -1.4448,-0.1076 -1.50214,-5.1654 -0.43571,-5.27116 1.44629,0.53041 1.55048,5.21182 0.43571,5.27116 z m -1.74537,-4.24321 c 0.39407,0.53708 0.58966,1.66611 0.30065,4.1358 -0.18296,0.5006 -2.53117,0.14122 -3.15946,0.004 -0.91335,-1.57413 1.80622,-5.41328 2.85881,-4.13937 z M 79.264049,157.85906 c 0.536969,3.41618 0.886275,3.4048 0.328545,4.30388 -3.105225,0.0233 -4.497244,0.18597 -5.613297,0.0185 -0.818987,-0.12292 -0.317931,-2.34519 0.283309,-4.20425 0.990557,-0.76743 3.87064,-0.10475 5.001443,-0.11811 z m -11.786797,-0.98992 c -0.994948,3.26789 -0.968655,2.3797 -1.559896,3.98853 -8.749317,-3.04467 -8.80614,-5.31742 -11.85305,-8.08231 0,0 2.90068,-1.49598 3.914826,-2.77345 6.260976,6.41091 5.036761,4.36878 9.49812,6.86723 z m 18.184901,33.55073 c 0.73107,1.61784 0.229489,2.05806 -0.20066,2.23887 -2.273232,0.95557 -4.254587,-0.8132 -4.399075,-1.80321 -0.114065,-0.78154 0.416841,-1.83929 1.292902,-3.62357 1.520186,0.896 2.575759,1.57007 3.306833,3.18791 z M 52.673058,138.92314 c 0.259669,0.4039 0.43451,0.77714 0.392945,1.37029 -0.253117,0.21878 -1.896966,0.007 -3.908122,0.49418 -0.518192,-0.74481 0.12985,-0.85004 -0.165514,-1.50002 0.288195,-0.14767 2.386823,-0.75978 3.397587,-0.78821 0.100127,0.15077 0.196767,0.28898 0.283102,0.42376 z m 1.640288,5.01136 c -0.236672,0.19852 -3.738958,1.67819 -4.038572,1.92113 -0.358173,0.20282 -1.157496,-1.96123 -0.819988,-2.20078 0.960268,-0.73785 3.067775,-1.04854 4.246671,-1.2916 0.424916,0.41612 0.57828,1.04728 0.611889,1.57125 z m 1.400788,2.57192 c 0.313416,0.52082 0.427717,1.16435 0.820664,1.41911 -0.856576,0.85697 -1.578122,0.96447 -4.224709,2.30118 -1.087633,-1.39382 -0.903974,-0.72118 -1.405792,-1.99246 l 4.412594,-2.18894 c 0.166276,0.12739 0.292799,0.28749 0.397243,0.46111 z m 29.45157,48.71773 c 0.222746,1.91294 -5.541789,-1.51244 -4.880835,-2.54803 0.466612,-0.73111 4.658091,0.63509 4.880835,2.54803 z m -1.002353,1.26414 c 0.141431,0.5166 -1.239255,0.10718 -2.171471,-0.38761 -0.916329,-0.48635 -1.841088,-1.2364 -1.806425,-1.66462 0.03271,-0.40465 3.836463,1.53563 3.977896,2.05223 z m -0.711138,0.73099 c -0.04394,0.5845 -2.716579,-0.25672 -3.273112,-1.52661 0.413898,-0.28863 3.282295,1.40448 3.273112,1.52661 z"
       sodipodi:nodetypes="cccccsccsccssccsssccscssssssccssssssscssscsccccsscscccsssccsscssccscccccccccssccsccsccsssccssssccssscscccsccsccsscccsccscccccsssscccsccscsccsccscsccccccsscsccscccscccccccscccccscsssscccscccscsccssccccssccsscscccccccccccscccsccssscccssccscccccsscccccccccsccccccsccsscsccccccccccssccscscccccsscscssscscccscssccccscccccccssscscsccccccssccscsscssscssccsscccscscccsscccccccccssscsssccsccccccccscccccccccsccsccsscccccccccccccccccccscccccssccccccsccscs" />
  </g>
</svg>
