<?xml version="1.0" encoding="UTF-8" standalone="no"?>
<svg
   xmlns:dc="http://purl.org/dc/elements/1.1/"
   xmlns:cc="http://creativecommons.org/ns#"
   xmlns:rdf="http://www.w3.org/1999/02/22-rdf-syntax-ns#"
   xmlns:svg="http://www.w3.org/2000/svg"
   xmlns="http://www.w3.org/2000/svg"
   xmlns:xlink="http://www.w3.org/1999/xlink"
   xmlns:sodipodi="http://sodipodi.sourceforge.net/DTD/sodipodi-0.dtd"
   xmlns:inkscape="http://www.inkscape.org/namespaces/inkscape"
   width="210mm"
   height="297mm"
   viewBox="0 0 210 297"
   version="1.1"
   id="svg46"
   inkscape:version="1.0.2 (e86c870879, 2021-01-15)"
   sodipodi:docname="throwthosepicturesdownthelane-v1.svg">
  <defs
     id="defs40">
    <inkscape:path-effect
       effect="powerstroke"
       id="path-effect108"
       is_visible="true"
       lpeversion="1"
       offset_points="0,0.1322915"
       sort_points="true"
       interpolator_type="CubicBezierJohan"
       interpolator_beta="0.2"
       start_linecap_type="zerowidth"
       linejoin_type="extrp_arc"
       miter_limit="4"
       scale_width="1"
       end_linecap_type="zerowidth" />
    <inkscape:path-effect
       effect="powerstroke"
       id="path-effect95"
       is_visible="true"
       lpeversion="1"
       offset_points="0.2,0.04597665 | 2,0.04597665 | 3.8,0.04597665"
       sort_points="true"
       interpolator_type="CentripetalCatmullRom"
       interpolator_beta="0.2"
       start_linecap_type="zerowidth"
       linejoin_type="round"
       miter_limit="4"
       scale_width="4"
       end_linecap_type="zerowidth" />
    <inkscape:path-effect
       effect="powerstroke"
       id="path-effect93"
       is_visible="true"
       lpeversion="1"
       offset_points="0.2,0.04597665 | 1,0.04597665 | 1.8,0.04597665"
       sort_points="true"
       interpolator_type="CentripetalCatmullRom"
       interpolator_beta="0.2"
       start_linecap_type="zerowidth"
       linejoin_type="round"
       miter_limit="4"
       scale_width="4"
       end_linecap_type="zerowidth" />
    <inkscape:path-effect
       effect="powerstroke"
       id="path-effect91"
       is_visible="true"
       lpeversion="1"
       offset_points="0,0.17377"
       sort_points="true"
       interpolator_type="CubicBezierJohan"
       interpolator_beta="0.2"
       start_linecap_type="zerowidth"
       linejoin_type="extrp_arc"
       miter_limit="4"
       scale_width="1"
       end_linecap_type="zerowidth" />
    <inkscape:path-effect
       effect="powerstroke"
       id="path-effect85"
       is_visible="true"
       lpeversion="1"
       offset_points="0,0.17377"
       sort_points="true"
       interpolator_type="CubicBezierJohan"
       interpolator_beta="0.2"
       start_linecap_type="square"
       linejoin_type="miter"
       miter_limit="4"
       scale_width="1"
       end_linecap_type="zerowidth" />
    <inkscape:path-effect
       effect="powerstroke"
       id="path-effect69"
       is_visible="true"
       lpeversion="1"
       offset_points="0,0.17377"
       sort_points="true"
       interpolator_type="CubicBezierJohan"
       interpolator_beta="0.2"
       start_linecap_type="zerowidth"
       linejoin_type="extrp_arc"
       miter_limit="4"
       scale_width="1"
       end_linecap_type="zerowidth" />
    <inkscape:path-effect
       effect="powerstroke"
       id="path-effect65"
       is_visible="true"
       lpeversion="1"
       offset_points="0,0.17377"
       sort_points="true"
       interpolator_type="CubicBezierJohan"
       interpolator_beta="0.2"
       start_linecap_type="zerowidth"
       linejoin_type="extrp_arc"
       miter_limit="4"
       scale_width="1"
       end_linecap_type="zerowidth" />
    <inkscape:path-effect
       effect="powerstroke"
       id="path-effect61"
       is_visible="true"
       lpeversion="1"
       offset_points="0,0.17377"
       sort_points="true"
       interpolator_type="CubicBezierJohan"
       interpolator_beta="0.2"
       start_linecap_type="zerowidth"
       linejoin_type="extrp_arc"
       miter_limit="4"
       scale_width="1"
       end_linecap_type="zerowidth" />
    <inkscape:path-effect
       effect="powerstroke"
       id="path-effect57"
       is_visible="true"
       lpeversion="1"
       offset_points="0,0.17377"
       sort_points="true"
       interpolator_type="CubicBezierJohan"
       interpolator_beta="0.2"
       start_linecap_type="zerowidth"
       linejoin_type="extrp_arc"
       miter_limit="4"
       scale_width="1"
       end_linecap_type="zerowidth" />
    <inkscape:path-effect
       effect="powerstroke"
       id="path-effect53"
       is_visible="true"
       lpeversion="1"
       offset_points="0,0.17377"
       sort_points="true"
       interpolator_type="CubicBezierJohan"
       interpolator_beta="0.2"
       start_linecap_type="zerowidth"
       linejoin_type="extrp_arc"
       miter_limit="4"
       scale_width="1"
       end_linecap_type="zerowidth" />
    <inkscape:path-effect
       effect="powerstroke"
       id="path-effect49"
       is_visible="true"
       lpeversion="1"
       offset_points="0,0.17377"
       sort_points="true"
       interpolator_type="CubicBezierJohan"
       interpolator_beta="0.2"
       start_linecap_type="zerowidth"
       linejoin_type="extrp_arc"
       miter_limit="4"
       scale_width="1"
       end_linecap_type="zerowidth" />
    <inkscape:path-effect
       effect="powerstroke"
       id="path-effect45"
       is_visible="true"
       lpeversion="1"
       offset_points="0,0.17377"
       sort_points="true"
       interpolator_type="CubicBezierJohan"
       interpolator_beta="0.2"
       start_linecap_type="zerowidth"
       linejoin_type="extrp_arc"
       miter_limit="4"
       scale_width="1"
       end_linecap_type="zerowidth" />
    <inkscape:path-effect
       effect="powerstroke"
       id="path-effect40"
       is_visible="true"
       lpeversion="1"
       offset_points="0.11352874,0.1737697"
       sort_points="true"
       interpolator_type="CubicBezierJohan"
       interpolator_beta="0.2"
       start_linecap_type="zerowidth"
       linejoin_type="extrp_arc"
       miter_limit="4"
       scale_width="1"
       end_linecap_type="zerowidth" />
    <inkscape:path-effect
       effect="powerstroke"
       id="path-effect35"
       is_visible="true"
       lpeversion="1"
       offset_points="0,0.1322915"
       sort_points="true"
       interpolator_type="CubicBezierJohan"
       interpolator_beta="0.2"
       start_linecap_type="zerowidth"
       linejoin_type="extrp_arc"
       miter_limit="4"
       scale_width="1"
       end_linecap_type="zerowidth" />
    <inkscape:path-effect
       effect="powerstroke"
       id="path-effect76"
       is_visible="true"
       lpeversion="1"
       offset_points="0,0.1322915"
       sort_points="true"
       interpolator_type="CubicBezierJohan"
       interpolator_beta="0.2"
       start_linecap_type="zerowidth"
       linejoin_type="extrp_arc"
       miter_limit="4"
       scale_width="1"
       end_linecap_type="zerowidth" />
    <inkscape:path-effect
       effect="powerstroke"
       id="path-effect72"
       is_visible="true"
       lpeversion="1"
       offset_points="0,0.1322915"
       sort_points="true"
       interpolator_type="CubicBezierJohan"
       interpolator_beta="0.2"
       start_linecap_type="zerowidth"
       linejoin_type="extrp_arc"
       miter_limit="4"
       scale_width="1"
       end_linecap_type="zerowidth" />
    <inkscape:path-effect
       effect="powerstroke"
       id="path-effect67"
       is_visible="true"
       lpeversion="1"
       offset_points="0,0.1322915"
       sort_points="true"
       interpolator_type="CubicBezierJohan"
       interpolator_beta="0.2"
       start_linecap_type="zerowidth"
       linejoin_type="extrp_arc"
       miter_limit="4"
       scale_width="1"
       end_linecap_type="zerowidth" />
    <inkscape:path-effect
       effect="powerstroke"
       id="path-effect62"
       is_visible="true"
       lpeversion="1"
       offset_points="0,0.1322915"
       sort_points="true"
       interpolator_type="CubicBezierJohan"
       interpolator_beta="0.2"
       start_linecap_type="zerowidth"
       linejoin_type="extrp_arc"
       miter_limit="4"
       scale_width="1"
       end_linecap_type="zerowidth" />
    <inkscape:path-effect
       effect="powerstroke"
       id="path-effect34"
       is_visible="true"
       lpeversion="1"
       offset_points="0,0.1322915"
       sort_points="true"
       interpolator_type="CubicBezierJohan"
       interpolator_beta="0.2"
       start_linecap_type="zerowidth"
       linejoin_type="extrp_arc"
       miter_limit="4"
       scale_width="1"
       end_linecap_type="zerowidth" />
    <inkscape:path-effect
       effect="powerstroke"
       id="path-effect29"
       is_visible="true"
       lpeversion="1"
       offset_points="0,0.1322915"
       sort_points="true"
       interpolator_type="CubicBezierJohan"
       interpolator_beta="0.2"
       start_linecap_type="zerowidth"
       linejoin_type="extrp_arc"
       miter_limit="4"
       scale_width="1"
       end_linecap_type="zerowidth" />
    <clipPath
       clipPathUnits="userSpaceOnUse"
       id="clipPath61">
      <use
         x="0"
         y="0"
         xlink:href="#g57"
         id="use63" />
    </clipPath>
    <clipPath
       clipPathUnits="userSpaceOnUse"
       id="clipPath27">
      <use
         x="0"
         y="0"
         xlink:href="#g23"
         id="use29" />
    </clipPath>
  </defs>
  <sodipodi:namedview
     id="base"
     pagecolor="#ffffff"
     bordercolor="#666666"
     borderopacity="1.0"
     inkscape:pageopacity="0.0"
     inkscape:pageshadow="2"
     inkscape:zoom="0.9899495"
     inkscape:cx="450.36904"
     inkscape:cy="486.94769"
     inkscape:document-units="mm"
     inkscape:current-layer="layer1"
     inkscape:document-rotation="0"
     showgrid="false"
     inkscape:window-width="1022"
     inkscape:window-height="748"
     inkscape:window-x="3"
     inkscape:window-y="18"
     inkscape:window-maximized="0"
     showguides="false"
     inkscape:snap-global="false" />
  <metadata
     id="metadata43">
    <rdf:RDF>
      <cc:Work
         rdf:about="">
        <dc:format>image/svg+xml</dc:format>
        <dc:type
           rdf:resource="http://purl.org/dc/dcmitype/StillImage" />
        <dc:title />
      </cc:Work>
    </rdf:RDF>
  </metadata>
  <g
     inkscape:label="Layer 1"
     inkscape:groupmode="layer"
     id="layer1">
    <a
       id="a53"
       style="opacity:1">
      <g
         id="g59"
         clip-path="url(#clipPath61)">
        <g
           inkscape:label="Clip"
           id="g57">
          <g
             id="g25"
             clip-path="url(#clipPath27)">
            <g
               inkscape:label="Clip"
               id="g23" />
          </g>
        </g>
      </g>
    </a>
    <path
       style="fill:#00ff00;fill-rule:nonzero;stroke:none;stroke-width:0.0700042;stroke-linecap:butt;stroke-linejoin:miter;stroke-opacity:1"
       d="m 95.671282,196.41926 0.279283,-5.57445 -4.507891,-0.348 -8.111461,-2.29895 -1.283023,4.4346 3.247231,2.35616 2.848825,1.01673 4.588049,0.66083 z"
       id="path490" />
    <path
       id="path64"
       style="opacity:1;fill:#000000;fill-rule:evenodd;stroke:none;stroke-width:0.999999"
       d="m 344.21289,274.0957 c -0.15836,-0.0151 -0.29971,-0.0201 -0.42383,0.008 -4.43157,10.60293 -4.36535,14.28681 -5.18554,23.0332 -10.17638,-0.77356 -17.23177,10.23948 -18.95508,16.07617 -8.53856,1.44756 -11.64305,4.46667 -20.375,6.30469 7.04545,16.25631 13.62782,21.66038 25.17383,29.97851 3.33229,2.40072 2.876,2.82842 1.70117,6.42188 -4.46328,13.65143 0.93515,2.66228 22.63281,3.41992 0,0 6.64381,4.81791 6.93555,10.50977 0.13719,2.67821 -5.11524,16.08398 -5.11524,16.08398 0,0 -16.62494,1.30105 -34.96094,31.25781 -2.80941,4.59039 -31.01387,26.89538 -39.87304,68.99414 -0.28233,1.3414 -15.00972,1.62419 -28.75586,33.56641 -15.22847,35.38677 -26.99586,44.99446 -28.95899,46.34375 0.14287,-0.0824 0.31254,-0.17795 0.56055,-0.30078 0.84964,-0.4201 -12.53699,7.95976 -22.58789,27.06055 -2.03705,3.87121 3.10109,7.08335 5.01172,6.27929 0.68583,-0.28875 -4.18109,3.68006 -3.64258,4.95508 1.50501,3.56345 3.92218,5.69121 6.79492,4.99805 -2.14367,3.15295 5.89213,8.65201 8.38477,5.61523 2.47404,2.07432 4.34211,3.33692 6.33203,3.13672 1.07856,-0.10847 8.66765,-8.17944 12.98437,-14.98047 5.66026,-8.91711 2.53086,-17.56462 14.37696,11.20117 2.17258,5.27562 15.02583,14.54609 8.70703,0.88086 -2.5923,-5.60613 -4.08233,-15.74039 -5.88086,-28.66211 -0.59055,-4.24312 -2.57226,-12.40365 -0.46094,-16.98632 3.50551,-7.60872 38.2542,-49.94834 42.45703,-60.26758 1.07751,-2.64563 41.69309,-35.0156 52.97657,-69.28125 0.92957,-2.82286 6.34939,-10.00597 10.89843,-13.51953 25.04381,40.10395 62.2823,70.10881 86.69336,103.46875 6.07843,14.28468 10.04165,33.17646 10.73047,50.02929 1.28383,31.4109 3.13541,47.72873 -21.95117,91.72266 -4.07063,7.13858 -49.77371,97.49801 -154.95508,11.05859 -5.01713,-4.1232 -5.49163,-0.86201 -1.25976,7.76563 6.70148,13.66246 22.4357,34.36515 49.88086,48.25 21.49644,10.87532 62.21396,4.72414 81.11523,-6.68164 30.696,-18.52324 56.10563,-63.64028 62.20117,-87.74414 12.95732,-51.23758 11.42837,-75.61342 3.91406,-105.53125 21.04967,2.03198 44.1528,-3.10672 70.08985,-0.75782 1.86429,0.16895 0.89402,-0.71448 -0.14649,6.10352 -0.13228,0.86627 -17.51701,3.15103 -34.78125,38.95117 -3.90209,8.09163 -5.78836,19.11711 -33.44336,41.08985 40.54814,52.45188 46.68744,76.58441 51.08008,84.67578 2.02084,3.7223 16.45082,29.64739 21.70508,26.53125 -0.42266,1.19104 -1.89721,6.17762 4.68359,6.91406 0.93646,2.8978 3.67961,3.15564 5.19532,2.54687 1.42465,5.60633 15.53583,-4.29185 14.5039,-7.07226 -0.0548,-0.11339 1.46748,-3.00688 1.03907,-5.02149 -0.29405,-1.3824 -0.57874,-8.13146 -7.59766,-18.59765 -2.20698,-3.29095 -4.20482,-9.43417 -18.12891,-18.51758 0,0 -12.26635,-20.56088 -27.80078,-53.73633 -2.14964,-4.59084 -7.14791,-9.28317 -9.42383,-14.52734 0,0 16.91404,-12.73109 29.25,-32.74414 -2.01365,8.21101 -6.82701,21.77066 -8.98828,32.4707 9.93216,2.46762 23.54462,1.47285 53.01367,23.47461 18.60666,13.89192 22.36805,17.87586 29.26758,23.17578 3.84911,2.95673 14.15347,0.77376 18.2168,-3.7207 3.70594,-4.09913 16.38752,-17.81336 11.42383,-19.69727 4.88783,-0.92046 4.80657,-4.18752 2.71679,-6.375 2.99188,-1.17509 2.7986,-4.12069 2.46094,-6.50976 -0.48828,-3.45491 0.97428,-5.62908 -9.26953,-8.53516 -1.91652,-0.54372 -2.10901,1.20775 -1.89648,1.95508 0.25096,0.88172 -5.16644,-2.17459 -7.04297,0.19922 -3.71751,4.70271 -7.80153,5.1242 -14.99219,13.43164 -1.94906,2.25177 -53.98626,-37.94018 -56.38086,-37.23828 -4.82067,1.41328 43.77528,-74.40293 43.40039,-106.91016 -0.034,-2.93299 -0.062,-5.32481 -1.38476,-8.17578 -1.61439,-3.47974 -9.11473,-16.39494 -78.91407,-16.81836 0,0 -8.59634,-21.11753 -39.07226,-41.62109 -9.93152,-23.04684 -19.12606,-40.70683 -26.45117,-52.41602 0.0323,-0.13709 0.0756,-0.30506 0.10156,-0.41992 -0.0379,0.0961 -0.10359,0.23199 -0.15039,0.3418 -6.11012,-9.75616 -10.91879,-15.37481 -13.7168,-16.375 3.76229,-2.45303 35.90741,31.86263 80.32227,30.50585 6.61077,-0.20153 3.74333,14.20293 50.58789,24.40626 14.14994,3.08176 21.4272,6.94385 40.42968,13.35937 0.099,0.034 7.57342,8.13973 10.06753,9.06696 2.81858,1.04784 10.92667,0.70875 15.89536,0.70648 1.03998,-4.6e-4 8.60718,0.0862 13.99415,0.49219 0.22223,0.0151 -4.1245,10.34733 2.05468,3.08984 -0.57271,6.07064 -4.92756,10.31585 -3.37304,11.06836 1.26595,0.61281 4.43826,-3.62136 6.79101,-7.21875 0.11641,-0.11641 0.004,0.0801 0.0547,0.5039 0.26835,2.30193 -2.58841,10.79037 -2.13672,11.13086 1.16444,0.87787 3.08258,-2.10038 5.36523,-4.91015 2.45915,-3.02665 8.27906,-8.90977 8.11915,-9.63672 -0.0665,-0.30312 5.94154,8.87496 6.71679,6.72266 0.20183,-0.56032 -3.54337,-5.87273 -2.32031,-7.08985 1.79713,-1.78832 -7.30652,-15.22041 -12.58984,-12.40039 -3.37576,1.80178 -5.52582,4.89094 -6.64063,6.89844 -0.093,-1.2717 -0.92022,-2.83697 -3.2539,-3.61328 -4.5063,-0.42237 -8.24112,-1.22939 -11.37696,-2.38672 -0.92084,-0.33978 14.79565,2.95308 16.5918,1.91601 1.20839,-0.6977 3.42755,-2.3196 4.81445,-4.18945 1.28531,-1.73284 -5.33124,-9.10906 -25.56445,-15.85547 -3.66968,-1.22359 -8.23071,-1.849 -16.18572,-4.23792 -21.8197,-13.95153 -55.249,-40.6242 -81.42561,-39.00817 -14.99142,-7.97469 -23.06756,-11.20237 -37.8457,-19.54492 -7.81996,-4.41449 -23.09764,-5.50238 -47.51758,-15.88282 -5.24504,-2.22958 -10.1276,-6.70169 -14.36328,-7.45117 -15.4848,-2.73989 -25.14649,7.46875 -25.14649,7.46875 0,0 -17.75036,4.18689 -24.16211,2.69141 -1.88832,-0.44047 -4.78551,-6.63403 -6.63476,-11.05078 0.14664,-1.23659 0.33601,-2.5731 0.66797,-4.24414 2.28979,-11.52152 12.69109,-25.79482 -0.50782,-19.17774 -4.30611,0.86759 -6.90346,0.16932 -7.83984,-3.22265 -3.59493,-13.0224 -26.82133,-29.2238 -29.27539,-29.44532 z m 1.61914,4.08789 c 12.75318,8.71257 19.50977,25.18555 19.50977,25.18555 -10.73287,8.20749 -22.90039,-3.23242 -22.90039,-3.23242 0,0 -0.0449,-11.54253 3.39062,-21.95313 z m 19.16602,31.96094 c 4.59359,0.0279 7.60742,1.92969 7.60742,1.92969 -2.64795,1.87703 -5.57795,5.77453 -7.76758,9.04101 l 3.46289,-5.59179 -3.20898,-1.98828 c 0,0 -7.83857,9.52242 -7.80078,11.54492 0.0378,2.0225 10.03906,15.13281 10.03906,15.13281 0,0 -5.76277,5.2885 -7.28711,4.83399 -4.84618,-6.07852 -7.55486,-11.23348 -10.61133,-11.95118 -3.05647,-0.7177 -13.32422,6.14844 -13.32422,6.14844 l 1.75391,3.34375 5.51953,-2.85547 c -1.89341,1.42519 -1.67383,2.29883 -1.67383,2.29883 -3.57143,1.69643 -12.64258,12.46094 -12.64258,12.46094 2.5,-15.63695 2.81812,-12.39097 16.32032,-31.73047 7.17304,-10.27411 14.40721,-12.64885 19.61328,-12.61719 z m 18.5957,0.75195 c 0.97843,0.003 1.55859,0.15235 1.55859,0.15235 -3.7858,5.24425 -6.08507,17.93053 -7.04101,26.63281 -0.0171,-0.0178 -0.0294,-0.0349 -0.0469,-0.0527 -10.19186,-5.73707 -11.17426,1.5347 -17.5625,-9.9668 1.31406,-2.91746 3.38327,4.64438 4.48047,3.58984 4.44698,-4.27406 4.04883,-10.53515 4.04883,-10.53515 3.17933,-4.85398 8.50082,-9.84143 14.56252,-9.82035 z m -62.11133,6.72657 c 0,0 9.19862,12.54075 4.69727,25.80664 0,0 -15.81227,-9.99718 -23.4668,-22.4336 5.78289,-0.82869 13.44757,-7.12132 18.76953,-3.37304 z m 45.8086,2.60351 c 1.81473,3.71389 -0.42632,6.87586 -2.26954,9.62696 0,0 -2.51443,-2.56852 -2.39453,-3.65625 0.18338,-1.66369 2.51973,-4.6728 4.66407,-5.97071 z m -2.99219,14.36719 c 0.87798,0.70047 2.28713,0.48026 3.24805,0.60742 5.6994,0.75422 9.89103,3.18603 11.64648,6.22266 2.47396,4.27955 -1.91616,10.45846 -7.61914,9.00976 -5.60232,-1.42313 -1.36292,-7.85169 -3.45703,-10.71484 -1.33096,-1.50633 -2.61207,-3.30813 -3.81836,-5.125 z m -13.21875,2.10742 c 4.54359,3.46535 5.45373,6.50146 4.02539,10.69141 -1.0898,3.28798 -0.46329,6.50849 0.57422,9.72265 -9.50039,-0.27833 -22.05664,-1.14843 -22.05664,-1.14843 0,0 4.49953,-11.22153 10.35937,-11.60547 6.79008,-0.44489 10.12773,-3.06231 9.9668,-3.36719 -1.25654,-2.38047 -3.18009,-2.8132 -2.86914,-4.29297 z m -1.61524,1.11133 c 1.39607,0.0607 2.52539,3.3457 2.52539,3.3457 -3.27996,1.56658 -5.77469,3.89842 -9.14843,0.67188 -0.12894,-0.85958 3.43941,-4.15599 6.62304,-4.01758 z m 6.50977,4.20898 c 1.03055,1.36053 2.0288,2.69013 2.96484,3.73243 1.96952,0.95407 6.70155,1.27998 8.95117,3.43945 5.69627,9.3399 -10.43676,9.73014 -11.9375,4.99805 -1.545,-4.07359 0.61559,-8.81409 0.0254,-12.15821 -10e-4,-0.005 -0.003,-0.007 -0.004,-0.0117 z m 52.7207,0.85743 c -10.70896,4.35045 -14.31917,15.90107 -15.39648,26.6582 0,0 -27.71726,1.62977 -37.16211,13.78125 -0.27438,0.0119 1.03622,-6.53065 1.0625,-13.66211 14.56208,9.0627 2.08418,1.14158 -0.80274,-8.61133 0,0 15.66281,-0.5921 18.31446,-4.2539 2.65165,-3.66181 6.88867,-13.30665 6.88867,-13.30664 9.28478,1.90758 17.58198,24.42156 8.19531,-0.0762 15.25625,-0.18637 18.65819,-0.5161 18.90039,-0.52929 z m 52.28516,2.10156 c 6.32176,0.32048 21.87109,7.0957 21.87109,7.0957 -11.81296,-1.16313 -28.12134,3.33673 -23.54687,-6.61328 0.17737,-0.38579 0.77267,-0.52818 1.67578,-0.48242 z m -85.15039,6.73242 c 0.46523,6.28933 -9.48189,6.87809 -8.16016,5.86328 0.89842,-0.61364 7.25401,-5.74538 7.87305,-5.85547 0.11231,-0.02 0.20762,-0.0202 0.28711,-0.008 z m 97.29492,3.40625 c 18.55681,0.0904 36.65776,7.4113 52.20312,28.78906 -44.05033,15.82766 -68.56054,-27.35351 -68.56054,-27.35351 6.20923,-1.32406 10.17182,-1.46567 16.35742,-1.43555 z m -41.02539,9.04102 c 0.35218,0.27059 4.91258,3.67419 5.25345,3.96664 -0.80361,3.33967 -0.57586,2.45749 -1.37025,8.84523 -9.61043,0.65556 -20.3871,3.42641 -20.3871,3.42641 6.42666,1.69175 15.15036,2.39884 20.2518,2.74404 0.25114,3.52183 0.50274,6.06123 0.54709,6.09121 5.60581,6.53351 6.23521,6.29634 -0.33209,9.64912 -5.40082,2.66687 -11.26119,2.48907 -16.37835,-0.63476 -11.17017,-7.57604 -13.32215,-33.2183 -5.2804,-35.74873 5.13145,-0.9536 13.52295,-1.54533 17.69585,1.66084 z m -24.03711,6.75195 c -2.03765,7.34241 0.64664,13.43143 3.76032,19.84375 -5.75653,-6.86937 -13.58517,-8.53441 -21.74079,-8.25391 -3.52947,0.13909 -7.10619,0.75732 -10.50391,1.60938 -2.41763,0.60625 -4.76795,1.34734 -7.00781,2.13476 6.3756,-8.86028 14.54524,-13.00124 23.74414,-13.16406 8.2041,-12.26378 17.04616,-21.26097 11.74805,-2.16992 z m 52.58789,-0.39063 c -1.32053,-0.49038 -11.06423,-1.76957 -8.80469,-6.43945 2.96327,-4.08046 8.05715,3.52368 8.80469,6.43945 z m -21.83782,-0.37349 c 3.8237,3.39759 2.87353,3.12687 6.38079,7.45162 -3.65278,-0.6316 -3.27908,-0.85363 -6.65338,-0.74086 -0.77382,-1.91844 -0.23139,-3.9571 0.27259,-6.71076 z M 540.79102,377 c 8.74893,1.91742 44.59923,13.63019 54.7832,24.62109 1.75725,1.89649 -2.07227,7.47461 -2.07227,7.47461 z m -102.3069,6.36772 c 10.59491,1.96507 15.39351,-0.37924 8.2151,7.47212 -6.08588,6.66212 -2.88974,2.52614 -8.26901,-2.44336 -0.0434,-0.67058 0.24365,-2.76252 0.0539,-5.02876 z m -22.89976,28.82991 c -1.07034,3.11515 -6.70063,8.96836 -13.49256,11.09534 -16.40222,5.13657 -8.40804,-11.03589 -9.4375,-22.63086 -0.32279,-0.0644 -5.04347,11.00149 -7.98438,21.28516 -0.68297,-0.27577 -1.32604,-0.69036 -2.07422,-0.90039 -4.16098,-1.16807 -8.4661,-1.32018 -13.62109,-1.75201 -2.6539,-0.22232 -2.61048,-2.01582 -4.49222,-2.8125 -1.34556,-0.23851 -2.30685,1.26961 -1.51758,2.38086 0.90922,1.13566 0.37871,1.85629 -1.19729,2.0332 -2.41371,-20.40058 16.61835,-36.18697 28.38867,-36.54882 18.15779,-0.55822 29.77401,15.20175 25.42817,27.85002 z m 42.29455,-15.65271 c -2.70536,3.80878 -4.51837,6.30828 -6.40715,8.94146 -6.33617,-9.17026 -10.21814,-8.51873 -3.64754,-13.61724 0.65914,-0.7432 1.23133,-1.46372 1.72851,-2.13672 2.2459,-4.64661 7.40958,5.16586 8.32618,6.8125 z m -7.60185,10.42829 c -7.9876,11.16756 -7.31917,11.07613 2.23271,4.19476 4.50162,6.1933 8.88749,13.00327 13.08007,20.29687 -6.52772,8.42804 -16.72006,12.38367 2.09961,3.7168 0.44413,0.80266 0.88902,1.6028 1.32813,2.41602 -0.60996,4.78502 -2.30062,8.85644 -5.35156,11.80468 2.50016,-2.416 5.62055,-4.04133 8.9121,-5.02539 6.48428,5.83114 13.72666,12.7714 20.9961,16.32032 -4.39089,20.72816 -4.56053,13.39727 4.12305,1.73046 2.84754,1.05663 4.52204,0.57688 7.48242,1.3298 1.69105,2.88641 4.58873,7.52619 6.18164,10.87919 2.11503,4.45204 -29.95897,0.96755 -35.03321,1.60351 -43.39125,5.4383 27.93028,1.43032 47.9336,2.47657 19.35454,0.0975 40.38882,1.48586 53.89258,5.78515 -48.00503,-4.1876 -93.55252,1.56568 -74.38086,0.85743 5.56274,-0.20561 57.1669,10.22572 68.33594,20.99023 5.33749,0.88112 2.46361,39.03656 -19.19532,89.14648 12.40974,-23.28374 40.47387,-77.62314 33.37305,-57.46484 -7.10079,20.15826 -13.62562,27.18462 -38.05664,75.07422 23.73116,-0.81543 44.1124,23.18204 57.43164,32.27539 0.11981,1.06481 -31.33792,-20.81622 -35.60156,-24.18359 21.10231,19.92653 28.38276,19.93257 36.84765,45.79296 -0.0881,-0.0665 -18.45886,-30.80579 -73.97461,-42.2832 -3.26453,-0.67491 11.47918,-23.18279 11.57813,-39.12695 0.1886,-3.4365 0.20021,-6.75596 0.125,-9.96875 14.10217,21.28422 7.7128,9.03226 -0.34961,-20.9375 -0.81033,-16.73307 -0.54328,-22.91289 17.83789,-36.25195 0.93857,-0.70489 -70.23402,20.85458 -114.08398,8.26562 -6.02079,-8.27444 -11.46949,-12.36807 -12.76758,-17.76367 10.11343,2.91699 20.93558,4.84829 29.4707,5.28711 1.91134,0.0889 2.22688,-2.70412 0.3418,-3.02539 -8.85641,-1.99464 -13.39294,-12.84104 -16.71875,-19.57032 6.54587,-0.99574 16.04083,-2.61673 24.01367,-4.71484 0,0 -15.48938,-2.49 -28.92774,-2.67187 -5.42398,-4.44343 -10.74785,-10.01859 -15.1621,-14.69922 l 13.34179,-18.5 -18.65039,12.79297 c -4.55921,-4.91167 -9.33622,-10.14824 -13.36914,-14.44336 l 16.16406,-16.83985 -23.01562,9.69922 c -2.58643,-2.6247 -5.17369,-5.16848 -7.69531,-7.48437 -1.50792,-0.90473 -3.29541,-1.64905 -4.77149,-2.15235 1.39868,-10.90123 3.95264,-5.08381 12.25196,-7.83789 15.059,-4.99724 19.84668,-15.98775 13.76031,-27.41601 5.58165,5.35327 17.69809,4.77946 22.98773,1.5851 4.32691,-3.10692 6.7637,2.52883 10.98214,8.04045 z m 119.78349,214.22406 c -0.17877,-0.16857 -0.33906,-0.31294 -0.51953,-0.48438 -0.12737,-0.0446 0.1206,0.16931 0.51953,0.48438 z M 530.46094,398.21484 c 0,0 54.91534,13.266 60.90234,18.04493 -1.60872,4.08627 0.10405,7.63575 -2.85742,6.94335 -26.5291,-10.60928 -47.85434,-15.36322 -58.04492,-24.98828 z m -68.57617,6.35743 c 3.36353,7.41161 5.76151,14.80507 6.81445,21.55468 -0.50177,1.3227 -1.20185,2.59116 -2.00391,3.79493 -4.07413,-7.09751 -8.3139,-13.74756 -12.66797,-19.84571 2.25981,-1.61924 4.81318,-3.42742 7.85743,-5.5039 z m -77.69336,19.07421 c -0.66303,2.47273 -1.20019,4.86058 -1.52149,6.99024 -0.76168,-0.19186 -1.52078,-0.39698 -2.29687,-0.65625 -4.34081,-1.65265 -9.42934,-4.6034 -11.16407,-8.85547 5.47938,-0.86417 10.395,0.64765 14.98243,2.52148 z m -19.86719,-1.54882 c 1.84881,3.56856 2.3854,7.99515 3.28906,11.68359 -2.6087,-2.3257 -5.09788,-6.29441 -5.46289,-11.06445 -0.0567,-0.74146 1.82724,-1.28812 2.17383,-0.61914 z M 317.7207,424.125 c 3.38191,0.4346 16.62586,4.01804 14.53516,8.59961 -2.5799,5.6536 -23.42493,15.9945 -30.03906,32.9375 -7.08161,18.14055 -8.69796,22.74353 -11.36328,21.89258 -8.58856,-2.74204 -10.35111,1.18315 -10.26172,-0.4961 2.19498,-41.23288 37.1289,-62.93359 37.1289,-62.93359 z m 50.85742,1.54883 c 3.13155,3.20428 6.85101,5.66384 10.95313,6.9375 0.30626,0.0942 0.61162,0.16885 0.91797,0.25195 -3.91646,2.79738 -7.1631,3.46649 -9.8125,2.66016 -0.60611,-3.69019 -1.18952,-6.67056 -2.0586,-9.84961 z m 21.17774,9.38476 c 4.9039,-0.34 7.805,5.03367 10.68359,8.15821 l -2.57812,1.08593 c -16.74198,15.67816 -36.22735,2.30179 -8.92578,-6.02929 0,0 0.33924,-1.17707 0.82031,-3.21485 z m -50.69531,3.95313 c 1.41654,6.08863 -13.71998,46.8235 -43.21289,55.17773 5.66569,-30.37327 27.177,-54.8941 43.21289,-55.17773 z m 141.6914,4.16992 c 7.65589,-0.0386 14.26575,2.84912 14.14453,6.92188 -0.0772,2.59326 -0.42124,5.45098 -0.89453,8.29882 -6.98222,-4.49916 -14.17441,-9.09525 -19.58203,-14.50976 2.11216,-0.47361 4.26028,-0.70051 6.33203,-0.71094 z m -72.72265,7.8457 c 4.57429,4.82128 9.02186,9.68466 13.08984,14.07227 l -5.04102,3.45898 c -11.16204,16.0408 -44.62987,-3.83916 -11.16992,-14.27929 z m 93.63867,6.91797 c 1.08722,1.49483 1.08646,1.4013 2.14341,3.08678 -1.64697,-0.58009 -2.55168,0.40763 -4.6649,-0.42467 0.80526,-0.94861 1.64808,-1.8473 2.52149,-2.66211 z m -74.7168,13.44141 c 4.51944,4.59467 8.59513,9.12433 12.84766,12.85547 -2.47978,0.0554 -4.84064,0.20035 -6.92383,0.49414 1.9202,34.365 -27.55849,1.31687 -9.39062,-8.54297 z m -154.41992,20.44726 c 1.93157,-0.10655 3.38203,0.76525 4.16406,2.3418 3.20462,6.46044 -19.31711,53.83019 -22.55664,54.49219 -3.07459,0.62829 -11.1333,-4.89697 -12.17969,-5.94336 10.63943,-37.66485 23.6738,-50.51008 30.57227,-50.89063 z m 173.22656,0.17188 c 3.22338,6.55701 6.21258,13.76644 11.50586,18.5 -7.47953,-0.9221 -15.23372,-2.6138 -22.26758,-4.6582 0.17627,-3.35757 1.82882,-7.41866 5.58985,-13.13282 0,0 2.07205,-0.26088 5.17187,-0.70898 z m 100.02735,34.61523 c 2.59824,0.0252 3.73049,0.36801 2.70703,1.14258 -1.50394,1.1382 -5.34763,4.60758 -6.86524,6.24414 -3.63427,3.91914 -53.40355,2.90261 -57.92773,2.47071 -8.74912,-0.83524 48.05542,-9.99342 62.08594,-9.85743 z m -10.45313,25.86719 c 3.76845,0.19767 6.79969,7.46981 6.28125,9.11719 -12.35875,39.26914 -35.73204,54.7596 -34.13867,54.16992 6.24578,-2.31148 16.95312,-8.60353 16.95312,-8.60351 -16.11957,19.97005 -31.88189,15.72492 -30.13476,16.12109 3.19457,0.72438 6.27383,2.02623 8.48633,4.09375 11.3534,10.94188 36.37411,61.09651 38.40039,64.52734 -1.43951,-0.36888 -18.65218,-26.20828 -31.56055,-50.04297 8.64624,19.70174 18.0516,31.60269 13.04297,53.8711 -23.5897,-38.97181 -17.75464,-40.11561 -42.71094,-70.61719 2.41372,0.21694 16.6052,-17.04075 26.59571,-30.5625 7.91007,21.79922 3.6373,15.96756 9.49414,-13.30469 1.01717,-6.20775 15.15821,-28.86759 19.29101,-28.76953 z m -64.65234,5.00586 c 3.89714,0.40686 5.05621,41.105 1.17187,41.94727 -7.39234,-1.05377 -10.95685,0.64735 -15.73633,-2.8418 0.57684,-12.17254 -4.87531,-32.995 -2.11328,-37.26172 3.23676,-5.00008 11.19433,-2.41622 16.67774,-1.84375 z M 219.8457,568.99805 c 4.77218,-0.35276 18.51206,7.25919 16.66407,9.60547 -1.29752,1.64738 -3.03917,4.63904 -6.67188,18.59179 -0.33491,1.28633 -0.6222,2.09135 -1.15625,2.07227 -15.2231,-0.54397 -19.10172,-12.15464 -21.45117,-16.95313 -1.33354,-2.72361 10.27915,-13.14371 12.61523,-13.3164 z m 424.69336,65.9414 c -0.63656,1.99102 -9.07447,-3.47754 -8.57031,-4.72851 2.28749,-1.9066 8.7949,3.23361 8.57031,4.72851 z m -177.4414,-2.70703 c -2.84569,8.28027 -0.506,17.86224 -6.09766,20.35352 -0.0302,-0.0605 -8.02948,-3.92802 -14.01562,-6.44141 -0.0609,-7.52542 2.71121,-9.87933 4.79101,-15.38867 4.04869,0.49643 13.01125,-2.2265 15.32227,1.47656 z m 177.49218,8.2088 c -1.24882,3.73193 -16.9202,-4.21576 -14.94726,-7.44727 4.92197,-3.28731 15.14045,4.99109 14.94726,7.44727 z m -1.63476,7.0332 c -3.28788,4.37878 -19.50155,-5.7498 -17.66406,-9.35938 4.63655,-3.52159 19.74784,5.69056 17.66406,9.35938 z m -17.0625,-3.0957 c 2.51267,-0.15925 6.50464,1.52001 13.77539,7.47461 1.22021,1.60284 -4.71072,8.34353 -6.42969,10.0625 -6.87176,-0.30231 -13.54586,-16.78424 -7.3457,-17.53711 z m -191.07031,26.61914 c 11.96692,5.25547 12.64281,4.12058 14.36718,7.72851 -6.25651,9.92996 -8.57646,14.6919 -11.38476,17.90235 -2.06083,2.35589 -8.11189,-3.7692 -12.80274,-9.47266 -0.423,-4.71704 7.55751,-12.53212 9.82032,-16.1582 z M 407.64258,706.492 c 8.37192,9.82858 5.5988,7.93419 9.51367,13.0957 -27.52668,21.63825 -34.87569,17.18575 -49.88672,21.24609 0,0 1.15242,-12.28139 -0.8457,-18.11328 33.16708,-6.85636 24.17213,-7.1234 41.21875,-16.22851 z m 143.85011,10.52366 c 6.63929,0.97154 7.01775,3.4653 6.71629,5.2029 -1.59318,9.18278 -11.26169,11.88267 -14.70703,10.32422 -2.71986,-1.23028 -5.00387,-5.0763 -8.89648,-11.50195 5.95071,-3.01146 10.24792,-4.9967 16.88722,-4.02517 z m -231.14503,0.006 c 1.81481,-0.003 3.35912,0.20147 5.16211,1.54297 0.18028,1.25159 -3.84437,6.05188 -6.39454,13.44532 -3.42682,0.13077 -2.4406,-2.1462 -5.11132,-2.53125 0.11754,-1.21826 2.44785,-9.14515 4.41797,-12.41993 0.68395,-0.0113 1.32083,-0.0371 1.92578,-0.0371 z m 19.29296,4.9961 c 0.1493,1.15793 -2.2815,15.32072 -2.11914,16.76953 -0.0847,1.55339 -8.60147,-0.31446 -8.67578,-1.87695 -0.39061,-4.56034 2.91707,-11.90101 4.54688,-16.14844 2.19058,-0.504 4.51195,0.29463 6.24804,1.25586 z m 11.04102,0.78515 c 2.29648,0.0643 4.5776,1.01248 6.18945,0.28125 0.98113,4.47319 -0.14775,6.9887 -1.28906,18.13672 -6.65321,0.61996 -4.13808,1.40673 -9.20703,0.41211 l 2.0293,-18.50586 c 0.74441,-0.26948 1.51187,-0.34576 2.27734,-0.32422 z m 215.0889,5.58699 c 6.54216,3.19092 -16.11122,14.55377 -18.0596,10.33903 -1.37556,-2.97551 11.51745,-13.52995 18.0596,-10.33903 z m 1.97976,5.7672 c 1.93245,0.60306 -2.18529,4.16252 -5.66046,6.12065 -3.41593,1.92477 -7.68827,3.33879 -8.98046,2.35547 -1.22113,-0.92905 12.70846,-9.07918 14.64092,-8.47612 z m 0.87665,3.75347 c 1.77063,1.33145 -6.35519,8.12233 -11.53125,7.30468 -0.0748,-1.90568 11.16128,-7.58289 11.53125,-7.30468 z"
       sodipodi:nodetypes="cccccsccsccssccsssccscssssssccssssssscssscsccccsscscccsssccsscssccscccccccccssccsccsccsssccssssccssscscccsccsccsscccsccscccccsssscccsccscsccsccscsccccccsscsccscccscccccccscccccscsssscccscccscsccssccccssccsscscccccccccccscccsccssscccssccscccccsscccccccccsccccccsccsscsccccccccccssccscscccccsscscssscscccscssccccscccccccssscscsccccccssccscsscssscssccsscccscscccsscccccccccssscsssccsccccccccscccccccccsccsccsscccccccccccccccccccscccccssccccccsccscs"
       transform="scale(0.26458333)" />
  </g>
</svg>
