<?xml version="1.0" encoding="UTF-8" standalone="no"?>
<svg
   xmlns:dc="http://purl.org/dc/elements/1.1/"
   xmlns:cc="http://creativecommons.org/ns#"
   xmlns:rdf="http://www.w3.org/1999/02/22-rdf-syntax-ns#"
   xmlns:svg="http://www.w3.org/2000/svg"
   xmlns="http://www.w3.org/2000/svg"
   xmlns:xlink="http://www.w3.org/1999/xlink"
   xmlns:sodipodi="http://sodipodi.sourceforge.net/DTD/sodipodi-0.dtd"
   xmlns:inkscape="http://www.inkscape.org/namespaces/inkscape"
   width="210mm"
   height="297mm"
   viewBox="0 0 210 297"
   version="1.1"
   id="svg46"
   inkscape:version="1.0.2 (e86c870879, 2021-01-15)"
   sodipodi:docname="throwthosepicturesdownthelane-v1.svg">
  <defs
     id="defs40">
    <inkscape:path-effect
       effect="powerstroke"
       id="path-effect78"
       is_visible="true"
       lpeversion="1"
       offset_points="0,0.1322915"
       sort_points="true"
       interpolator_type="CubicBezierJohan"
       interpolator_beta="0.2"
       start_linecap_type="zerowidth"
       linejoin_type="extrp_arc"
       miter_limit="4"
       scale_width="1"
       end_linecap_type="zerowidth" />
    <inkscape:path-effect
       effect="powerstroke"
       id="path-effect108"
       is_visible="true"
       lpeversion="1"
       offset_points="0,0.1322915"
       sort_points="true"
       interpolator_type="CubicBezierJohan"
       interpolator_beta="0.2"
       start_linecap_type="zerowidth"
       linejoin_type="extrp_arc"
       miter_limit="4"
       scale_width="1"
       end_linecap_type="zerowidth" />
    <inkscape:path-effect
       effect="powerstroke"
       id="path-effect95"
       is_visible="true"
       lpeversion="1"
       offset_points="0.2,0.04597665 | 2,0.04597665 | 3.8,0.04597665"
       sort_points="true"
       interpolator_type="CentripetalCatmullRom"
       interpolator_beta="0.2"
       start_linecap_type="zerowidth"
       linejoin_type="round"
       miter_limit="4"
       scale_width="4"
       end_linecap_type="zerowidth" />
    <inkscape:path-effect
       effect="powerstroke"
       id="path-effect93"
       is_visible="true"
       lpeversion="1"
       offset_points="0.2,0.04597665 | 1,0.04597665 | 1.8,0.04597665"
       sort_points="true"
       interpolator_type="CentripetalCatmullRom"
       interpolator_beta="0.2"
       start_linecap_type="zerowidth"
       linejoin_type="round"
       miter_limit="4"
       scale_width="4"
       end_linecap_type="zerowidth" />
    <inkscape:path-effect
       effect="powerstroke"
       id="path-effect91"
       is_visible="true"
       lpeversion="1"
       offset_points="0,0.17377"
       sort_points="true"
       interpolator_type="CubicBezierJohan"
       interpolator_beta="0.2"
       start_linecap_type="zerowidth"
       linejoin_type="extrp_arc"
       miter_limit="4"
       scale_width="1"
       end_linecap_type="zerowidth" />
    <inkscape:path-effect
       effect="powerstroke"
       id="path-effect85"
       is_visible="true"
       lpeversion="1"
       offset_points="0,0.17377"
       sort_points="true"
       interpolator_type="CubicBezierJohan"
       interpolator_beta="0.2"
       start_linecap_type="square"
       linejoin_type="miter"
       miter_limit="4"
       scale_width="1"
       end_linecap_type="zerowidth" />
    <inkscape:path-effect
       effect="powerstroke"
       id="path-effect69"
       is_visible="true"
       lpeversion="1"
       offset_points="0,0.17377"
       sort_points="true"
       interpolator_type="CubicBezierJohan"
       interpolator_beta="0.2"
       start_linecap_type="zerowidth"
       linejoin_type="extrp_arc"
       miter_limit="4"
       scale_width="1"
       end_linecap_type="zerowidth" />
    <inkscape:path-effect
       effect="powerstroke"
       id="path-effect65"
       is_visible="true"
       lpeversion="1"
       offset_points="0,0.17377"
       sort_points="true"
       interpolator_type="CubicBezierJohan"
       interpolator_beta="0.2"
       start_linecap_type="zerowidth"
       linejoin_type="extrp_arc"
       miter_limit="4"
       scale_width="1"
       end_linecap_type="zerowidth" />
    <inkscape:path-effect
       effect="powerstroke"
       id="path-effect61"
       is_visible="true"
       lpeversion="1"
       offset_points="0,0.17377"
       sort_points="true"
       interpolator_type="CubicBezierJohan"
       interpolator_beta="0.2"
       start_linecap_type="zerowidth"
       linejoin_type="extrp_arc"
       miter_limit="4"
       scale_width="1"
       end_linecap_type="zerowidth" />
    <inkscape:path-effect
       effect="powerstroke"
       id="path-effect57"
       is_visible="true"
       lpeversion="1"
       offset_points="0,0.17377"
       sort_points="true"
       interpolator_type="CubicBezierJohan"
       interpolator_beta="0.2"
       start_linecap_type="zerowidth"
       linejoin_type="extrp_arc"
       miter_limit="4"
       scale_width="1"
       end_linecap_type="zerowidth" />
    <inkscape:path-effect
       effect="powerstroke"
       id="path-effect53"
       is_visible="true"
       lpeversion="1"
       offset_points="0,0.17377"
       sort_points="true"
       interpolator_type="CubicBezierJohan"
       interpolator_beta="0.2"
       start_linecap_type="zerowidth"
       linejoin_type="extrp_arc"
       miter_limit="4"
       scale_width="1"
       end_linecap_type="zerowidth" />
    <inkscape:path-effect
       effect="powerstroke"
       id="path-effect49"
       is_visible="true"
       lpeversion="1"
       offset_points="0,0.17377"
       sort_points="true"
       interpolator_type="CubicBezierJohan"
       interpolator_beta="0.2"
       start_linecap_type="zerowidth"
       linejoin_type="extrp_arc"
       miter_limit="4"
       scale_width="1"
       end_linecap_type="zerowidth" />
    <inkscape:path-effect
       effect="powerstroke"
       id="path-effect45"
       is_visible="true"
       lpeversion="1"
       offset_points="0,0.17377"
       sort_points="true"
       interpolator_type="CubicBezierJohan"
       interpolator_beta="0.2"
       start_linecap_type="zerowidth"
       linejoin_type="extrp_arc"
       miter_limit="4"
       scale_width="1"
       end_linecap_type="zerowidth" />
    <inkscape:path-effect
       effect="powerstroke"
       id="path-effect40"
       is_visible="true"
       lpeversion="1"
       offset_points="0.11352874,0.1737697"
       sort_points="true"
       interpolator_type="CubicBezierJohan"
       interpolator_beta="0.2"
       start_linecap_type="zerowidth"
       linejoin_type="extrp_arc"
       miter_limit="4"
       scale_width="1"
       end_linecap_type="zerowidth" />
    <inkscape:path-effect
       effect="powerstroke"
       id="path-effect35"
       is_visible="true"
       lpeversion="1"
       offset_points="0,0.1322915"
       sort_points="true"
       interpolator_type="CubicBezierJohan"
       interpolator_beta="0.2"
       start_linecap_type="zerowidth"
       linejoin_type="extrp_arc"
       miter_limit="4"
       scale_width="1"
       end_linecap_type="zerowidth" />
    <inkscape:path-effect
       effect="powerstroke"
       id="path-effect76"
       is_visible="true"
       lpeversion="1"
       offset_points="0,0.1322915"
       sort_points="true"
       interpolator_type="CubicBezierJohan"
       interpolator_beta="0.2"
       start_linecap_type="zerowidth"
       linejoin_type="extrp_arc"
       miter_limit="4"
       scale_width="1"
       end_linecap_type="zerowidth" />
    <inkscape:path-effect
       effect="powerstroke"
       id="path-effect72"
       is_visible="true"
       lpeversion="1"
       offset_points="0,0.1322915"
       sort_points="true"
       interpolator_type="CubicBezierJohan"
       interpolator_beta="0.2"
       start_linecap_type="zerowidth"
       linejoin_type="extrp_arc"
       miter_limit="4"
       scale_width="1"
       end_linecap_type="zerowidth" />
    <inkscape:path-effect
       effect="powerstroke"
       id="path-effect67"
       is_visible="true"
       lpeversion="1"
       offset_points="0,0.1322915"
       sort_points="true"
       interpolator_type="CubicBezierJohan"
       interpolator_beta="0.2"
       start_linecap_type="zerowidth"
       linejoin_type="extrp_arc"
       miter_limit="4"
       scale_width="1"
       end_linecap_type="zerowidth" />
    <inkscape:path-effect
       effect="powerstroke"
       id="path-effect62"
       is_visible="true"
       lpeversion="1"
       offset_points="0,0.1322915"
       sort_points="true"
       interpolator_type="CubicBezierJohan"
       interpolator_beta="0.2"
       start_linecap_type="zerowidth"
       linejoin_type="extrp_arc"
       miter_limit="4"
       scale_width="1"
       end_linecap_type="zerowidth" />
    <inkscape:path-effect
       effect="powerstroke"
       id="path-effect34"
       is_visible="true"
       lpeversion="1"
       offset_points="0,0.1322915"
       sort_points="true"
       interpolator_type="CubicBezierJohan"
       interpolator_beta="0.2"
       start_linecap_type="zerowidth"
       linejoin_type="extrp_arc"
       miter_limit="4"
       scale_width="1"
       end_linecap_type="zerowidth" />
    <inkscape:path-effect
       effect="powerstroke"
       id="path-effect29"
       is_visible="true"
       lpeversion="1"
       offset_points="0,0.1322915"
       sort_points="true"
       interpolator_type="CubicBezierJohan"
       interpolator_beta="0.2"
       start_linecap_type="zerowidth"
       linejoin_type="extrp_arc"
       miter_limit="4"
       scale_width="1"
       end_linecap_type="zerowidth" />
    <clipPath
       clipPathUnits="userSpaceOnUse"
       id="clipPath61">
      <use
         x="0"
         y="0"
         xlink:href="#g57"
         id="use63" />
    </clipPath>
    <clipPath
       clipPathUnits="userSpaceOnUse"
       id="clipPath27">
      <use
         x="0"
         y="0"
         xlink:href="#g23"
         id="use29" />
    </clipPath>
  </defs>
  <sodipodi:namedview
     id="base"
     pagecolor="#ffffff"
     bordercolor="#666666"
     borderopacity="1.0"
     inkscape:pageopacity="0.0"
     inkscape:pageshadow="2"
     inkscape:zoom="0.99999999"
     inkscape:cx="306.87629"
     inkscape:cy="377.5463"
     inkscape:document-units="mm"
     inkscape:current-layer="layer1"
     inkscape:document-rotation="0"
     showgrid="false"
     inkscape:window-width="1024"
     inkscape:window-height="750"
     inkscape:window-x="0"
     inkscape:window-y="18"
     inkscape:window-maximized="0"
     showguides="false"
     inkscape:snap-global="false" />
  <metadata
     id="metadata43">
    <rdf:RDF>
      <cc:Work
         rdf:about="">
        <dc:format>image/svg+xml</dc:format>
        <dc:type
           rdf:resource="http://purl.org/dc/dcmitype/StillImage" />
        <dc:title />
      </cc:Work>
    </rdf:RDF>
  </metadata>
  <g
     inkscape:label="Layer 1"
     inkscape:groupmode="layer"
     id="layer1">
    <a
       id="a53"
       style="opacity:1"
       transform="rotate(57.357635,115.14045,134.98906)">
      <g
         id="g59"
         clip-path="url(#clipPath61)">
        <g
           inkscape:label="Clip"
           id="g57">
          <g
             id="g25"
             clip-path="url(#clipPath27)">
            <g
               inkscape:label="Clip"
               id="g23" />
          </g>
        </g>
      </g>
    </a>
    <path
       style="fill:#00ff00;fill-rule:nonzero;stroke:none;stroke-width:0.0700042;stroke-linecap:butt;stroke-linejoin:miter;stroke-opacity:1"
       d="m 52.91137,151.73003 4.84463,-2.77165 -2.138493,-3.9836 -2.43943,-8.07033 -4.426226,1.31163 -0.232478,4.00524 0.680496,2.94728 1.91831,4.21983 z"
       id="path490" />
    <g
       inkscape:label="Layer 1"
       id="layer1-1"
       transform="matrix(0.14571115,0,0,0.14571115,59.798564,74.760101)">
      <path
         id="path10"
         style="fill:#ff0000;stroke-width:0.145711"
         inkscape:transform-center-x="1.2988104e-06"
         inkscape:transform-center-y="-2.0973391e-06"
         d="M 282.78516 325.70508 L 278.69531 332.70117 L 273.31641 326.63867 L 270.66992 334.29688 L 264.21289 329.40039 L 263.10938 337.42773 L 255.82227 333.88477 L 256.30664 341.97461 L 248.4668 339.91992 L 250.52148 347.75977 L 242.43164 347.27539 L 245.97461 354.56445 L 243.84961 354.85547 L 254.22461 354.94531 L 266.52539 357.91016 L 291.79883 362.35156 L 309.05078 360.69727 L 325.76172 358.12305 L 327.625 355.66602 L 319.59766 354.56445 L 323.14062 347.27539 L 315.05078 347.75977 L 317.10547 339.91992 L 309.26562 341.97461 L 309.75 333.88477 L 302.46094 337.42773 L 301.35938 329.40039 L 294.90234 334.29688 L 292.25391 326.63867 L 286.87695 332.70117 L 282.78516 325.70508 z M 239.48242 363.28516 L 235.18359 364.77148 L 240.89062 369.83203 L 239.48242 363.28516 z M 240.99023 370.29883 L 234.25195 374.24023 L 241.24609 378.33008 L 235.18359 383.70898 L 242.84375 386.35547 L 237.94531 392.8125 L 245.97461 393.91602 L 242.43164 401.20312 L 250.52148 400.71875 L 248.4668 408.55859 L 256.30664 406.50391 L 255.82227 414.59375 L 263.10938 411.05078 L 264.21289 419.08008 L 270.66992 414.18164 L 273.31641 421.8418 L 278.69531 415.77734 L 282.78516 422.77344 L 286.87695 415.77734 L 292.25391 421.8418 L 294.90234 414.18164 L 301.35938 419.08008 L 302.46094 411.05078 L 309.75 414.59375 L 309.26562 406.50391 L 317.10547 408.55859 L 315.05078 400.71875 L 323.14062 401.20312 L 319.59766 393.91602 L 327.625 392.8125 L 322.72852 386.35547 L 330.38672 383.70898 L 326.80273 380.5293 L 274.71875 382.10742 L 244.7793 387.03516 L 244.72656 387.68555 L 240.99023 370.29883 z "
         transform="matrix(1.815807,0,0,1.815807,-410.39113,-513.07056)" />
      <g
         aria-label="λ"
         transform="rotate(-15)"
         id="text14"
         style="font-size:91.9584px;line-height:1.25;font-family:'Courier New';-inkscape-font-specification:'Courier New';letter-spacing:0px;fill:#ffffff;stroke-width:0.47895">
        <path
           d="m 31.44233,215.93329 28.108377,-37.71731 q 1.032736,-1.39195 1.212343,-1.84097 0.179606,-0.44901 0.179606,-1.84096 v -5.97191 q 0,-2.28998 -0.0898,-3.45742 -0.0898,-1.21234 -0.449016,-3.18801 -0.359212,-1.97567 -1.391948,-2.9186 -1.032736,-0.98784 -2.649192,-0.98784 -2.28998,0 -4.355452,1.79607 -2.02057,1.79606 -2.379783,1.79606 -0.898031,0 -0.898031,-0.94293 0,-0.53882 1.167441,-2.739 1.212342,-2.20017 3.502322,-4.49015 2.289979,-2.33489 4.579959,-2.33489 2.02057,0 3.367617,1.43685 1.347047,1.43685 1.840964,3.99624 0.493917,2.55939 0.673523,4.75957 0.224508,2.15527 0.224508,5.07388 v 33.67617 q 0,5.34328 0.493917,7.63326 0.493917,2.28998 1.885866,2.28998 1.212342,0 2.783897,-1.79606 1.616456,-1.79606 2.200176,-1.79606 0.808228,0 0.808228,1.03273 0,0.26941 -0.987834,2.46959 -0.942933,2.20017 -2.783897,4.66976 -1.840964,2.42468 -3.681928,2.42468 -2.200176,0 -3.053306,-3.81663 -0.808228,-3.81663 -0.808228,-12.21322 v -15.35634 q -0.808228,1.21235 -2.469586,3.41252 l -19.217868,25.7286 q -0.898031,1.21234 -2.110374,1.21234 z"
           style="font-style:italic;font-variant:normal;font-weight:500;font-stretch:normal;font-size:91.9584px;font-family:'CMU Serif';-inkscape-font-specification:'CMU Serif Medium Italic';fill:#ffffff;stroke-width:0.47895"
           id="path16" />
      </g>
    </g>
    <path
       id="path64"
       style="opacity:1;fill:#000000;fill-rule:evenodd;stroke:none;stroke-width:0.999999"
       transform="scale(0.26458333)"
       d="m 522.43164,292.90625 c -9.88842,14.70119 -10.8876,23.16003 -11.66406,37.36914 -0.22413,4.1009 -0.83063,3.94747 -4.49024,4.89649 -13.90269,3.60517 -1.7375,2.22308 9.32813,20.90234 0,0 -0.47386,8.19395 -5.10938,11.50976 -2.18116,1.56014 -16.30273,4.36719 -16.30273,4.36719 0,0 -10.06222,-13.29693 -45.17774,-12.57812 -5.38072,0.11014 -39.37746,-11.60923 -79.60546,3.63867 -1.28182,0.4858 -9.46375,-11.76186 -43.77539,-6.10742 -38.01171,6.2642 -52.44405,1.52366 -54.64454,0.61132 -0.15238,-0.0632 0.31952,0.16785 0.55665,0.31055 0.81211,0.48871 -13.46543,-6.26327 -34.97071,-4.42383 -4.35854,0.37282 -4.29163,6.43228 -2.58398,7.60743 0.61307,0.42175 -5.35356,-1.53573 -6.13672,-0.39454 -2.18883,3.1894 -2.67618,6.37286 -0.54297,8.41797 -3.81123,-0.10439 -4.10867,9.62698 -0.20703,10.08789 -0.41221,3.20217 -0.46654,5.45776 0.77539,7.02539 0.6731,0.84972 11.56194,2.8849 19.61719,2.85157 10.56179,-0.0437 16.1549,-7.3427 -1.67774,18.14843 -3.27048,4.67505 -4.14346,20.49834 3.95508,7.80664 3.32239,-5.20679 11.05223,-11.92775 20.96289,-20.4121 3.2544,-2.78601 9.057,-8.8548 14.05469,-9.54883 8.2978,-1.15227 62.69405,5.2693 73.65039,3.24219 2.80896,-0.51973 51.97433,16.21964 86.91406,7.23828 2.87841,-0.73988 11.8494,-0.0506 17.26172,1.88476 -25.6557,37.32556 -23.67548,90.65684 -40.36328,128.8125 -6.22072,14.22331 -22.52042,26.3492 -36.33984,36.01953 -25.7572,18.02389 -38.49938,28.3864 -89.07618,30.99219 -8.20674,0.42282 -108.94506,10.67762 -92.89257,-124.51562 0.76575,-6.44871 -2.23646,-5.0902 -7.21875,3.12695 -7.88979,13.01246 -16.83656,37.4296 -13.72461,68.0293 2.43743,23.96723 29.5794,54.93552 49.3789,64.69921 32.15479,15.85637 83.85286,12.91559 107.4375,5.04688 50.13389,-16.72645 69.83342,-31.16201 90.97266,-53.62695 8.95687,19.2131 24.84182,36.41313 38.44531,58.61132 0.9781,1.59607 1.08361,0.36651 -5.21875,3.16797 -0.80081,0.35603 -12.10266,-13.05028 -51.56055,-8.27734 -8.91832,1.07879 -19.21952,5.43699 -52.63867,-5.99805 -22.2959,62.43591 -39.30404,80.62422 -43.74804,88.6875 -2.04435,3.70942 -16.09284,29.84242 -10.63477,32.58594 -1.2309,0.28649 -6.22444,1.73521 -3.29492,7.67383 -1.93498,2.35162 -0.67198,4.8001 0.6582,5.74804 -3.95238,4.22366 8.34836,10.86786 13.77734,8.39844 1.24061,-0.5643 3.32374,-0.38657 4.78907,-1.83398 1.00545,-0.99326 6.53536,-4.87202 11.5625,-16.42774 1.58072,-3.63348 5.67629,-8.62954 5.81445,-25.2539 17.16252,-25.30646 25.51438,-45.6811 37.40234,-68.16602 0,0 19.8436,7.37416 43.34961,6.9668 -8.00027,2.73335 -22.01368,5.99565 -32.18945,9.94726 3.27946,9.69445 11.45936,20.62061 8.82813,57.30274 -1.66145,23.16102 -2.98728,28.47599 -3.72852,37.14453 -0.41356,4.83598 6.98264,12.3348 12.95898,13.33203 5.45065,0.90958 23.83905,4.19196 22.74805,-1.0039 3.41152,3.61931 6.1192,1.78921 6.83399,-1.1504 2.6033,1.8855 4.979,0.13344 6.80859,-1.43945 2.64586,-2.27471 5.26589,-2.21681 2.1875,-12.41015 -0.57593,-1.90708 -2.15526,-1.12311 -2.66992,-0.54102 -0.60711,0.68689 -0.95573,-5.5245 -3.9668,-5.82422 -5.96515,-0.59373 -8.52259,-3.80496 -19.39648,-5.37891 -2.94743,-0.42663 2.82797,-65.92471 0.94531,-67.5625 -3.7903,-3.29695 86.26307,-3.27107 113.43359,-21.12109 2.45149,-1.61054 4.45149,-2.92453 6.13867,-5.57617 2.05932,-3.23637 8.88849,-16.5183 -28.40429,-75.52149 0,0 13.14412,-18.62971 13.9707,-55.35156 14.04968,-20.7942 24.74993,-37.71775 29.87109,-50.54492 2.39558,-6.00031 6.858,-13.73622 6.42774,-20.46684 4.09497,1.8449 -7.46091,47.42197 17.63867,84.08985 3.7355,5.4579 -9.9415,10.81439 6.73438,55.76367 5.03739,13.57727 5.71097,21.78838 10.55859,41.25 0.0265,0.10167 -2.76764,10.76687 -2.20313,13.36719 0.63799,2.93862 5.29653,9.58293 7.97852,13.76562 0.56134,0.87549 4.56901,7.29568 7.13281,12.05078 0.10696,0.1954 -10.93639,2.10793 -1.49219,3.39649 -5.42071,2.7922 -11.34547,1.41402 -11.14062,3.1289 0.16668,1.39654 5.44392,1.78348 9.74219,1.82422 -2.63234,2.48386 -8.50976,1.95498 -10.91992,4.52344 -0.99785,1.0634 3.4301,1.46261 7.02734,1.86914 3.87504,0.4382 11.96826,2.16542 12.49414,1.63867 0.21921,-0.21959 -4.26764,9.79132 -2.03711,9.28321 0.58069,-0.13229 3.03414,-6.15268 4.71875,-5.7793 2.47521,0.54867 8.87479,-14.36133 3.65039,-17.28906 -3.33808,-1.87068 -7.09891,-2.01521 -9.39062,-1.8711 1.02066,-0.76426 1.89221,-2.30563 1.28711,-4.68945 -2.075,-4.0224 -3.41006,-7.60236 -4.12696,-10.86719 -0.21052,-0.95864 5.49384,14.05086 7.33594,15.00391 1.23927,0.64119 3.8024,1.63569 6.125,1.79492 2.15244,0.14778 4.79529,-9.40173 -0.4375,-30.07813 -0.94908,-3.75008 -2.88283,-7.92889 -5.16211,-15.91601 -0.0227,-25.89872 4.40608,-68.43501 -11.07422,-89.60547 -1.37114,-16.92506 -3.00872,-25.46623 -3.95508,-42.41016 -0.50078,-8.96594 -7.82481,-22.41803 -12.25586,-48.58007 -0.95172,-5.61922 0.17886,-12.14236 -1.4746,-16.11329 -6.04528,-14.51693 -19.85157,-17.14648 -19.85157,-17.14648 0,0 -13.10159,-12.68885 -15.30078,-18.89453 -0.64766,-1.82764 3.00493,-7.60734 5.72656,-11.54688 1.12037,-0.54353 2.34935,-1.10486 3.93555,-1.72656 10.93677,-4.28663 28.08555,-2.4709 15.875,-10.77148 -3.63276,-2.4695 -3.86679,-5.72176 -1.51562,-8.33985 5.42486,-8.09723 12.25179,-31.6278 8.76757,-40.88672 -11.31859,1.98754 -14.38407,4.02954 -22.1914,8.05664 -4.83772,-8.98631 -17.9174,-8.98621 -23.76172,-7.28906 -5.82459,-6.40912 -10.04114,-7.39646 -16.29883,-13.75781 z m 0.61133,3.69531 c 3.81706,4.42251 13.24851,7.48121 12.96289,13.98438 0,0 -5.59672,14.50984 -19.19531,17.875 0,0 -0.11076,-18.70573 6.23242,-31.85938 z m 59.30859,13.21485 c -0.45747,15.43836 -10.68554,30.01367 -10.68554,30.01367 -12.70039,-4.61059 -9.63086,-21.02735 -9.63086,-21.02735 0,0 9.69703,-6.26381 20.3164,-8.98632 z m -57.32617,22.60742 c 3.92638,0.0345 9.23593,0.65018 19.54688,1.06055 12.52044,0.49829 18.42165,5.31006 21.20312,9.71093 2.45424,3.8831 2.47852,7.44727 2.47852,7.44727 -3.00885,-1.21726 -7.87112,-1.5822 -11.80274,-1.66406 l 6.57617,-0.10157 -0.0566,-3.77343 c 0,0 -12.24505,-1.46456 -13.92773,-0.3418 -1.68268,1.12275 -7.32813,16.61523 -7.32813,16.61523 0,0 -7.56247,-1.9986 -8.00195,-3.52734 2.50443,-7.35946 5.38417,-12.42198 4.33984,-15.38281 -1.04428,-2.96084 -12.36328,-7.90235 -12.36328,-7.90235 l -1.86914,3.2793 5.38086,3.10742 c -6.59627,-1.13465 -13.2528,-3.12697 -20.15039,-4.09375 8.16506,-3.56025 10.92641,-4.47798 15.97461,-4.43359 z m -8.38477,8.52734 c 3.40455,0.0249 7.24431,0.6403 8.98633,3.00391 4.03714,5.47764 8.04297,6.87613 8.21289,6.57617 1.32669,-2.34208 0.65264,-4.19608 2.06641,-4.73242 -0.46726,5.69513 -2.53739,8.08489 -6.83203,9.1582 -3.36053,0.83986 -5.73011,3.11923 -7.87695,5.72656 -4.89007,-8.14997 -10.92969,-19.1914 -10.92969,-19.1914 0,0 2.9685,-0.56593 6.37304,-0.54102 z m 17.45899,4.08789 c 0.70193,1.20831 -1.45508,3.93164 -1.45508,3.93164 -3.08833,-1.9169 -6.39715,-2.76055 -5.5,-7.34179 2.44913,-0.44534 5.84772,1.64587 6.95508,3.41015 z m 14.99805,3.80274 c 1.5027,0.73919 -2.49083,5.39171 -1.10352,5.72461 5.99766,1.43919 11.05469,-2.27344 11.05469,-2.27344 5.80222,0.059 12.87283,1.85134 16.125,6.9668 0.52494,0.82569 0.71094,1.39453 0.71094,1.39453 -6.45797,-0.35913 -18.37927,4.54654 -26.22266,8.43554 0.008,-0.0238 0.0138,-0.0421 0.0176,-0.0664 -0.66648,-11.67664 -7.31921,-8.58294 -1.08008,-20.16602 0.1697,-0.0691 0.36853,-0.0116 0.49803,-0.0156 z m 9.42578,1.72265 c -2.14847,3.53135 -6.01929,3.34942 -9.33008,3.28125 0,0 0.80651,-3.50253 1.78711,-3.98828 2.41358,-0.72728 5.356,-0.33377 7.54297,0.70703 z m -26.00196,6.73633 c -0.0814,2.18691 2.5366,6.33348 1.93164,9.39258 -4.79217,9.83445 -13.72178,-3.45837 -10.64648,-7.35547 2.69889,-3.4201 7.75241,-4.23634 10.25,-6.53711 -0.50517,1.49105 -1.48114,3.04845 -1.53516,4.5 z m 12.28907,-1.50781 c -0.11641,1.11714 0.82898,2.18672 1.24023,3.06445 2.43912,5.20603 2.65309,10.04599 1.04297,13.16211 -2.26915,4.39157 -9.84099,4.02895 -11.69727,-1.55469 -1.82347,-5.48508 5.98778,-5.34281 7.15821,-8.6914 0.66324,-1.89753 1.37663,-3.9847 2.25586,-5.98047 z m -290.03321,0.54101 c 4.95943,0.16377 13.68222,2.85235 14.73633,4.25782 v 0.002 c 2.87113,3.82815 3.87288,19.50342 0.90039,19.21289 -2.08706,-0.20409 -5.54743,-0.0571 -19.25586,4.41016 -1.2638,0.41181 -2.09514,0.60266 -2.36718,0.14258 -7.75314,-13.11213 -0.0682,-22.6404 2.70507,-27.20704 0.39353,-0.648 1.62811,-0.87294 3.28125,-0.81836 z m 155.38086,1.40235 c 19.6396,0.21014 34.13868,7.1289 34.13868,7.1289 1.45825,3.08218 5.58522,16.16813 0.5996,16.87891 -6.15223,0.87712 -26.10492,-11.09879 -43.93945,-7.5293 -19.09508,3.82179 -23.84139,4.94356 -24.5625,2.24024 -2.32367,-8.71107 -6.57942,-8.0777 -5.11719,-8.9082 13.4641,-7.64718 27.0971,-9.93664 38.88086,-9.81055 z m -66.25,0.0625 c 10.80954,0.0221 16.85299,2.56019 19,5.53711 1.1316,1.56901 1.17914,3.26064 0.27344,4.76953 -3.71149,6.18318 -55.74791,12.76922 -58.05273,10.39844 -2.18747,-2.25006 -1.88115,-12.01736 -1.56446,-13.46289 17.55688,-5.32369 30.80592,-7.26167 40.34375,-7.24219 z m 174.36524,5.60937 c 0,0 8.9472,12.86928 13.46094,13.12696 4.5137,0.25768 14.92187,-1.37696 14.92187,-1.37696 3.40188,8.84721 -11.08097,27.97741 4.48437,6.85938 8.38606,12.74608 10.4989,15.43207 10.64063,15.6289 -9.43967,-6.6709 -23.25757,-5.97915 -32.89677,-1.08398 0,0 -14.17887,-19.96073 -29.50557,-21.35938 -0.15799,-0.22461 6.05693,-2.65007 12.07617,-6.4746 0.22337,17.1504 0.16303,2.37128 6.81836,-5.32032 z m 8.79492,7.61133 c 0.0419,-0.027 0.11102,-0.0256 0.20898,0.01 1.00135,0.42552 10.4009,3.38291 9.87222,3.72324 -4.52619,2.91362 -9.37679,-0.69408 -10.0812,-3.73301 z m -121.25195,6.69336 c 17.21995,-0.22986 31.89976,4.80853 37.45507,13.15234 -4.49484,3.81721 -47.15448,12.07154 -69.77148,-6.62695 10.73699,-4.35462 21.98444,-6.38747 32.31641,-6.52539 z m 99.96289,12.90625 c 8.57816,0.58942 10.80507,3.45067 21.39258,11.10882 17.98912,-0.95978 32.58837,0.60742 6.74776,9.11746 -7.23751,2.38351 -9.58662,5.76263 -12.53311,8.82033 -1.55799,-12.29349 -8.85703,-21.94996 -15.60723,-29.04661 z M 490.58008,393.25 c 11.36285,-0.12829 18.21041,3.69477 22.36886,9.76729 10.69687,22.05704 -6.05937,47.30307 -26.35547,31.05464 -13.41761,-10.74173 8.67086,-11.64422 17.87919,-18.76534 -0.11981,-0.30652 -11.98478,1.68725 -22.23047,4.75781 -0.76963,-5.3823 -4.11628,-10.65403 -6.23242,-14.64648 -1.24426,-2.35465 0.28962,-3.28457 -0.0547,-5.29883 -0.52498,-1.26168 -2.31226,-1.25742 -2.82227,0.008 -0.46582,1.37821 -1.36033,1.31964 -2.35937,0.0879 5.95366,-4.88864 12.98893,-6.88786 19.80664,-6.96484 z m -20.87305,8.17773 c 0.67524,-0.0438 1.76487,1.01484 1.43555,1.58594 -2.00769,3.48166 -5.446,6.32183 -8.06446,9.07227 0.55125,-3.45113 2.54937,-7.6881 6.36915,-10.56836 0.0742,-0.056 0.1633,-0.0836 0.25976,-0.0899 z m 4.88867,5.17579 c 3.68323,4.1478 5.06245,9.10102 5.95899,13.9746 -2.4398,0.77549 -4.74043,1.61207 -6.70703,2.49024 -1.44378,-5.22048 -1.82198,-12.58367 0.74804,-16.46484 z m -4.16992,1.92187 c -0.75148,4.9763 -0.97646,9.70398 0.34771,13.87305 -4.46808,-1.789 -6.78113,-4.16032 -7.53125,-6.82617 2.78041,-2.50084 4.97544,-4.60028 7.18359,-7.04688 z m 74.90039,3.42578 c 1.17842,0.0634 2.20512,0.4101 3.01367,1.08594 3.57086,3.80659 8.59542,10.55369 8.14649,15.79687 -0.0378,0.44251 -0.44541,6.11773 -0.50781,6.5625 -3.24564,1.12472 -2.37823,0.8406 -8.18555,3.61719 -5.73581,-7.73888 -13.88281,-15.31836 -13.88281,-15.31836 2.04196,6.3241 6.15228,14.05133 8.61328,18.53321 -2.83011,2.11113 -4.83266,3.69257 -4.83399,3.74609 -2.47782,8.24455 -5.85347,7.25837 -12.21902,3.53682 -16.18186,-17.92837 8.90493,-38.12494 19.85574,-37.56026 z m -87.84961,13.56445 c 2.74994,-0.1243 7.20557,1.74537 13.32032,6.94727 0,0 1.17302,-0.3489 3.14843,-1.04297 2.93144,3.94594 -0.0307,9.28719 -1.10742,13.39649 l -2.30469,-1.58399 c -15.9795,-4.05445 -20.08426,-17.39913 -13.05664,-17.7168 z m 28.12277,9.73409 c 13.07718,8.98514 21.01081,6.57297 29.24512,2.73348 2.54354,8.34516 6.68745,11.75084 12.32715,14.27629 4.86164,2.17703 5.43432,8.44785 3.06863,14.97294 -13.71212,-0.70227 -13.27484,-0.18872 -2.32812,4.14258 -2.78695,7.13121 -6.15498,14.49836 -10.03516,21.96289 -10.61786,-0.95066 -19.44722,-7.39888 -1.99804,3.77344 -0.43631,0.80693 -0.87045,1.61347 -1.31836,2.42187 -4.35825,2.06737 -8.69795,2.8382 -12.82617,1.85938 3.38297,0.80213 6.435,2.55404 9.03906,4.79492 -1.41256,8.60538 -3.35068,18.44692 -2.41797,26.48242 -19.82264,7.48328 -13.74037,3.38722 0.76758,4.40625 0.64622,2.96772 1.95322,4.11864 2.91601,7.01758 -1.51835,2.98088 -3.86196,7.92237 -5.82617,11.07227 -2.60803,4.18235 -13.72551,-20.955 -20.24805,-28.63477 -28.30886,-33.33142 13.86086,24.29098 23.76954,41.69922 10.3576,16.35012 20.53365,34.8101 24.19726,48.5 -22.36739,-42.68156 -51.77926,-77.9315 -40.8418,-62.16992 3.17364,4.57319 22.22535,53.65399 19.18555,68.86523 2.13706,4.96974 -31.542,23.13088 -85.41992,31.92188 26.29988,-2.10943 87.19316,-7.78853 66.38867,-2.89454 -20.80448,4.894 -30.24058,3.19012 -83.74414,8.44922 13.48706,19.54311 4.27356,49.64913 3.80078,65.76954 -0.83202,0.67525 0.6264,-37.6169 1.16211,-43.02344 -5.39675,28.51752 -1.47562,34.65171 -18.68555,55.72851 0.008,-0.10998 15.98339,-32.15955 -4.29687,-85.09765 17.76995,-5.04912 33.03639,-6.79675 47.6543,-16.62696 -10.31585,23.35537 -3.44593,11.36662 17.4414,-11.58789 13.65305,-9.70802 19.00157,-12.8181 40.14844,-4.53515 2.53435,0.51929 -59.57988,-45.95887 -68.49609,-91.60547 -1.96177,-10.04328 4.2271,-16.32864 8.07031,-20.33203 2.99886,10.08945 7.20439,20.24609 11.44531,27.66601 0.94948,1.66121 3.39938,0.44769 2.73047,-1.34375 -3.1756,-8.50473 3.58843,-18.20259 7.46094,-24.63281 4.36928,4.97488 10.85659,12.0959 16.92383,17.67773 0,0 -6.2581,-14.38687 -13.35352,-25.80078 0.81596,-6.96404 2.63888,-14.45357 4.19922,-20.69531 l 22.77539,1.25586 -20.83399,-8.80469 c 1.67672,-6.48843 3.50978,-13.33615 4.95118,-19.04883 l 22.89843,4.52735 -20.58007,-14.14844 c 1.29021,-5.58038 2.68571,-10.3472 1.38867,-15.69531 5.71679,-2.28797 4.65294,1.51163 9.29464,4.70088 z m -71.13644,248.39873 c 0.0453,-0.24151 0.0797,-0.45476 0.12695,-0.69922 -0.0302,-0.13115 -0.0767,0.19321 -0.12695,0.69922 z M 555.06445,437.7168 c -0.7985,5.05239 -1.08214,4.10653 -2.83203,9.39258 -1.43845,-3.41651 -1.04979,-3.22339 -2.96484,-6.00391 1.19803,-1.68639 3.20627,-2.32772 5.79687,-3.38867 z m 31.83789,3.93945 c 0.42051,-0.0586 0.86192,0.36538 1.31055,1.15039 3.14003,5.49615 5.82227,22.24414 5.82227,22.24414 -5.39241,-10.57455 -17.9787,-21.87951 -7.13282,-23.39453 z m -43.14648,2.91406 c 4.06016,9.98143 8.62191,12.75691 -1.86133,10.94727 -8.89255,-1.53113 -3.68542,-1.06917 -2.40234,-8.2793 0.54123,-0.39825 2.45774,-1.28579 4.26367,-2.66797 z m 23.44726,0.84766 c 5.03434,0.29405 1.3782,8.68645 -0.67382,10.88867 -0.29934,-1.37647 -4.47726,-10.27242 0.67382,-10.88867 z m 8.99219,0.0859 c 4.46412,4.5143 6.72207,7.77319 10.03321,12.99804 9.93327,15.67461 13.53219,34.86528 3.91601,59.48633 -37.0882,-28.55543 -13.94922,-72.48437 -13.94922,-72.48437 z m -123.9375,2.02734 c 3.2809,0.0933 7.8047,2.08419 13.67578,7.01563 l 4.42188,0.87304 c -1.59243,6.45237 -3.2887,12.82116 -4.78906,18.61328 l -5.63086,-2.3789 c -15.25621,-0.58338 -19.39521,-24.4561 -7.67774,-24.12305 z m 85.19141,8.49805 c 9.55587,-0.30794 10.02091,4.16094 5.67187,11.98047 -4.66647,-0.22375 -7.7483,-0.40215 -10.98437,-0.57227 3.22812,-7.71134 2.54603,-11.31905 5.3125,-11.4082 z m -7.79883,16.03515 c 2.5824,1.02951 5.48251,2.20508 8.87305,3.64844 -4.4267,6.83006 -8.98674,13.29522 -14.47461,17.36328 -1.13647,0.84245 -2.83107,0.38557 -4.27735,0.35938 3.77893,-7.259 7.09249,-14.41541 9.87891,-21.3711 z m -77.82422,8.40821 c 1.78816,-0.0166 3.69391,0.44554 5.67383,1.53711 l 5.91797,0.32617 c -1.43119,6.28395 -3.04652,12.15851 -3.89453,17.75195 -1.38425,-2.05825 -2.77933,-3.96678 -4.15039,-5.5625 -24.8497,17.94894 -18.10758,-13.91769 -3.54688,-14.05273 z m 0.98633,24.84765 c 0,0 1.33735,1.60414 3.38672,3.97266 -3.7827,6.25103 -8.24034,12.65751 -9.3711,19.66797 -3.25795,-6.79552 -6.01538,-14.23806 -8.08789,-21.26367 2.92234,-1.66262 7.23197,-2.46177 14.07227,-2.37696 z m 59.36133,2.15625 c 1.53808,1.52308 2.8874,3.21035 4.01367,4.94922 4.16204,6.42589 5.29567,13.5498 1.80078,15.64453 -2.22531,1.3338 -4.81544,2.5851 -7.46875,3.72266 0.0227,-8.30623 0.0101,-16.84235 1.6543,-24.31641 z m -314.16406,15.98633 c 0.37843,0.56984 0.744,1.09216 1.07031,1.60156 0.98142,1.52655 1.64147,2.93591 1.48437,5.17774 -0.95666,0.82688 -7.17026,0.0278 -14.77148,1.86914 -1.95852,-2.81503 0.49134,-3.21331 -0.625,-5.66992 1.08924,-0.55813 9.02159,-2.87107 12.8418,-2.97852 z m 406.29101,3.82031 c 3.10454,8.40133 12.58009,44.90825 8.81836,59.41211 -0.6491,2.50265 -7.41211,2.28516 -7.41211,2.28516 z m -23.43555,2.74414 c 0,0 18.45101,53.39851 17.65625,61.01758 -4.30858,0.84949 -6.37428,4.20508 -7.38867,1.33789 -5.37604,-28.06152 -12.87564,-48.58275 -10.26758,-62.35547 z m -69.42773,7.28711 c 1.23315,0.1663 2.44435,0.39157 3.60156,0.6875 -0.67226,1.7218 -0.59421,1.66962 -1.44336,3.46875 -0.39991,-1.69973 -1.71917,-1.92784 -2.1582,-4.15625 z m -308.4707,0.75196 c 1.60598,1.57273 2.18547,3.95714 2.3125,5.9375 -0.89451,0.75031 -14.13128,6.34352 -15.26368,7.26171 -1.35372,0.76657 -4.37523,-7.41297 -3.0996,-8.31835 3.62935,-2.78873 11.59511,-3.96221 16.05078,-4.88086 z m 6.10547,13.91601 c 0.62844,0.48148 1.10525,1.08599 1.5,1.74219 1.18456,1.96845 1.61836,4.40041 3.10351,5.36328 -3.23745,3.23894 -5.9659,3.64513 -15.96875,8.69727 -4.11074,-5.26798 -3.41586,-2.72446 -5.3125,-7.5293 z m 194.87695,0.57227 c 5.95623,0.0302 8.07316,8.1227 10.54883,13.04883 1.75952,3.50105 -31.88501,26.42978 -34.68946,23.61328 -3.10004,-6.79317 -6.45573,-8.87855 -6.0957,-14.78516 10.56109,-6.08005 25.1537,-21.90129 30.23633,-21.87695 z m 29.94898,2.92574 c 16.83178,22.52863 34.39637,47.16161 56.28718,62.52424 -8.06184,-3.48548 -16.94977,-3.26145 -18.44598,-3.45389 -5.28344,-11.67756 -42.59018,-55.45079 -37.8412,-59.07035 z m -214.76539,11.45512 c 23.66353,24.23021 19.03661,16.51211 35.89844,25.95507 -3.76043,12.35109 -3.65992,8.99556 -5.89453,15.07618 -33.06829,-11.50742 -33.28295,-20.09885 -44.79883,-30.54883 0,0 10.96193,-5.65419 14.79492,-10.48242 z m 123.47852,22.26562 c 1.76581,3.67695 8.89311,9.75581 7.02148,13.69922 -8.50738,2.07012 -15.31383,9.20844 -20.42773,5.84375 0.0348,-0.0582 -1.02425,-8.87903 -2.13672,-15.27539 6.30396,-4.11046 9.78197,-3.04721 15.54297,-4.26758 z m -55.4336,6.47461 c 4.47873,0.0212 9.73116,0.98859 12.40235,0.95703 2.02949,12.91155 3.35014,12.86753 1.24219,16.26563 -11.73629,0.0881 -16.9967,0.70327 -21.21485,0.0703 -3.09538,-0.46458 -1.20209,-8.8623 1.07031,-15.88867 1.40394,-1.0877 3.81277,-1.41702 6.5,-1.4043 z m 75.37305,14.21484 c 1.11927,2.1495 23.30521,4.79116 40.08008,5.91016 -14.08947,18.41908 -11.41696,11.84338 16.32422,0.81641 5.84565,-2.32361 32.4842,-2.80635 34.63086,0.72656 1.86621,3.27987 -2.62222,9.755 -4.28906,10.20703 -39.73297,10.77479 -65.38337,-0.55095 -64.02735,0.47266 5.3153,4.0125 16.38867,9.63476 16.38867,9.63476 -25.51065,-2.80184 -30.43887,-18.36456 -29.83008,-16.67968 5.07993,21.44375 -21.87716,56.63167 -32.49218,76.49414 -0.46584,-1.41113 12.00783,-29.84257 25.11523,-53.56836 -11.9262,17.90759 -16.87335,32.24714 -38.32617,40.04101 20.09223,-40.88492 24.20308,-36.58777 36.42578,-74.05469 z m 251.7151,8.02943 c 1.34997,2.34107 5.98149,11.95985 6.5515,16.78781 1.14015,9.6572 -7.9227,9.45111 -9.42506,2.56676 -0.45808,-2.09911 -4.13766,-16.89238 -7.57166,-17.99441 -2.90104,-0.93099 9.78234,-2.50969 10.44522,-1.36016 z M 311.26367,707.6484 c 6.13125,0.89036 19.6948,17.07217 11.74024,20.50976 -8.55527,3.69719 -16.08086,-3.07268 -16.62696,-6.81445 -0.43111,-2.95385 1.76581,-14.14852 4.88672,-13.69531 z m 10.62305,30.20703 c 1.00796,7.20873 -21.89952,-6.52568 -18.44727,-9.63086 4.11312,-3.69962 17.84192,5.30153 18.44727,9.63086 z m -3.78906,4.77734 c -0.62745,4.25042 -16.30772,-5.2478 -15.03516,-7.75586 0.74445,-1.46721 15.42715,5.10047 15.03516,7.75586 z m 111.91015,-3.35156 c 5.7409,0.97021 5.865,20.00141 1.64649,19.92187 -5.47481,-0.10323 -5.64023,-20.59681 -1.64649,-19.92187 z m -114.59765,6.11523 c 0.092,2.83327 -14.76355,-3.06306 -12.3711,-5.77148 0.93478,-1.05824 12.34447,4.95184 12.3711,5.77148 z m 121.25586,-5.21289 c 5.7439,1.42824 4.11504,15.78008 1.79296,16.60352 -3.70902,1.31527 -5.46727,-17.51715 -1.79296,-16.60352 z m -13.35743,2.0293 c 0.65465,0.0524 1.27819,0.33246 1.74805,0.95508 1.51663,2.0097 2.61129,6.34931 1.13672,15.62891 -0.31614,1.98947 -10.27433,1.78443 -11.94141,0.0156 -4.12797,-4.3799 4.47129,-16.96646 9.05664,-16.59961 z m 19.11329,1.79492 c 2.94253,0.45752 2.07391,9.28127 0.64257,9.76758 -1.97917,0.67244 -1.97531,-9.9748 -0.64257,-9.76758 z"
       sodipodi:nodetypes="ssscscsssssscsccsssssssscsssssssscssscscccsssccccsssccssssscssccsccccssccscccssssccsscsccssccscscccccssccccccccsssccccsccsccccssssscsccsccccsscscccccsscsssccssssssssscssssssscsssssccscsccscccccccscccsccsccscccscccccccccsccsssccccccssccsscccccccsscccssccccccccccccsssssccsccccccccscssccccccccccsccscsccsccsccccccscsscsscccsscsccscccsccccsccccccccscccccccccccccccccccccccccccccccccccccccccscccscccscsscsscssccscsccccsssssssssssssssssssssssssssssssssss" />
  </g>
</svg>
